<?xml version="1.0" encoding="UTF-8"?>
<svg version="1.1" xmlns="http://www.w3.org/2000/svg" width="1024" height="1024">
<path d="M0 0 C337.92 0 675.84 0 1024 0 C1024 337.92 1024 675.84 1024 1024 C686.08 1024 348.16 1024 0 1024 C0 686.08 0 348.16 0 0 Z " fill="#000000" transform="translate(0,0)"/>
<path d="M0 0 C1.84626233 -0.00258608 3.6925241 -0.00559991 5.5387851 -0.0090034 C10.60107874 -0.0170483 15.66335819 -0.01886157 20.72565746 -0.01960087 C26.19013026 -0.02145583 31.65459577 -0.02900544 37.11906433 -0.03573608 C49.06364005 -0.04930261 61.00821241 -0.05534165 72.95279455 -0.05974674 C80.41638732 -0.0625123 87.87997881 -0.06675025 95.34357071 -0.07125092 C116.02288926 -0.08344194 136.70220679 -0.09374122 157.38152885 -0.09712601 C158.71775278 -0.09734764 160.0539767 -0.09756942 161.39020062 -0.09779136 C162.72955923 -0.098012 164.06891783 -0.09823248 165.40827644 -0.09845281 C168.09502975 -0.09889535 170.78178306 -0.09934246 173.46853638 -0.09979248 C174.13469035 -0.09990187 174.80084432 -0.10001126 175.48718477 -0.10012397 C197.07155945 -0.10375199 218.6559005 -0.11966351 240.24026231 -0.14298284 C263.08762199 -0.16762133 285.93496713 -0.18129403 308.78234112 -0.18249393 C321.22592392 -0.18340906 333.66946267 -0.1891205 346.11303329 -0.20731354 C356.71174346 -0.22275506 367.31039596 -0.22781117 377.90911524 -0.21957543 C383.31093585 -0.21568312 388.71264049 -0.21652881 394.11444664 -0.23063278 C399.07181533 -0.24345725 404.02898192 -0.24209998 408.98635067 -0.23004207 C410.76770193 -0.22809975 412.54906793 -0.23109462 414.33039854 -0.23988643 C449.68087268 -0.40313536 481.49597394 10.56794039 507.18728638 35.29669189 C515.52030393 43.72229853 522.19858002 52.82180346 527.99978638 63.14044189 C528.60693481 64.21809814 529.21408325 65.29575439 529.83963013 66.40606689 C533.36605444 73.04222643 536.03055724 79.68078167 538.31228638 86.82794189 C538.55479126 87.58736084 538.79729614 88.34677979 539.04714966 89.12921143 C542.74006409 101.27798646 543.28770975 112.96249085 543.25375366 125.56666565 C543.25606052 127.43471736 543.25923856 129.30276816 543.26320815 131.17081708 C543.27153401 136.28387343 543.26744089 141.39685484 543.26123571 146.50991142 C543.25670309 152.0321966 543.26369907 157.55446907 543.26919556 163.07675171 C543.27808307 173.8877901 543.27617024 184.6988007 543.27037027 195.50984017 C543.26585057 204.29902955 543.26524222 213.08821114 543.26741791 221.87740135 C543.26772437 223.12910748 543.26803084 224.38081362 543.26834659 225.67045024 C543.26898606 228.21343413 543.26963448 230.75641802 543.27029178 233.2994019 C543.27583088 256.45985649 543.27008925 279.62029657 543.25960658 302.78074782 C543.25011929 323.9025257 543.25096213 345.02427946 543.26052856 366.14605713 C543.2712499 389.89692361 543.27544061 413.64777841 543.26930404 437.39864796 C543.26866696 439.93311035 543.26803821 442.46757275 543.26741791 445.00203514 C543.26710936 446.24896226 543.26680081 447.49588937 543.2664829 448.78060216 C543.2647583 457.55463338 543.26766608 466.32865603 543.27237701 475.10268593 C543.27799553 485.80212925 543.27644911 496.50154323 543.26581553 507.2009832 C543.2605714 512.65685335 543.25848054 518.11267464 543.26511383 523.56854439 C543.27110168 528.56933169 543.26775159 533.57002516 543.25715873 538.57080402 C543.25493664 540.37353782 543.25603398 542.17627966 543.2609103 543.97900824 C543.29576862 557.94426893 542.51568381 571.19359755 537.87478638 584.51544189 C537.56984253 585.40610352 537.26489868 586.29676514 536.95071411 587.2144165 C526.89873549 615.68779951 508.21528843 639.87703951 481.99978638 655.14044189 C480.90408325 655.79915283 479.80838013 656.45786377 478.67947388 657.13653564 C468.67138398 662.94892632 458.18578692 666.31297321 446.99978638 669.14044189 C446.33526168 669.32139837 445.67073698 669.50235485 444.98607516 669.68879485 C436.32178281 671.76223918 427.50317534 671.41814911 418.65585327 671.39440918 C416.78453982 671.3967155 414.91322727 671.39989318 413.04191661 671.40386367 C407.91519943 671.412197 402.7885569 671.40809298 397.66183949 671.40189123 C392.126585 671.39736165 386.59134325 671.40435311 381.05609131 671.40985107 C370.21751026 671.418742 359.37895692 671.41682418 348.54037479 671.41102579 C339.72875493 671.4065072 330.91714284 671.40589726 322.10552216 671.40807343 C320.85090517 671.40837989 319.59628819 671.40868636 318.30365251 671.40900211 C315.75479009 671.40964157 313.20592766 671.41029 310.65706524 671.41094729 C287.4387992 671.4164874 264.22054937 671.41074321 241.00228676 671.4002621 C219.82696604 671.39077584 198.65166938 671.39161655 177.47634888 671.40118408 C153.66799044 671.41190541 129.85964527 671.41609603 106.0512836 671.40995955 C103.51062695 671.40932247 100.96997031 671.40869373 98.42931366 671.40807343 C97.17932745 671.40776487 95.92934123 671.40745632 94.64147665 671.40713842 C85.84541565 671.40541374 77.0493632 671.4083218 68.25330353 671.41303253 C57.52638764 671.41865109 46.79950102 671.41710458 36.07258847 671.40647104 C30.60254846 671.40122681 25.13255717 671.39913624 19.66251755 671.40576935 C14.64873747 671.41175704 9.63505099 671.40840736 4.62127933 671.39781424 C2.81380503 671.39559208 1.00632273 671.39668969 -0.80114636 671.40156582 C-30.0825433 671.47445995 -55.56317392 664.4318017 -80.00021362 648.14044189 C-80.00021362 647.48044189 -80.00021362 646.82044189 -80.00021362 646.14044189 C-80.585448 645.87231689 -81.17068237 645.60419189 -81.77365112 645.32794189 C-85.69755878 643.23519114 -88.75309092 640.14682964 -92.00021362 637.14044189 C-92.78911987 636.41727783 -93.57802612 635.69411377 -94.39083862 634.94903564 C-105.30564928 624.53191289 -112.89074145 612.59726639 -119.16134644 598.96124268 C-119.89709506 597.36426561 -120.66125063 595.78043952 -121.42990112 594.19903564 C-129.65110811 576.25025145 -131.15297843 556.93889856 -131.13392639 537.50640869 C-131.13579598 535.69996913 -131.13809727 533.89352997 -131.14079171 532.08709145 C-131.14689802 527.1349505 -131.14677749 522.18282646 -131.14559734 517.23068261 C-131.14539303 511.88485979 -131.15091502 506.53904235 -131.15565491 501.19322205 C-131.16395609 490.72314682 -131.16670953 480.25307722 -131.16726729 469.78299898 C-131.16774279 461.26886537 -131.16979925 452.75473361 -131.17296791 444.24060059 C-131.18177377 420.08671428 -131.1863875 395.93283241 -131.18563744 371.77894449 C-131.18559748 370.47720836 -131.18555752 369.17547223 -131.18551636 367.83428955 C-131.18547548 366.53095846 -131.1854346 365.22762736 -131.18539248 363.88480139 C-131.18498624 342.77394183 -131.19455039 321.66310013 -131.20865472 300.55224574 C-131.22303191 278.86128942 -131.22992414 257.17034181 -131.22906095 235.47938061 C-131.2287294 223.30750461 -131.23145802 211.13564733 -131.242239 198.96377563 C-131.25136176 188.59777819 -131.25350475 178.23180792 -131.24672958 167.86580819 C-131.24347307 162.58172527 -131.24337613 157.29769446 -131.25208282 152.01361656 C-131.25998752 147.1661799 -131.25847616 142.31883631 -131.24979869 137.47140181 C-131.24827238 135.72777249 -131.25004668 133.98413607 -131.25565877 132.24051511 C-131.29990881 117.50371618 -130.63246463 102.78842153 -126.37521362 88.57794189 C-126.11723999 87.70081543 -125.85926636 86.82368896 -125.59347534 85.91998291 C-116.13848695 55.23729049 -93.86245934 29.75502289 -65.93771362 14.45294189 C-44.94544762 3.36896715 -23.41370108 -0.0131225 0 0 Z " fill="#F6BF0B" transform="translate(314.0002136230469,172.85955810546875)"/>
<path d="M0 0 C2.40407017 0.0236386 4.80702377 0.02052017 7.21118164 0.01391602 C20.12326785 0.03773693 32.73189966 1.21300704 45.47094727 3.33618164 C45.47094727 23.79618164 45.47094727 44.25618164 45.47094727 65.33618164 C29.34594727 65.64868164 29.34594727 65.64868164 24.35327148 65.72412109 C10.39674178 66.01847108 -4.61997567 67.11485041 -15.40405273 76.96118164 C-21.02382551 85.88670311 -22.1284555 94.49556259 -22.13842773 104.87915039 C-22.16187256 106.54330994 -22.16187256 106.54330994 -22.18579102 108.24108887 C-22.23788837 112.33507301 -22.25657007 116.42942776 -22.27905273 120.52368164 C-22.36155273 129.70180664 -22.44405273 138.87993164 -22.52905273 148.33618164 C-0.41905273 148.33618164 21.69094727 148.33618164 44.47094727 148.33618164 C41.02248644 177.07335515 41.02248644 177.07335515 39.86547852 186.27758789 C39.69308655 187.65521301 39.69308655 187.65521301 39.51721191 189.06066895 C39.10665277 192.34009369 38.69499779 195.61938117 38.28344727 198.89868164 C36.89125977 210.00524414 36.89125977 210.00524414 35.47094727 221.33618164 C16.33094727 221.33618164 -2.80905273 221.33618164 -22.52905273 221.33618164 C-22.52905273 276.44618164 -22.52905273 331.55618164 -22.52905273 388.33618164 C-48.26905273 388.33618164 -74.00905273 388.33618164 -100.52905273 388.33618164 C-100.52905273 333.22618164 -100.52905273 278.11618164 -100.52905273 221.33618164 C-120.98905273 221.33618164 -141.44905273 221.33618164 -162.52905273 221.33618164 C-162.52905273 197.24618164 -162.52905273 173.15618164 -162.52905273 148.33618164 C-142.06905273 148.33618164 -121.60905273 148.33618164 -100.52905273 148.33618164 C-100.60738847 132.96208222 -100.60738847 132.96208222 -100.70922852 117.58813477 C-100.85380887 84.81719407 -99.62240044 49.96071467 -75.59155273 24.96118164 C-55.3247792 5.67853065 -27.1707908 -0.28397681 0 0 Z " fill="#000000" transform="translate(568.529052734375,325.663818359375)"/>
<path d="M0 0 C1.84971548 -0.00302524 3.69942972 -0.00691658 5.54914176 -0.01159257 C10.60241698 -0.02183358 15.65562093 -0.0197007 20.70890188 -0.01541197 C26.17058156 -0.0129376 31.6322444 -0.02196782 37.09391785 -0.02944946 C47.78336627 -0.04217947 58.47278955 -0.04399221 69.16224428 -0.0416492 C77.85551956 -0.03986371 86.54878724 -0.04162064 95.24206161 -0.04587364 C96.48095171 -0.04646883 97.7198418 -0.04706402 98.99627402 -0.04767724 C101.51339818 -0.04888905 104.03052235 -0.05010318 106.54764651 -0.05131962 C127.45261787 -0.06095136 148.35757961 -0.06140247 169.2625518 -0.05601571 C170.25880191 -0.05575908 170.25880191 -0.05575908 171.27517829 -0.05549726 C172.61828406 -0.0551506 173.96138983 -0.05480207 175.30449559 -0.05445167 C196.19169175 -0.04909743 217.07884566 -0.05701882 237.96603394 -0.07548523 C261.4653614 -0.09623699 284.96466675 -0.10689067 308.4640044 -0.10290974 C320.89411016 -0.10100062 333.32417746 -0.10345693 345.75427628 -0.11762428 C356.33825459 -0.12956583 366.92217075 -0.13091205 377.50614996 -0.11883412 C382.89989424 -0.11296443 388.29352501 -0.11179281 393.68726158 -0.12383652 C398.63707391 -0.13475992 403.58667884 -0.13151594 408.53648172 -0.11757483 C410.31501961 -0.11494552 412.09357409 -0.11723801 413.8720956 -0.1253107 C449.2143746 -0.27443145 481.02044344 10.69347687 506.70626831 35.41694641 C515.03928587 43.84255305 521.71756196 52.94205797 527.51876831 63.26069641 C528.12591675 64.33835266 528.73306519 65.41600891 529.35861206 66.52632141 C532.88503637 73.16248095 535.54953917 79.80103619 537.83126831 86.94819641 C538.07377319 87.70761536 538.31627808 88.4670343 538.56613159 89.24946594 C542.25904602 101.39824097 542.80669169 113.08274536 542.7727356 125.68692017 C542.77504246 127.55497188 542.77822049 129.42302268 542.78219008 131.29107159 C542.79051594 136.40412795 542.78642282 141.51710936 542.78021765 146.63016593 C542.77568503 152.15245112 542.78268101 157.67472358 542.78817749 163.19700623 C542.797065 174.00804461 542.79515217 184.81905521 542.78935221 195.63009468 C542.78483251 204.41928406 542.78422416 213.20846566 542.78639984 221.99765587 C542.78670631 223.249362 542.78701277 224.50106813 542.78732853 225.79070475 C542.78796799 228.33368864 542.78861642 230.87667253 542.78927371 233.41965642 C542.79481281 256.580111 542.78907118 279.74055108 542.77858851 302.90100233 C542.76910123 324.02278021 542.76994406 345.14453398 542.7795105 366.26631165 C542.79023183 390.01717812 542.79442254 413.76803293 542.78828597 437.51890248 C542.78764889 440.05336487 542.78702015 442.58782726 542.78639984 445.12228966 C542.78609129 446.36921677 542.78578274 447.61614389 542.78546484 448.90085668 C542.78374023 457.6748879 542.78664802 466.44891055 542.79135895 475.22294044 C542.79697747 485.92238376 542.79543104 496.62179775 542.78479746 507.32123772 C542.77955333 512.77710786 542.77746248 518.23292916 542.78409576 523.6887989 C542.79008362 528.6895862 542.78673352 533.69027967 542.77614066 538.69105854 C542.77391858 540.49379234 542.77501592 542.29653418 542.77989224 544.09926275 C542.81475056 558.06452345 542.03466575 571.31385206 537.39376831 584.63569641 C537.08882446 585.52635803 536.78388062 586.41701965 536.46969604 587.33467102 C526.53052893 615.4885025 507.81118312 640.51349291 481.51876831 655.26069641 C480.52876831 655.59069641 479.53876831 655.92069641 478.51876831 656.26069641 C478.51876831 655.27069641 478.51876831 654.28069641 478.51876831 653.26069641 C479.07306519 652.99514954 479.62736206 652.72960266 480.19845581 652.45600891 C480.92290894 652.10280579 481.64736206 651.74960266 482.39376831 651.38569641 C483.11306519 651.03764954 483.83236206 650.68960266 484.57345581 650.33100891 C486.6701185 649.29512098 486.6701185 649.29512098 488.51876831 647.26069641 C489.19939331 646.93069641 489.88001831 646.60069641 490.58126831 646.26069641 C492.68742432 645.414797 492.68742432 645.414797 493.51876831 643.26069641 C494.50876831 643.26069641 495.49876831 643.26069641 496.51876831 643.26069641 C496.78689331 642.62132141 497.05501831 641.98194641 497.33126831 641.32319641 C498.51876831 639.26069641 498.51876831 639.26069641 501.51876831 638.26069641 C501.84876831 637.27069641 502.17876831 636.28069641 502.51876831 635.26069641 C503.50876831 635.26069641 504.49876831 635.26069641 505.51876831 635.26069641 C505.76626831 634.35319641 506.01376831 633.44569641 506.26876831 632.51069641 C507.56683032 629.13573518 508.73848672 627.5196752 511.51876831 625.26069641 C512.17876831 625.26069641 512.83876831 625.26069641 513.51876831 625.26069641 C513.51876831 624.60069641 513.51876831 623.94069641 513.51876831 623.26069641 C514.17876831 623.26069641 514.83876831 623.26069641 515.51876831 623.26069641 C515.51876831 621.94069641 515.51876831 620.62069641 515.51876831 619.26069641 C516.50876831 618.60069641 517.49876831 617.94069641 518.51876831 617.26069641 C519.95560679 615.084745 519.95560679 615.084745 521.20626831 612.63569641 C521.6432605 611.81843079 522.08025269 611.00116516 522.53048706 610.15913391 C522.85661987 609.53264954 523.18275269 608.90616516 523.51876831 608.26069641 C524.17876831 608.26069641 524.83876831 608.26069641 525.51876831 608.26069641 C525.51876831 606.94069641 525.51876831 605.62069641 525.51876831 604.26069641 C526.17876831 604.26069641 526.83876831 604.26069641 527.51876831 604.26069641 C527.84876831 601.62069641 528.17876831 598.98069641 528.51876831 596.26069641 C529.50876831 595.93069641 530.49876831 595.60069641 531.51876831 595.26069641 C531.66314331 594.31194641 531.80751831 593.36319641 531.95626831 592.38569641 C532.51876831 589.26069641 532.51876831 589.26069641 533.51876831 587.26069641 C533.48783081 585.55913391 533.48783081 585.55913391 533.45626831 583.82319641 C533.51876831 580.26069641 533.51876831 580.26069641 535.51876831 577.26069641 C535.51876831 575.94069641 535.51876831 574.62069641 535.51876831 573.26069641 C536.01376831 572.80694641 536.50876831 572.35319641 537.01876831 571.88569641 C539.23470894 569.48509406 538.58142585 567.45623117 538.51876831 564.26069641 C538.8422883 563.36277062 539.16580829 562.46484482 539.49913192 561.53970915 C540.65510978 557.8222407 540.79639802 554.45736075 540.77045059 550.60899258 C540.77335747 549.85463798 540.77626436 549.10028337 540.77925932 548.32306954 C540.78656375 545.79287408 540.77961385 543.26292079 540.7727356 540.73272705 C540.77503987 538.9012763 540.77821618 537.06982647 540.78219008 535.23837858 C540.79055176 530.20330723 540.7864065 525.16831152 540.78021765 520.13323987 C540.77569956 514.70359284 540.78267388 509.27395899 540.78817749 503.84431458 C540.79708126 493.2047127 540.79514473 482.56513902 540.78935221 471.92553603 C540.78483794 463.2759019 540.78422181 454.62627567 540.78639984 445.9766407 C540.78670631 444.74617129 540.78701277 443.51570187 540.78732853 442.24794551 C540.78796798 439.74828421 540.7886164 437.24862292 540.78927371 434.74896163 C540.79481757 411.96336274 540.78906379 389.17777741 540.77858851 366.39218108 C540.76910544 345.60688953 540.76993943 324.8216225 540.7795105 304.03633118 C540.79023074 280.67738027 540.79442276 257.31844292 540.78828597 233.95948988 C540.78764888 231.46681408 540.78702014 228.97413828 540.78639984 226.48146248 C540.78609129 225.25503259 540.78578274 224.02860271 540.78546484 222.76500828 C540.78373958 214.13132925 540.78664954 205.49765893 540.79135895 196.86398125 C540.79697647 186.33383578 540.79543332 175.80372011 540.78479746 165.27357804 C540.7795513 159.90292748 540.77746591 154.53232657 540.78409576 149.16167641 C540.79007965 144.23969274 540.78673995 139.31780447 540.77614066 134.39582939 C540.77391685 132.62055461 540.77501986 130.84527168 540.77989224 129.07000219 C540.8047395 119.25984162 540.36491285 109.93580124 538.51876831 100.26069641 C538.18401707 98.34427688 537.85046486 96.42764702 537.51876831 94.51069641 C537.14522649 92.16715487 537.14522649 92.16715487 536.51876831 90.26069641 C535.85876831 89.93069641 535.19876831 89.60069641 534.51876831 89.26069641 C534.84876831 88.60069641 535.17876831 87.94069641 535.51876831 87.26069641 C534.85876831 87.26069641 534.19876831 87.26069641 533.51876831 87.26069641 C533.51876831 84.62069641 533.51876831 81.98069641 533.51876831 79.26069641 C532.85876831 79.26069641 532.19876831 79.26069641 531.51876831 79.26069641 C531.25322144 78.48983704 530.98767456 77.71897766 530.71408081 76.92475891 C530.36087769 75.92186829 530.00767456 74.91897766 529.64376831 73.88569641 C529.29572144 72.88796204 528.94767456 71.89022766 528.58908081 70.86225891 C527.67094329 68.15627523 527.67094329 68.15627523 525.51876831 66.26069641 C525.51876831 64.94069641 525.51876831 63.62069641 525.51876831 62.26069641 C524.85876831 62.26069641 524.19876831 62.26069641 523.51876831 62.26069641 C522.49264882 60.60998245 521.49568688 58.94099635 520.51876831 57.26069641 C520.00314331 56.76569641 519.48751831 56.27069641 518.95626831 55.76069641 C517.09684482 53.82042842 516.51097251 51.74120692 515.51876831 49.26069641 C513.65534109 47.07319489 511.95432991 45.88440414 509.51876831 44.26069641 C509.84876831 43.27069641 510.17876831 42.28069641 510.51876831 41.26069641 C509.85876831 41.26069641 509.19876831 41.26069641 508.51876831 41.26069641 C508.18876831 40.60069641 507.85876831 39.94069641 507.51876831 39.26069641 C506.52876831 38.93069641 505.53876831 38.60069641 504.51876831 38.26069641 C504.18543498 36.92736308 503.85210164 35.59402974 503.51876831 34.26069641 C502.52876831 33.93069641 501.53876831 33.60069641 500.51876831 33.26069641 C500.51876831 32.60069641 500.51876831 31.94069641 500.51876831 31.26069641 C499.44626831 30.99257141 498.37376831 30.72444641 497.26876831 30.44819641 C493.87049732 29.37207727 492.18823149 28.46990732 489.51876831 26.26069641 C488.20040536 25.56489374 486.87085745 24.88845208 485.51876831 24.26069641 C485.51876831 22.94069641 485.51876831 21.62069641 485.51876831 20.26069641 C484.85490112 20.17432922 484.19103394 20.08796204 483.50704956 19.99897766 C477.36447862 19.02154667 474.86269434 17.82181874 470.51876831 13.26069641 C465.11421466 10.45627166 459.59719158 8.64059787 453.51876831 8.26069641 C452.85876831 8.59069641 452.19876831 8.92069641 451.51876831 9.26069641 C450.85876831 8.60069641 450.19876831 7.94069641 449.51876831 7.26069641 C448.52876831 6.93069641 447.53876831 6.60069641 446.51876831 6.26069641 C446.51876831 5.60069641 446.51876831 4.94069641 446.51876831 4.26069641 C445.90001831 4.44632141 445.28126831 4.63194641 444.64376831 4.82319641 C442.51876831 5.26069641 442.51876831 5.26069641 440.51876831 4.26069641 C427.83720791 2.44904493 414.58728516 2.72410186 401.86642456 4.04194641 C397.7196394 4.42833571 393.63876285 4.1599531 389.49211121 3.91130066 C375.44071293 3.09621939 361.40198586 3.10889163 347.33126831 3.13569641 C346.03726105 3.13625031 344.74325378 3.1368042 343.41003418 3.13737488 C322.77126235 3.14766663 302.14371796 3.42245042 281.51217651 3.99263 C280.06290268 4.02982903 280.06290268 4.02982903 278.58435059 4.06777954 C276.80627454 4.11383968 275.02831193 4.16467133 273.25054932 4.22155762 C272.46145172 4.24164383 271.67235413 4.26173004 270.85934448 4.28242493 C270.18538132 4.30241043 269.51141815 4.32239594 268.81703186 4.34298706 C266.51876831 4.26069641 266.51876831 4.26069641 263.5918045 3.76433086 C258.42870776 3.01508347 253.2589595 3.11603264 248.05192566 3.12025452 C246.90284971 3.11728339 245.75377376 3.11431227 244.56987733 3.11125112 C240.72251132 3.10258495 236.8751765 3.10105763 233.02780151 3.0995636 C230.26794757 3.09546991 227.50809687 3.08992945 224.74824524 3.08451843 C217.25222693 3.07096371 209.756214 3.06491496 202.26018548 3.06050777 C197.57564382 3.05774071 192.89110422 3.05350254 188.20656395 3.0490036 C175.22467459 3.03681506 162.24278687 3.02651468 149.26089191 3.02312851 C148.43079013 3.02290894 147.60068835 3.02268938 146.74543197 3.02246316 C145.91339885 3.02224488 145.08136573 3.0220266 144.22411948 3.02180171 C142.53823745 3.02135825 140.85235542 3.02091169 139.16647339 3.02046204 C138.33022626 3.02024061 137.49397913 3.02001918 136.63239118 3.01979104 C123.08707866 3.01584435 109.54181998 2.9983924 95.99652825 2.97510251 C82.07449378 2.95135894 68.15248629 2.93892531 54.23043126 2.93776059 C46.41986512 2.93684556 38.60936915 2.93113665 30.7988224 2.91294098 C24.14729293 2.89749942 17.49585534 2.89244339 10.84431133 2.90067908 C7.4543941 2.90457123 4.06481127 2.90207644 0.67489243 2.88962173 C-3.01005281 2.87688009 -6.69452841 2.88279165 -10.37947083 2.89320374 C-11.43698931 2.88514733 -12.49450779 2.87709093 -13.58407229 2.86879039 C-20.9260221 2.91708127 -27.43825078 4.2458675 -34.48123169 6.26069641 C-35.19266301 6.43682425 -35.90409434 6.61295209 -36.63708419 6.79441714 C-40.15519616 7.68394614 -42.05258266 8.60074748 -44.48123169 11.26069641 C-44.97623169 10.27069641 -44.97623169 10.27069641 -45.48123169 9.26069641 C-46.28560669 9.52882141 -47.08998169 9.79694641 -47.91873169 10.07319641 C-49.88951321 10.73012358 -51.86339356 11.37862425 -53.84841919 11.99116516 C-54.65537231 12.24511047 -55.46232544 12.49905579 -56.29373169 12.76069641 C-57.063302 12.99788391 -57.83287231 13.23507141 -58.62576294 13.47944641 C-60.67464722 14.10520134 -60.67464722 14.10520134 -61.48123169 16.26069641 C-63.05822047 17.10520407 -64.66838993 17.88846755 -66.29373169 18.63569641 C-70.08476666 20.455824 -72.55885048 22.23007886 -75.48123169 25.26069641 C-78.10623169 25.94819641 -78.10623169 25.94819641 -80.48123169 26.26069641 C-81.14123169 26.59069641 -81.80123169 26.92069641 -82.48123169 27.26069641 C-80.99239531 22.86366631 -77.67410289 21.15577288 -73.85623169 18.94819641 C-73.18890015 18.55793274 -72.5215686 18.16766907 -71.83401489 17.76557922 C-61.78194529 12.01483304 -51.43748926 7.60533723 -40.29373169 4.44819641 C-39.60625854 4.25322571 -38.9187854 4.058255 -38.21047974 3.8573761 C-25.50563657 0.48290786 -13.04748918 -0.03043312 0 0 Z " fill="#FBE466" transform="translate(314.4812316894531,172.7393035888672)"/>
<path d="M0 0 C0.33 0 0.66 0 1 0 C0.99907821 1.03644496 0.99815641 2.07288992 0.99720669 3.1407423 C0.9750196 28.34500194 0.95858015 53.54926031 0.94818783 78.75352764 C0.94302877 90.94205255 0.93599345 103.13057102 0.92456055 115.3190918 C0.91460184 125.9410281 0.90814373 136.56295974 0.90591151 147.18490058 C0.90460642 152.8105307 0.90153329 158.43614746 0.89426994 164.0617733 C0.88749105 169.35497719 0.88538687 174.64816219 0.88689232 179.94137001 C0.88661684 181.88562752 0.88462279 183.82988565 0.88079453 185.7741394 C0.87582814 188.42612499 0.87701266 191.07803905 0.87974548 193.73002625 C0.87683264 194.50143359 0.8739198 195.27284094 0.87091869 196.06762427 C0.87918915 199.0317948 0.95734413 201.79762426 1.57001591 204.70437336 C2.08517054 207.45471395 1.56812233 209.26062336 1 212 C0.84436418 215.0022171 0.86510275 218.002869 0.87301636 221.00856018 C0.87145637 221.91752027 0.86989638 222.82648036 0.86828911 223.76298469 C0.86429931 226.81018661 0.86746114 229.85733873 0.87060547 232.90454102 C0.86925039 235.08954904 0.86746986 237.27455684 0.86529541 239.45956421 C0.86072971 245.40050987 0.86250818 251.34143819 0.8656745 257.28238416 C0.86820734 263.51238886 0.86585753 269.74239209 0.86428833 275.97239685 C0.86235062 287.12277561 0.8654625 298.27314803 0.87054767 309.42352527 C0.8749989 319.49418678 0.8742533 329.56483675 0.86962891 339.63549805 C0.86426973 351.35338971 0.8623008 363.07127416 0.86524117 374.78916687 C0.86679165 380.9824949 0.86703211 387.17581502 0.86370468 393.36914253 C0.86078676 399.20909911 0.86287268 405.04903421 0.86859894 410.88898849 C0.86990664 413.01722999 0.86956688 415.14547334 0.86733627 417.27371407 C0.85755569 427.56569021 0.95246359 437.83367546 1.44558716 448.11534119 C1.48432288 448.9396619 1.5230586 449.76398261 1.56296813 450.61328274 C2.02345197 459.17220614 4.24412015 466.89447102 7 475 C7.226875 475.71414063 7.45375 476.42828125 7.6875 477.1640625 C9.13592542 481.67530419 10.74129906 485.81722049 13 490 C13.45632812 490.84691406 13.91265625 491.69382812 14.3828125 492.56640625 C15.90899678 495.38486214 17.45210455 498.19342114 19 501 C19.38671875 501.71285156 19.7734375 502.42570312 20.171875 503.16015625 C21.86030072 506.21880438 23.54428548 508.55620642 26 511 C27.82829114 513.32099321 29.60251941 515.67818708 31.37890625 518.0390625 C32.85818042 520.09759757 32.85818042 520.09759757 35 521 C34.67 521.99 34.34 522.98 34 524 C23.19322692 514.13294632 15.89986171 502.0010067 9.83886719 488.82080078 C9.10311857 487.22382371 8.33896299 485.63999763 7.5703125 484.05859375 C-0.66258546 466.08428547 -2.15270557 446.75081753 -2.13371277 427.29194641 C-2.13558231 425.47766723 -2.13788359 423.66338845 -2.14057809 421.84911031 C-2.14668431 416.87573262 -2.1465639 411.90237178 -2.14538372 406.9289912 C-2.14517942 401.56088368 -2.15070106 396.19278152 -2.15544128 390.82467651 C-2.16374091 380.31417622 -2.16649578 369.80368153 -2.16705366 359.29317824 C-2.16752896 350.75272966 -2.16958436 342.21228294 -2.17275429 333.67183495 C-2.1815574 309.46222636 -2.18617396 285.2526222 -2.18542381 261.043012 C-2.18538386 259.73838591 -2.1853439 258.43375982 -2.18530273 257.08959961 C-2.18526185 255.7833831 -2.18522097 254.47716659 -2.18517885 253.13136777 C-2.18477203 231.94194525 -2.19435172 210.75254047 -2.2084411 189.56312308 C-2.22279133 167.81006921 -2.2297121 146.057024 -2.22884732 124.30396527 C-2.22851499 112.08940359 -2.23127849 99.87486053 -2.24202538 87.66030312 C-2.25111237 77.26581085 -2.25332033 66.87134565 -2.24651595 56.47685114 C-2.2432422 51.17185328 -2.2432249 45.86690742 -2.2518692 40.56191444 C-2.25969696 35.70826834 -2.25834113 30.85471579 -2.24958507 26.00107207 C-2.24804189 24.24283371 -2.24989682 22.4845885 -2.25544515 20.72635821 C-2.26247696 18.34051571 -2.25723395 15.95500394 -2.24888897 13.56917286 C-2.25385715 12.88319992 -2.25882533 12.19722698 -2.26394406 11.49046698 C-2.23285351 7.29920889 -1.51965959 3.90074669 0 0 Z " fill="#946C00" transform="translate(185,283)"/>
<path d="M0 0 C1.86325568 -0.0008735 3.72651111 -0.00262713 5.58976525 -0.00517833 C10.67973222 -0.00962752 15.76961423 -0.00168175 20.85957038 0.00837779 C26.35973399 0.01704517 31.85989312 0.01408981 37.36006165 0.01257324 C46.87951091 0.01152647 56.39893267 0.01778137 65.91837502 0.02904892 C79.68174995 0.0453291 93.44511164 0.0505145 107.20849516 0.0530249 C129.54071183 0.05739805 151.87291566 0.07067962 174.2051239 0.08963013 C195.89392521 0.10801335 217.5827226 0.12217354 239.27153015 0.13064575 C239.94065142 0.1309088 240.60977268 0.13117186 241.29917035 0.13144288 C248.01906183 0.13408003 254.73895334 0.13663164 261.45884487 0.1391206 C317.76954518 0.15998532 374.08022926 0.19526188 430.39091492 0.24050903 C430.39091492 0.57050903 430.39091492 0.90050903 430.39091492 1.24050903 C373.96091492 1.57050903 317.53091492 1.90050903 259.39091492 2.24050903 C259.39091492 2.57050903 259.39091492 2.90050903 259.39091492 3.24050903 C258.79876812 3.23936987 258.20662132 3.23823071 257.59653068 3.23705703 C222.47379995 3.1698717 187.35108031 3.11842355 152.22829865 3.08731304 C148.00776438 3.08356108 143.78723024 3.0796781 139.56669617 3.07571411 C138.30638771 3.07453371 138.30638771 3.07453371 137.02061847 3.07332947 C123.42959984 3.06028802 109.83861941 3.03664114 96.24762341 3.00905064 C82.29417473 2.98096134 68.34074601 2.96432533 54.38727021 2.95824355 C45.78246579 2.95413441 37.17776936 2.94117245 28.5729982 2.91675963 C22.666337 2.90085889 16.75973135 2.89611846 10.85305032 2.9000049 C7.44899997 2.90191975 4.0452891 2.89739879 0.6412468 2.88289261 C-3.05939075 2.86789908 -6.75957154 2.87158086 -10.46022034 2.87974548 C-11.52251366 2.87100696 -12.58480698 2.86226843 -13.67929101 2.85326511 C-21.03465919 2.89692863 -27.55368437 4.22019105 -34.60908508 6.24050903 C-35.32045569 6.41664555 -36.03182629 6.59278206 -36.76475358 6.77425605 C-40.28297259 7.66367322 -42.18039259 8.58051249 -44.60908508 11.24050903 C-45.10408508 10.25050903 -45.10408508 10.25050903 -45.60908508 9.24050903 C-46.41346008 9.50863403 -47.21783508 9.77675903 -48.04658508 10.05300903 C-50.0173666 10.70993621 -51.99124696 11.35843687 -53.97627258 11.97097778 C-54.78322571 12.2249231 -55.59017883 12.47886841 -56.42158508 12.74050903 C-57.1911554 12.97769653 -57.96072571 13.21488403 -58.75361633 13.45925903 C-60.80250062 14.08501396 -60.80250062 14.08501396 -61.60908508 16.24050903 C-63.18607387 17.08501669 -64.79624332 17.86828017 -66.42158508 18.61550903 C-70.21262006 20.43563662 -72.68670387 22.20989148 -75.60908508 25.24050903 C-78.23408508 25.92800903 -78.23408508 25.92800903 -80.60908508 26.24050903 C-81.26908508 26.57050903 -81.92908508 26.90050903 -82.60908508 27.24050903 C-81.12024871 22.84347893 -77.80195628 21.1355855 -73.98408508 18.92800903 C-73.31675354 18.53774536 -72.649422 18.14748169 -71.96186829 17.74539185 C-61.90979869 11.99464566 -51.56534265 7.58514985 -40.42158508 4.42800903 C-39.73411194 4.23303833 -39.04663879 4.03806763 -38.33833313 3.83718872 C-25.58634048 0.45019735 -13.09502696 -0.04595534 0 0 Z " fill="#F1D360" transform="translate(314.6090850830078,172.75949096679688)"/>
<path d="M0 0 C27.64305507 -0.07019144 55.28609671 -0.12303779 82.92922306 -0.15543652 C95.76542712 -0.17088202 108.6015757 -0.19192717 121.43774414 -0.22631836 C132.63036988 -0.25629171 143.82295541 -0.27559183 155.01562017 -0.28226548 C160.93783799 -0.2861643 166.85994082 -0.29527863 172.78212166 -0.31719017 C178.36594886 -0.3376808 183.94961464 -0.34380854 189.53347588 -0.33932304 C191.57351944 -0.34014265 193.61356887 -0.34603282 195.65357971 -0.35761642 C228.78161889 -0.53636296 258.17263923 11.04487072 282.1875 34.15625 C290.52051755 42.58185664 297.19879365 51.68136156 303 62 C303.60714844 63.07765625 304.21429687 64.1553125 304.83984375 65.265625 C312.1016368 78.93114364 318.84903433 96.29286498 318 112 C317.34 112 316.68 112 316 112 C315.87882812 111.17757812 315.75765625 110.35515625 315.6328125 109.5078125 C314.81773417 104.07813684 313.98636455 98.65152013 313 93.25 C312.855625 92.45078125 312.71125 91.6515625 312.5625 90.828125 C312.376875 90.22484375 312.19125 89.6215625 312 89 C311.34 88.67 310.68 88.34 310 88 C310.33 87.34 310.66 86.68 311 86 C310.34 86 309.68 86 309 86 C309 83.36 309 80.72 309 78 C308.34 78 307.68 78 307 78 C306.73445313 77.22914063 306.46890625 76.45828125 306.1953125 75.6640625 C305.84210938 74.66117187 305.48890625 73.65828125 305.125 72.625 C304.77695312 71.62726563 304.42890625 70.62953125 304.0703125 69.6015625 C303.15217498 66.89557882 303.15217498 66.89557882 301 65 C301 63.68 301 62.36 301 61 C300.34 61 299.68 61 299 61 C297.97388051 59.34928604 296.97691857 57.68029994 296 56 C295.484375 55.505 294.96875 55.01 294.4375 54.5 C292.57807651 52.55973201 291.9922042 50.48051051 291 48 C289.13657278 45.81249848 287.4355616 44.62370773 285 43 C285.33 42.01 285.66 41.02 286 40 C285.34 40 284.68 40 284 40 C283.67 39.34 283.34 38.68 283 38 C282.01 37.67 281.02 37.34 280 37 C279.66666667 35.66666667 279.33333333 34.33333333 279 33 C278.01 32.67 277.02 32.34 276 32 C276 31.34 276 30.68 276 30 C274.9275 29.731875 273.855 29.46375 272.75 29.1875 C269.35172901 28.11138085 267.66946318 27.20921091 265 25 C263.68163705 24.30419733 262.35208914 23.62775567 261 23 C261 21.68 261 20.36 261 19 C260.33613281 18.91363281 259.67226563 18.82726562 258.98828125 18.73828125 C252.84571031 17.76085025 250.34392603 16.56112233 246 12 C240.59544635 9.19557525 235.07842327 7.37990145 229 7 C228.34 7.33 227.68 7.66 227 8 C226.01 7.01 226.01 7.01 225 6 C224.01 5.67 223.02 5.34 222 5 C222 4.34 222 3.68 222 3 C221.071875 3.2784375 221.071875 3.2784375 220.125 3.5625 C218 4 218 4 216 3 C203.3184396 1.18834851 190.06851684 1.46340545 177.34765625 2.78125 C173.20087109 3.1676393 169.11999454 2.89925668 164.9733429 2.65060425 C150.92194473 1.83552299 136.88321756 1.84819329 122.8125 1.875 C120.87198761 1.87583084 120.87198761 1.87583084 118.89227295 1.87667847 C98.22387744 1.88698808 77.56672014 2.16325586 56.90551758 2.73193359 C55.93752731 2.75673294 54.96953705 2.78153229 53.97221375 2.80708313 C52.18749817 2.85324388 50.40289467 2.90410877 48.6184845 2.96086121 C44.24406773 3.07219985 40.32193919 2.77151972 36 2 C33.17438236 1.85444417 30.36615543 1.74605046 27.5390625 1.68359375 C26.3532106 1.6524221 26.3532106 1.6524221 25.1434021 1.62062073 C22.63734983 1.55564418 20.13119976 1.49648357 17.625 1.4375 C15.91795895 1.39426532 14.21092751 1.35064951 12.50390625 1.30664062 C8.33603574 1.2000166 4.16806761 1.09860559 0 1 C0 0.67 0 0.34 0 0 Z " fill="#F8E683" transform="translate(539,174)"/>
<path d="M0 0 C0.33 0 0.66 0 1 0 C0.99907821 1.03644496 0.99815641 2.07288992 0.99720669 3.1407423 C0.9750196 28.34500194 0.95858015 53.54926031 0.94818783 78.75352764 C0.94302877 90.94205255 0.93599345 103.13057102 0.92456055 115.3190918 C0.91460184 125.9410281 0.90814373 136.56295974 0.90591151 147.18490058 C0.90460642 152.8105307 0.90153329 158.43614746 0.89426994 164.0617733 C0.88749105 169.35497719 0.88538687 174.64816219 0.88689232 179.94137001 C0.88661684 181.88562752 0.88462279 183.82988565 0.88079453 185.7741394 C0.87582814 188.42612499 0.87701266 191.07803905 0.87974548 193.73002625 C0.87683264 194.50143359 0.8739198 195.27284094 0.87091869 196.06762427 C0.87918915 199.0317948 0.95734413 201.79762426 1.57001591 204.70437336 C2.08085148 207.43165505 1.61010193 209.30898071 1 212 C0.91893193 213.72112095 0.88633224 215.44496859 0.89320374 217.16798401 C0.89547722 218.69679199 0.89547722 218.69679199 0.89779663 220.25648499 C0.904534 221.36366379 0.91127136 222.47084259 0.91821289 223.61157227 C0.92127945 224.78605927 0.92434601 225.96054626 0.92750549 227.17062378 C0.93651953 230.38332722 0.94985472 233.59598197 0.96446919 236.80866361 C0.97819226 240.17402187 0.98462399 243.53939152 0.99131775 246.9047699 C1.01544124 258.36192572 1.05138489 269.81902917 1.09594727 281.27612305 C1.12050064 287.6087453 1.13785847 293.94134723 1.14750665 300.27401012 C1.15297406 303.62312424 1.1623691 306.97213003 1.18089485 310.32119942 C1.20005363 314.053447 1.206999 317.78553223 1.21118164 321.51782227 C1.21994324 322.6270253 1.22870483 323.73622833 1.23773193 324.87904358 C1.23642776 325.89542908 1.2351236 326.91181458 1.23377991 327.95899963 C1.23849351 329.28217115 1.23849351 329.28217115 1.24330235 330.6320734 C0.98034368 333.19130407 0.19623831 334.75035213 -1 337 C-1.02287727 294.79027239 -1.04050378 252.58054549 -1.05106533 210.37081291 C-1.05231607 205.39019362 -1.05361039 200.40957435 -1.05493164 195.42895508 C-1.05519395 194.43738253 -1.05545626 193.44580997 -1.05572652 192.42418977 C-1.06008058 176.35824746 -1.06796669 160.29230872 -1.0771528 144.22636852 C-1.08649666 127.74737377 -1.09205717 111.26838089 -1.09408849 94.78938359 C-1.09546219 84.61688332 -1.09980455 74.44439313 -1.10791647 64.27189597 C-1.11319295 57.30097492 -1.11480223 50.3300591 -1.11350138 43.3591362 C-1.11285942 39.33430526 -1.11385957 35.30949198 -1.11920547 31.28466415 C-1.12406204 27.60143472 -1.12432373 23.91823487 -1.12089889 20.23500409 C-1.12027452 18.26829448 -1.12459606 16.30158524 -1.12908131 14.33488065 C-1.12709026 13.16843808 -1.12509921 12.0019955 -1.12304783 10.80020618 C-1.12342755 9.79356759 -1.12380727 8.78692899 -1.1241985 7.7497862 C-1.0029977 5.06636976 -0.60202575 2.61384809 0 0 Z " fill="#A67B00" transform="translate(185,283)"/>
<path d="M0 0 C3.34373475 0.55728913 6.03312999 1.35173889 9 3 C9 3.66 9 4.32 9 5 C9.680625 5.268125 10.36125 5.53625 11.0625 5.8125 C12.031875 6.204375 13.00125 6.59625 14 7 C14.91845703 7.36158203 14.91845703 7.36158203 15.85546875 7.73046875 C20.88712807 9.77425614 20.88712807 9.77425614 22 12 C23.99866686 12.34123581 25.99902542 12.6725678 28 13 C30.02093193 13.68728049 31.99665101 14.46064114 33.984375 15.23828125 C37.73700191 16.65642514 41.56871049 17.7137421 45.5 18.5 C48 19 48 19 50.79188538 20.01705933 C56.65592088 21.69339126 62.78600227 21.26041269 68.82983398 21.22705078 C70.2298634 21.226486 71.62989341 21.22680453 73.02992249 21.22793579 C76.81456366 21.22850771 80.5990771 21.21677954 84.38368869 21.20278788 C88.34482084 21.19025364 92.30595618 21.1891079 96.2671051 21.18673706 C103.76091879 21.18053019 111.25467386 21.16413014 118.74846178 21.14403808 C127.28291539 21.12165436 135.81737186 21.11067944 144.35184753 21.10064721 C161.90126554 21.07976319 179.45062657 21.04460268 197 21 C196.01 21.33 195.02 21.66 194 22 C194 22.66 194 23.32 194 24 C177.16152107 24.04687647 160.32306272 24.0820651 143.48453331 24.10362434 C135.66479679 24.11390408 127.84510099 24.12790066 120.02539062 24.15087891 C113.2037788 24.17091456 106.38219649 24.18374039 99.56055605 24.18817699 C95.95396239 24.19076728 92.34745311 24.1967853 88.74088669 24.21146011 C84.69880296 24.22777113 80.65686269 24.22797323 76.61474609 24.22705078 C75.44013321 24.23424133 74.26552032 24.24143188 73.05531311 24.24884033 C49.55274261 24.19122435 19.15521041 17.85075243 1.11328125 1.265625 C0.74589844 0.84796875 0.37851563 0.4303125 0 0 Z " fill="#C99300" transform="translate(234,820)"/>
<path d="M0 0 C0.68451554 -0.00155999 1.36903107 -0.00311998 2.0742895 -0.00472724 C4.36723116 -0.00871475 6.66010656 -0.00555626 8.95304871 -0.00241089 C10.59743285 -0.00376596 12.24181669 -0.0055465 13.88619995 -0.00772095 C18.35324034 -0.0122837 22.82025765 -0.01051017 27.28729844 -0.00734186 C31.96321058 -0.00481102 36.63912074 -0.00715794 41.31503296 -0.00872803 C49.17093765 -0.01054814 57.02683294 -0.00814811 64.88273621 -0.00338745 C73.95878695 0.00204919 83.03481522 0.00029623 92.11086541 -0.00521386 C99.90547274 -0.00975625 107.70007331 -0.01038984 115.49468154 -0.00777519 C120.14892202 -0.00621789 124.80315194 -0.00600355 129.45739174 -0.00931168 C133.83631628 -0.01220654 138.21521195 -0.01018501 142.59413338 -0.00441742 C144.19891563 -0.00309824 145.80370032 -0.00346961 147.4084816 -0.00568008 C149.60414068 -0.0084249 151.79970804 -0.00496985 153.99536133 0 C155.22260327 0.00037703 156.44984522 0.00075405 157.71427631 0.0011425 C161.26784659 0.12987043 164.67981595 0.5610586 168.18815613 1.12698364 C168.18815613 1.45698364 168.18815613 1.78698364 168.18815613 2.12698364 C159.30109674 3.23331955 150.47876373 3.26184021 141.53923035 3.24050903 C139.87275189 3.24022652 138.20627331 3.24038614 136.53979492 3.24095154 C132.04258559 3.24123702 127.54540323 3.23538067 123.04820013 3.22837758 C118.3383533 3.22210246 113.62850576 3.22153696 108.9186554 3.22035217 C100.01186672 3.21725108 91.1050904 3.20905423 82.19830716 3.19900268 C72.05316719 3.18780352 61.90802661 3.18232153 51.76288199 3.17730725 C30.90463316 3.16687054 10.04639542 3.14929486 -10.81184387 3.12698364 C-10.81184387 2.46698364 -10.81184387 1.80698364 -10.81184387 1.12698364 C-7.18384048 -0.00701481 -3.78607766 0.00116421 0 0 Z " fill="#F2B800" transform="translate(438.8118438720703,840.8730163574219)"/>
<path d="M0 0 C66.33 0 132.66 0 201 0 C197.23638801 1.88180599 196.37432732 2.2239303 192.5 2.0625 C187.50424129 1.95131843 182.63573489 2.30900671 177.6640625 2.78125 C173.40514828 3.13095557 169.23041173 2.90587781 164.9733429 2.65060425 C150.92194473 1.83552299 136.88321756 1.84819329 122.8125 1.875 C120.87198761 1.87583084 120.87198761 1.87583084 118.89227295 1.87667847 C98.22387744 1.88698808 77.56672014 2.16325586 56.90551758 2.73193359 C55.93752731 2.75673294 54.96953705 2.78153229 53.97221375 2.80708313 C52.18749817 2.85324388 50.40289467 2.90410877 48.6184845 2.96086121 C44.24406773 3.07219985 40.32193919 2.77151972 36 2 C33.17438236 1.85444417 30.36615543 1.74605046 27.5390625 1.68359375 C26.3532106 1.6524221 26.3532106 1.6524221 25.1434021 1.62062073 C22.63734983 1.55564418 20.13119976 1.49648357 17.625 1.4375 C15.91795895 1.39426532 14.21092751 1.35064951 12.50390625 1.30664062 C8.33603574 1.2000166 4.16806761 1.09860559 0 1 C0 0.67 0 0.34 0 0 Z " fill="#FCEA79" transform="translate(539,174)"/>
<path d="M0 0 C1.10220886 -0.00311188 2.20441772 -0.00622375 3.34002686 -0.00942993 C5.14252899 -0.00645401 5.14252899 -0.00645401 6.98144531 -0.00341797 C8.87845184 -0.00539688 8.87845184 -0.00539688 10.81378174 -0.00741577 C14.26267161 -0.01012687 17.71151678 -0.00562815 21.16040039 0.00082397 C23.30615371 0.00438886 25.45190034 0.00601245 27.59765625 0.00708008 C56.5920965 0.02496137 85.57235012 0.48027115 114.55957031 1.12939453 C114.55957031 1.45939453 114.55957031 1.78939453 114.55957031 2.12939453 C113.97795261 2.12662915 113.39633492 2.12386377 112.79709244 2.1210146 C98.59772879 2.05455261 84.39838868 2.00501611 70.19890213 1.97395802 C63.33192584 1.95853655 56.46505385 1.93753825 49.59814453 1.90307617 C42.9651082 1.86980387 36.33215133 1.85251613 29.69902802 1.8447628 C27.17462209 1.83924084 24.65022176 1.82845803 22.12586212 1.81220436 C18.5766189 1.79027081 15.02781624 1.78743429 11.47851562 1.78881836 C10.44632401 1.77803253 9.41413239 1.7672467 8.35066223 1.75613403 C1.04407323 1.78675246 -5.43191563 3.12683434 -12.44042969 5.12939453 C-13.15209667 5.30555707 -13.86376366 5.48171961 -14.59699631 5.66322041 C-18.1148138 6.55281887 -20.01196966 7.4696526 -22.44042969 10.12939453 C-22.93542969 9.13939453 -22.93542969 9.13939453 -23.44042969 8.12939453 C-24.24480469 8.39751953 -25.04917969 8.66564453 -25.87792969 8.94189453 C-27.84871121 9.5988217 -29.82259156 10.24732237 -31.80761719 10.85986328 C-32.61457031 11.11380859 -33.42152344 11.36775391 -34.25292969 11.62939453 C-35.0225 11.86658203 -35.79207031 12.10376953 -36.58496094 12.34814453 C-38.63384522 12.97389946 -38.63384522 12.97389946 -39.44042969 15.12939453 C-41.01741847 15.97390219 -42.62758793 16.75716567 -44.25292969 17.50439453 C-48.04396466 19.32452212 -50.51804847 21.09877698 -53.44042969 24.12939453 C-56.06542969 24.81689453 -56.06542969 24.81689453 -58.44042969 25.12939453 C-59.10042969 25.45939453 -59.76042969 25.78939453 -60.44042969 26.12939453 C-58.95159331 21.73236443 -55.63330088 20.024471 -51.81542969 17.81689453 C-51.14809814 17.42663086 -50.4807666 17.03636719 -49.79321289 16.63427734 C-36.94282959 9.28262782 -23.76118864 4.72443983 -9.44042969 1.12939453 C-8.81497253 0.94756622 -8.18951538 0.76573792 -7.54510498 0.57839966 C-4.98584158 0.03241407 -2.61772795 0.00217132 0 0 Z " fill="#FADE66" transform="translate(292.4404296875,173.87060546875)"/>
<path d="M0 0 C2 2 2 2 2.00390625 4.51953125 C-2.31437071 36.73464165 -19.62219375 67.5993613 -45.06640625 87.83984375 C-56.27092511 96.09030837 -56.27092511 96.09030837 -62 98 C-62 97.01 -62 96.02 -62 95 C-61.16855469 94.60167969 -61.16855469 94.60167969 -60.3203125 94.1953125 C-59.59585938 93.84210938 -58.87140625 93.48890625 -58.125 93.125 C-57.40570312 92.77695312 -56.68640625 92.42890625 -55.9453125 92.0703125 C-53.84864981 91.03442457 -53.84864981 91.03442457 -52 89 C-50.9790625 88.505 -50.9790625 88.505 -49.9375 88 C-47.83134399 87.15410058 -47.83134399 87.15410058 -47 85 C-46.01 85 -45.02 85 -44 85 C-43.731875 84.360625 -43.46375 83.72125 -43.1875 83.0625 C-42 81 -42 81 -39 80 C-38.505 78.515 -38.505 78.515 -38 77 C-37.01 77 -36.02 77 -35 77 C-34.7525 76.0925 -34.505 75.185 -34.25 74.25 C-32.95193799 70.87503877 -31.78028159 69.25897879 -29 67 C-28.34 67 -27.68 67 -27 67 C-27 66.34 -27 65.68 -27 65 C-26.34 65 -25.68 65 -25 65 C-25 63.68 -25 62.36 -25 61 C-24.01 60.34 -23.02 59.68 -22 59 C-20.56316152 56.82404859 -20.56316152 56.82404859 -19.3125 54.375 C-18.87550781 53.55773437 -18.43851563 52.74046875 -17.98828125 51.8984375 C-17.66214844 51.27195312 -17.33601562 50.64546875 -17 50 C-16.34 50 -15.68 50 -15 50 C-15 48.68 -15 47.36 -15 46 C-14.34 46 -13.68 46 -13 46 C-12.67 43.36 -12.34 40.72 -12 38 C-11.01 37.67 -10.02 37.34 -9 37 C-8.855625 36.05125 -8.71125 35.1025 -8.5625 34.125 C-8 31 -8 31 -7 29 C-7.020625 27.865625 -7.04125 26.73125 -7.0625 25.5625 C-7 22 -7 22 -5 19 C-5 17.68 -5 16.36 -5 15 C-4.505 14.54625 -4.01 14.0925 -3.5 13.625 C-1.28405937 11.22439765 -1.93734246 9.19553476 -2 6 C-1 2.625 -1 2.625 0 0 Z " fill="#F7DF4B" transform="translate(855,731)"/>
<path d="M0 0 C3.34373475 0.55728913 6.03312999 1.35173889 9 3 C9 3.66 9 4.32 9 5 C9.680625 5.268125 10.36125 5.53625 11.0625 5.8125 C12.031875 6.204375 13.00125 6.59625 14 7 C14.91845703 7.36158203 14.91845703 7.36158203 15.85546875 7.73046875 C20.88712807 9.77425614 20.88712807 9.77425614 22 12 C23.99866686 12.34123581 25.99902542 12.6725678 28 13 C30.02093193 13.68728049 31.99665101 14.46064114 33.984375 15.23828125 C37.73700191 16.65642514 41.56871049 17.7137421 45.5 18.5 C48 19 48 19 51.02563477 20.01904297 C55.69529072 21.36033438 60.26450962 21.25038488 65.08984375 21.1953125 C66.03436905 21.1924826 66.97889435 21.18965271 67.95204163 21.18673706 C70.94732724 21.17560684 73.94230586 21.1505156 76.9375 21.125 C78.9772092 21.11496095 81.01692312 21.10583672 83.05664062 21.09765625 C88.0378774 21.07569096 93.01888678 21.04121076 98 21 C98.495 22.485 98.495 22.485 99 24 C94.12940909 24.05014865 89.25897467 24.08606618 84.38818359 24.10986328 C82.73776628 24.11980362 81.087366 24.13336063 79.43701172 24.15087891 C69.07511735 24.25796231 59.22201765 23.88813259 49 22 C48.23316895 21.85916992 47.46633789 21.71833984 46.67626953 21.57324219 C31.78323539 18.5850909 10.30814118 11.71872892 0 0 Z " fill="#A27600" transform="translate(234,820)"/>
<path d="M0 0 C0.69308762 -0.00014603 1.38617523 -0.00029205 2.1002655 -0.0004425 C4.38360764 0.00025232 6.66686748 0.00802454 8.95019531 0.01586914 C10.53631546 0.01773485 12.12243619 0.01915803 13.70855713 0.02015686 C17.87768146 0.02397001 22.04677081 0.03379002 26.21588135 0.04486084 C30.47236661 0.05510082 34.72885753 0.05966002 38.98535156 0.06469727 C47.33302385 0.07541338 55.68066772 0.09247535 64.02832031 0.11352539 C63.36832031 1.10352539 62.70832031 2.09352539 62.02832031 3.11352539 C59.01644897 3.47428894 59.01644897 3.47428894 55.10009766 3.45410156 C54.38779495 3.45453964 53.67549225 3.45497772 52.94160461 3.45542908 C50.5822122 3.45333549 48.2235264 3.42997864 45.86425781 3.40649414 C44.23044218 3.40090019 42.59662153 3.39662914 40.96279907 3.39363098 C36.65871329 3.38216633 32.35493033 3.35268547 28.05096436 3.31951904 C23.66064552 3.2888529 19.27027784 3.27513306 14.87988281 3.26000977 C6.26255621 3.2278171 -2.35452409 3.17660147 -10.97167969 3.11352539 C-10.97167969 2.45352539 -10.97167969 1.79352539 -10.97167969 1.11352539 C-7.29617257 -0.04463438 -3.83640558 -0.00680214 0 0 Z " fill="#DBA200" transform="translate(438.9716796875,840.886474609375)"/>
<path d="M0 0 C-3.25359669 2.16906446 -5.11842976 2.47127829 -8.9375 3 C-14.5146545 3.77402888 -18.16284413 4.77912854 -22 9 C-22.495 8.01 -22.495 8.01 -23 7 C-23.804375 7.268125 -24.60875 7.53625 -25.4375 7.8125 C-27.40828152 8.46942717 -29.38216187 9.11792784 -31.3671875 9.73046875 C-32.17414063 9.98441406 -32.98109375 10.23835937 -33.8125 10.5 C-34.58207031 10.7371875 -35.35164063 10.974375 -36.14453125 11.21875 C-38.19341554 11.84450493 -38.19341554 11.84450493 -39 14 C-40.57698878 14.84450766 -42.18715824 15.62777114 -43.8125 16.375 C-47.60353497 18.19512759 -50.07761879 19.96938245 -53 23 C-55.625 23.6875 -55.625 23.6875 -58 24 C-58.66 24.33 -59.32 24.66 -60 25 C-58.51116362 20.6029699 -55.1928712 18.89507646 -51.375 16.6875 C-50.70766846 16.29723633 -50.04033691 15.90697266 -49.3527832 15.50488281 C-36.50239991 8.15323329 -23.32075896 3.5950453 -9 0 C-8.31905273 -0.19352051 -7.63810547 -0.38704102 -6.93652344 -0.58642578 C-4.41301166 -1.12536034 -2.4776768 -0.6194192 0 0 Z " fill="#F5DB56" transform="translate(292,175)"/>
<path d="M0 0 C15.42481191 14.62421613 25.41566498 41.76211699 26.125 62.6875 C26.08375 63.450625 26.0425 64.21375 26 65 C25.34 65 24.68 65 24 65 C23.87882813 64.17757812 23.75765625 63.35515625 23.6328125 62.5078125 C22.81773417 57.07813684 21.98636455 51.65152013 21 46.25 C20.855625 45.45078125 20.71125 44.6515625 20.5625 43.828125 C20.376875 43.22484375 20.19125 42.6215625 20 42 C19.34 41.67 18.68 41.34 18 41 C18.33 40.34 18.66 39.68 19 39 C18.34 39 17.68 39 17 39 C17 36.36 17 33.72 17 31 C16.34 31 15.68 31 15 31 C14.73445312 30.22914063 14.46890625 29.45828125 14.1953125 28.6640625 C13.84210937 27.66117188 13.48890625 26.65828125 13.125 25.625 C12.60292969 24.12839844 12.60292969 24.12839844 12.0703125 22.6015625 C11.15217498 19.89557882 11.15217498 19.89557882 9 18 C9 16.68 9 15.36 9 14 C8.34 14 7.68 14 7 14 C5.97388051 12.34928604 4.97691857 10.68029994 4 9 C3.46375 8.525625 2.9275 8.05125 2.375 7.5625 C0.35942537 5.27207428 0.32936135 2.96425214 0 0 Z " fill="#F5E377" transform="translate(831,221)"/>
<path d="M0 0 C2 2 2 2 2.00390625 4.51953125 C0.95399986 12.35201875 -0.94938636 19.57218033 -3.4375 27.0625 C-3.737771 27.96653564 -4.03804199 28.87057129 -4.34741211 29.80200195 C-5.85391689 34.17418085 -7.37977147 38.14578006 -10 42 C-10.66 41.67 -11.32 41.34 -12 41 C-11.67 39.68 -11.34 38.36 -11 37 C-10.34 37 -9.68 37 -9 37 C-8.855625 36.05125 -8.71125 35.1025 -8.5625 34.125 C-8 31 -8 31 -7 29 C-7.020625 27.865625 -7.04125 26.73125 -7.0625 25.5625 C-7 22 -7 22 -5 19 C-5 17.68 -5 16.36 -5 15 C-4.505 14.54625 -4.01 14.0925 -3.5 13.625 C-1.28405937 11.22439765 -1.93734246 9.19553476 -2 6 C-1 2.625 -1 2.625 0 0 Z " fill="#F5E05D" transform="translate(855,731)"/>
<path d="M0 0 C3.34373475 0.55728913 6.03312999 1.35173889 9 3 C9 3.66 9 4.32 9 5 C9.680625 5.268125 10.36125 5.53625 11.0625 5.8125 C12.031875 6.204375 13.00125 6.59625 14 7 C14.91845703 7.36158203 14.91845703 7.36158203 15.85546875 7.73046875 C20.88712807 9.77425614 20.88712807 9.77425614 22 12 C23.99866686 12.34123581 25.99902542 12.6725678 28 13 C30.01813042 13.68632775 31.99131864 14.45853257 33.9765625 15.234375 C37.96247768 16.74255912 41.72712 18 46 18 C46 18.99 46 19.98 46 21 C29.75384833 18.78287812 13.30166498 10.43466648 0 1 C0 0.67 0 0.34 0 0 Z " fill="#946B00" transform="translate(234,820)"/>
<path d="M0 0 C-7.45176348 4.09787944 -14.77768364 7.51681145 -22.9375 9.9375 C-23.63415771 10.14850342 -24.33081543 10.35950684 -25.04858398 10.5769043 C-29.49953793 11.83164637 -33.37868654 12.19883096 -38 12 C-38 11.67 -38 11.34 -38 11 C-30.575 9.515 -30.575 9.515 -23 8 C-22.67 7.01 -22.34 6.02 -22 5 C-21.01 5.33 -20.02 5.66 -19 6 C-18.484375 5.34 -17.96875 4.68 -17.4375 4 C-14.20004245 1.34362457 -12.07447719 1.68657868 -8 2 C-8 1.34 -8 0.68 -8 0 C-2.25 -1.125 -2.25 -1.125 0 0 Z " fill="#F6D41B" transform="translate(792,830)"/>
<path d="M0 0 C0.66 0 1.32 0 2 0 C-2.28538546 10.4039636 -15.60223753 17.57155562 -25 23 C-25.99 23.33 -26.98 23.66 -28 24 C-28 23.01 -28 22.02 -28 21 C-27.44570313 20.73445312 -26.89140625 20.46890625 -26.3203125 20.1953125 C-25.59585938 19.84210937 -24.87140625 19.48890625 -24.125 19.125 C-23.40570312 18.77695312 -22.68640625 18.42890625 -21.9453125 18.0703125 C-19.84864981 17.03442457 -19.84864981 17.03442457 -18 15 C-17.319375 14.67 -16.63875 14.34 -15.9375 14 C-13.83134399 13.15410058 -13.83134399 13.15410058 -13 11 C-12.01 11 -11.02 11 -10 11 C-9.731875 10.360625 -9.46375 9.72125 -9.1875 9.0625 C-8 7 -8 7 -5 6 C-4.67 5.01 -4.34 4.02 -4 3 C-3.01 3 -2.02 3 -1 3 C-0.67 2.01 -0.34 1.02 0 0 Z " fill="#F6DA33" transform="translate(821,805)"/>
<path d="M0 0 C1.24716797 0.00451172 2.49433594 0.00902344 3.77929688 0.01367188 C6.83208221 0.02536837 9.88476498 0.04175914 12.9375 0.0625 C11.87524414 1.53979492 11.87524414 1.53979492 9.9375 3.0625 C6.78295898 3.43481445 6.78295898 3.43481445 2.93359375 3.42578125 C1.91495995 3.42652901 1.91495995 3.42652901 0.87574768 3.42729187 C-0.5573927 3.42495453 -1.99053743 3.41524586 -3.42358398 3.39868164 C-5.62065169 3.37504678 -7.816509 3.37812767 -10.01367188 3.38476562 C-20.78335367 3.34164633 -20.78335367 3.34164633 -23.0625 1.0625 C-15.35097276 0.00601245 -7.77584179 -0.05374053 0 0 Z " fill="#BA8800" transform="translate(354.0625,840.9375)"/>
<path d="M0 0 C-0.33 0.66 -0.66 1.32 -1 2 C-11.89 2 -22.78 2 -34 2 C-33.67 1.34 -33.34 0.68 -33 0 C-21.9716918 -1.75052511 -11.07965006 -0.89403516 0 0 Z " fill="#E9AE00" transform="translate(535,842)"/>
<path d="M0 0 C0.99 0.33 1.98 0.66 3 1 C1.76905304 3.46189391 0.44368365 4.19285655 -1.8125 5.75 C-6.49539089 9.19083381 -10.08542681 13.05527427 -11 19 C-12.98 19 -14.96 19 -17 19 C-12.13998705 11.84327206 -6.18597308 5.98784583 0 0 Z " fill="#F5CF2E" transform="translate(226,202)"/>
<path d="M0 0 C0.66 0.33 1.32 0.66 2 1 C2 1.66 2 2.32 2 3 C0.98679688 3.47179687 0.98679688 3.47179687 -0.046875 3.953125 C-4.7776856 6.22282026 -8.33871077 8.20310747 -12 12 C-14.625 12.6875 -14.625 12.6875 -17 13 C-17.99 13.495 -17.99 13.495 -19 14 C-17.51999516 9.24439621 -13.5695001 7.62108557 -9.5 5.3125 C-8.81035156 4.90966797 -8.12070313 4.50683594 -7.41015625 4.09179688 C-4.96752388 2.67049909 -2.5283213 1.26416065 0 0 Z " fill="#F6D642" transform="translate(251,186)"/>
<path d="M0 0 C1.78915445 2.68373167 2.39381054 4.00441407 3.0703125 7.01953125 C3.24433594 7.79490234 3.41835938 8.57027344 3.59765625 9.36914062 C3.77167969 10.17544922 3.94570313 10.98175781 4.125 11.8125 C4.30675781 12.60720703 4.48851562 13.40191406 4.67578125 14.22070312 C5.63056712 18.56031257 6.21609067 22.5269231 6 27 C5.34 27 4.68 27 4 27 C3.87882813 26.17757813 3.75765625 25.35515625 3.6328125 24.5078125 C2.81773417 19.07813684 1.98636455 13.65152013 1 8.25 C0.855625 7.45078125 0.71125 6.6515625 0.5625 5.828125 C0.376875 5.22484375 0.19125 4.6215625 0 4 C-0.66 3.67 -1.32 3.34 -2 3 C-1.34 2.01 -0.68 1.02 0 0 Z " fill="#F0DC6D" transform="translate(851,259)"/>
<path d="M0 0 C0.33 0.99 0.66 1.98 1 3 C-5.93 3 -12.86 3 -20 3 C-20 2.34 -20 1.68 -20 1 C-13.34362157 -0.23839599 -6.7528064 -0.09139136 0 0 Z " fill="#AE7F00" transform="translate(332,841)"/>
<path d="M0 0 C-1 3 -1 3 -3 4 C-6.88286707 10.43711384 -9.70962919 16.45035883 -10 24 C-10.66 23.67 -11.32 23.34 -12 23 C-11.59307763 14.59027109 -9.25313486 7.90376183 -3.8125 1.375 C-2 0 -2 0 0 0 Z " fill="#EECD00" transform="translate(558,399)"/>
<path d="M0 0 C1.21730178 3.65190534 0.65121324 4.50712062 -0.75 8 C-2.89646896 13.5823099 -4.52149057 19.20917138 -6 25 C-6.33 25 -6.66 25 -7 25 C-6.97121893 15.1424825 -5.50019517 8.24188268 0 0 Z " fill="#F6D501" transform="translate(477,372)"/>
<path d="M0 0 C0.99 0.33 1.98 0.66 3 1 C2.01 6.28 1.02 11.56 0 17 C-0.99 17.33 -1.98 17.66 -3 18 C-2.51679152 11.7945858 -1.66681876 6.00054754 0 0 Z " fill="#BC8A04" transform="translate(187,264)"/>
<path d="M0 0 C0 4.68312976 -1.34289787 7.96065749 -3.4375 12.125 C-3.86933594 12.99382812 -4.30117187 13.86265625 -4.74609375 14.7578125 C-6 17 -6 17 -8 19 C-9.41576622 14.75270133 -7.53926891 12.18599056 -5.6875 8.375 C-5.20506836 7.33472656 -5.20506836 7.33472656 -4.71289062 6.2734375 C-2.26884809 1.13442405 -2.26884809 1.13442405 0 0 Z " fill="#D9A60F" transform="translate(199,238)"/>
<path d="M0 0 C2 2 2 2 2.1953125 4.05859375 C2.17210937 4.84363281 2.14890625 5.62867188 2.125 6.4375 C2.10695313 7.21996094 2.08890625 8.00242187 2.0703125 8.80859375 C2.04710937 9.53175781 2.02390625 10.25492187 2 11 C2 11.99 2 12.98 2 14 C1 16.1875 1 16.1875 0 18 C-0.33 18 -0.66 18 -1 18 C-1.11269443 11.8894576 -0.89604368 6.04829486 0 0 Z " fill="#F6D100" transform="translate(612,477)"/>
<path d="M0 0 C0 2.97 0 5.94 0 9 C-0.99 9.495 -0.99 9.495 -2 10 C-2.72159424 11.64363134 -3.39351421 13.31050386 -4 15 C-4.33 15 -4.66 15 -5 15 C-5.25 8.375 -5.25 8.375 -3 5 C-3 3.68 -3 2.36 -3 1 C-1 0 -1 0 0 0 Z " fill="#FBD657" transform="translate(853,745)"/>
<path d="M0 0 C0.99 0 1.98 0 3 0 C3 0.66 3 1.32 3 2 C2.01 2 1.02 2 0 2 C-0.18175781 2.63808594 -0.36351562 3.27617187 -0.55078125 3.93359375 C-0.80214844 4.75988281 -1.05351562 5.58617187 -1.3125 6.4375 C-1.55613281 7.26121094 -1.79976562 8.08492187 -2.05078125 8.93359375 C-2.36402344 9.61550781 -2.67726562 10.29742187 -3 11 C-3.99 11.33 -4.98 11.66 -6 12 C-6.33 12.66 -6.66 13.32 -7 14 C-7.33 13.01 -7.66 12.02 -8 11 C-6.453125 8.30078125 -6.453125 8.30078125 -4.25 5.3125 C-3.53328125 4.31863281 -2.8165625 3.32476562 -2.078125 2.30078125 C-1.39234375 1.54152344 -0.7065625 0.78226563 0 0 Z " fill="#E7B81F" transform="translate(208,222)"/>
<path d="M0 0 C0.66 0 1.32 0 2 0 C2.33 0.99 2.66 1.98 3 3 C1.5484451 4.67257355 0.08855591 6.33791758 -1.375 8 C-2.18710937 8.928125 -2.99921875 9.85625 -3.8359375 10.8125 C-4.55007813 11.534375 -5.26421875 12.25625 -6 13 C-6.66 13 -7.32 13 -8 13 C-8 10 -8 10 -6.125 7.8125 C-4 6 -4 6 -2 6 C-2 5.34 -2 4.68 -2 4 C-1.34 4 -0.68 4 0 4 C0 2.68 0 1.36 0 0 Z " fill="#F9DC42" transform="translate(830,792)"/>
<path d="M0 0 C0.33 0 0.66 0 1 0 C1.16789217 3.27077164 1.33410238 6.54162664 1.5 9.8125 C1.54769531 10.74126953 1.59539062 11.67003906 1.64453125 12.62695312 C1.68964844 13.51962891 1.73476562 14.41230469 1.78125 15.33203125 C1.82314453 16.15421143 1.86503906 16.9763916 1.90820312 17.82348633 C1.98092498 19.54772929 2 21.27422415 2 23 C1.34 22.67 0.68 22.34 0 22 C-1.36310062 14.5649057 -0.75206793 7.4859685 0 0 Z " fill="#8A6500" transform="translate(185,720)"/>
<path d="M0 0 C0.66 0 1.32 0 2 0 C1 6 0 12 -1 18 C-1.33 18 -1.66 18 -2 18 C-2.23268915 11.71739294 -1.40454548 6.11980533 0 0 Z " fill="#FBDC00" transform="translate(609,505)"/>
<path d="M0 0 C0.99 0 1.98 0 3 0 C2.34 2.31 1.68 4.62 1 7 C-0.98 7 -2.96 7 -5 7 C-4.24172908 5.82512964 -3.46792245 4.66027408 -2.6875 3.5 C-2.25824219 2.8503125 -1.82898438 2.200625 -1.38671875 1.53125 C-0.70029297 0.77328125 -0.70029297 0.77328125 0 0 Z " fill="#E8BB25" transform="translate(214,214)"/>
<path d="M0 0 C0.66 0 1.32 0 2 0 C0.74194623 4.50802601 -0.90407165 7.4912812 -4 11 C-4.33 10.01 -4.66 9.02 -5 8 C-4.34 8 -3.68 8 -3 8 C-3 6.68 -3 5.36 -3 4 C-2.34 4 -1.68 4 -1 4 C-0.67 2.68 -0.34 1.36 0 0 Z " fill="#EBD34A" transform="translate(843,773)"/>
<path d="M0 0 C0.66 0.99 1.32 1.98 2 3 C-2.95 5.97 -2.95 5.97 -8 9 C-8.33 8.01 -8.66 7.02 -9 6 C-8.43410156 5.73445312 -7.86820313 5.46890625 -7.28515625 5.1953125 C-6.55167969 4.84210937 -5.81820312 4.48890625 -5.0625 4.125 C-4.33160156 3.77695312 -3.60070312 3.42890625 -2.84765625 3.0703125 C-0.83667541 2.1315023 -0.83667541 2.1315023 0 0 Z " fill="#F6D929" transform="translate(802,820)"/>
<path d="M0 0 C0.66 0.33 1.32 0.66 2 1 C-0.86690826 4.29163541 -2.68175817 5.43181029 -7 6 C-7.99 6.495 -7.99 6.495 -9 7 C-8.00310405 4.50776013 -7.38477686 3.23583098 -5.0625 1.8125 C-3.39484226 1.15554392 -1.70041355 0.56680452 0 0 Z " fill="#F2CB3B" transform="translate(241,193)"/>
<path d="M0 0 C0.66 0 1.32 0 2 0 C0.50902342 3.7952131 -1.75700849 5.61042731 -5 8 C-5.66 7.34 -6.32 6.68 -7 6 C-6.34 6 -5.68 6 -5 6 C-4.67 5.01 -4.34 4.02 -4 3 C-3.01 3 -2.02 3 -1 3 C-0.67 2.01 -0.34 1.02 0 0 Z " fill="#E3C936" transform="translate(821,805)"/>
<path d="M0 0 C4.455 0.99 4.455 0.99 9 2 C8.34 2.66 7.68 3.32 7 4 C3.375 3.625 3.375 3.625 0 3 C0 2.01 0 1.02 0 0 Z " fill="#F0DB7F" transform="translate(761,176)"/>
<path d="M0 0 C2.64 0 5.28 0 8 0 C7.67 0.66 7.34 1.32 7 2 C4.67843403 2.40729228 2.3431213 2.74438677 0 3 C0 2.01 0 1.02 0 0 Z " fill="#F7CD00" transform="translate(569,393)"/>
<path d="M0 0 C0.99 0.33 1.98 0.66 3 1 C1.25 6.75 1.25 6.75 -1 9 C-0.67 6.03 -0.34 3.06 0 0 Z " fill="#D19D0A" transform="translate(187,264)"/>
<path d="M0 0 C0.66 0.66 1.32 1.32 2 2 C1.01 4.97 0.02 7.94 -1 11 C-1.33 11 -1.66 11 -2 11 C-2.24042276 6.91281305 -1.42258812 3.82320557 0 0 Z " fill="#FADD5E" transform="translate(855,731)"/>
<path d="M0 0 C0.99 0.495 0.99 0.495 2 1 C2.40729228 3.32156597 2.74438677 5.6568787 3 8 C2.01 8 1.02 8 0 8 C0 5.36 0 2.72 0 0 Z " fill="#FBEA78" transform="translate(848,252)"/>
</svg>
