<?xml version="1.0" encoding="UTF-8"?>
<svg version="1.1" xmlns="http://www.w3.org/2000/svg" width="1024" height="1024">
<path d="M0 0 C337.92 0 675.84 0 1024 0 C1024 337.92 1024 675.84 1024 1024 C686.08 1024 348.16 1024 0 1024 C0 686.08 0 348.16 0 0 Z " fill="#000000" transform="translate(0,0)"/>
<path d="M0 0 C5.44312338 0.01121054 10.88620558 -0.00086571 16.32932627 -0.00984204 C26.96343373 -0.02370765 37.59742169 -0.01626834 48.23152336 -0.00116646 C60.63598008 0.01577303 73.04040769 0.01247348 85.44487242 0.00873946 C108.25494352 0.00269642 131.06495515 0.01841543 153.87501019 0.0439271 C174.65626511 0.06704661 195.43745042 0.07242522 216.21871531 0.06219471 C239.62252889 0.05075646 263.02630769 0.04887708 286.43012089 0.0632928 C288.9288338 0.06481851 291.42754672 0.06633887 293.92625964 0.06785381 C295.15541778 0.06861162 296.38457592 0.06936944 297.65098127 0.07015022 C306.28252955 0.07487839 314.91406205 0.07305211 323.54561007 0.06878841 C334.07265258 0.06384539 344.59962332 0.06991903 355.12664946 0.08968271 C360.49007131 0.09950648 365.85338424 0.10471327 371.21681178 0.09679019 C376.13851874 0.08966873 381.06000715 0.09668702 385.98168556 0.11439382 C387.74985622 0.11839676 389.51804722 0.11750959 391.28620996 0.11087496 C428.51224766 -0.01671381 460.30502944 12.3122139 486.84981883 38.50823963 C500.16527892 51.80013253 509.51707175 69.44886 515.22481883 87.25823963 C515.46353709 88.00162586 515.70225535 88.74501209 515.9482075 89.51092517 C519.71268958 101.95618041 520.14034463 114.07836733 520.11051524 126.95860279 C520.11353972 128.81713019 520.11743069 130.67565636 520.1221078 132.53418034 C520.13235839 137.61637913 520.13021348 142.69850714 520.12592721 147.78071165 C520.1234546 153.27168242 520.13248084 158.76263639 520.1399647 164.25360096 C520.15269938 175.00200551 520.15450688 185.75038506 520.15216444 196.49879589 C520.15037955 205.23883233 520.15213458 213.97886121 520.15638888 222.71889675 C520.15698407 223.9640505 520.15757926 225.20920425 520.15819248 226.49208993 C520.15940427 229.02186109 520.1606184 231.55163225 520.16183486 234.08140341 C520.1696193 251.06170385 520.17354321 268.04200159 520.16951811 285.02230346 C520.16936174 285.68575253 520.16920536 286.34920161 520.16904425 287.03275519 C520.16823852 290.39501365 520.16739275 293.75727208 520.16653094 297.11953052 C520.16635986 297.78722788 520.16618877 298.45492523 520.1660125 299.14285584 C520.16566584 300.49310133 520.16531731 301.84334681 520.16496691 303.19359229 C520.15961193 324.19473158 520.16753581 345.19582887 520.18600047 366.19696033 C520.20674535 389.81894853 520.21740726 413.44091735 520.21342498 437.06291646 C520.21151493 449.56004289 520.21398129 462.05713107 520.22813952 474.5542506 C520.24007258 485.19467085 520.2414367 495.83502929 520.22934935 506.47545042 C520.22347389 511.89931872 520.22232426 517.32307409 520.23435175 522.74693477 C520.24525529 527.7219712 520.24205435 532.696801 520.22809007 537.67182795 C520.22545537 539.46180017 520.22777061 541.25178882 520.23582593 543.04174485 C520.37991289 577.47717847 508.88921103 609.04160694 485.12325633 634.30902088 C480.9387616 638.35690838 476.47562038 641.97941387 471.84981883 645.50823963 C471.07122508 646.114099 470.29263133 646.71995838 469.49044383 647.34417713 C462.15637693 652.78319989 454.09915971 656.67631481 445.84981883 660.50823963 C444.83532664 660.99550525 443.82083445 661.48277088 442.77560008 661.98480213 C423.98856701 670.16180183 402.47030714 670.10037052 382.36275828 670.05413806 C379.79341673 670.06289779 377.22408059 670.07338586 374.65475237 670.08543861 C369.14581185 670.10855969 363.63700205 670.1174749 358.12801516 670.11630428 C350.04168741 670.1146189 341.95552817 670.13555815 333.8692461 670.1610686 C319.68199593 670.20513501 305.49477966 670.22755558 291.30747048 670.24024615 C279.06189946 670.25130422 266.81637301 670.27049406 254.57082713 670.29769886 C253.35743007 670.30038302 253.35743007 670.30038302 252.11951995 670.30312141 C248.85083917 670.3103726 245.58215851 670.31767406 242.31347799 670.32504461 C212.6310705 670.39194462 182.94867261 670.43819106 153.26620924 670.47083449 C130.41295782 670.49603078 107.55980073 670.53786916 84.70660061 670.5937233 C83.68385514 670.59621956 82.66110968 670.59871582 81.60737193 670.60128772 C80.10035355 670.60497216 80.10035355 670.60497216 78.56289035 670.60873103 C64.04249851 670.64366217 49.52208637 670.66537788 35.00166661 670.68474317 C29.3790712 670.69253224 23.75649223 670.70425264 18.13390696 670.71734607 C11.46321995 670.7326379 4.79257387 670.74044866 -1.87813121 670.73829073 C-5.14028882 670.73733339 -8.40234681 670.74020211 -11.66449201 670.75005901 C-51.60534877 670.86412943 -87.43330081 664.85022685 -116.88064992 635.80902088 C-117.97199077 634.7102454 -119.06199721 633.61014164 -120.15018117 632.50823963 C-120.93006399 631.73866931 -121.7099468 630.969099 -122.51346242 630.17620838 C-134.90215651 617.19166528 -142.9499453 599.82467909 -148.46268117 582.94573963 C-148.8266802 581.84975452 -148.8266802 581.84975452 -149.19803274 580.7316283 C-153.23827477 567.69799037 -153.44262762 554.51365886 -153.41087759 541.0139159 C-153.41390358 539.17499906 -153.41779529 537.33608348 -153.42247015 535.49717009 C-153.43270123 530.47842816 -153.43058087 525.45975805 -153.42628956 520.44101036 C-153.4238134 515.01481416 -153.43284754 509.58863487 -153.44032705 504.16244495 C-153.45305157 493.5449911 -153.45487053 482.92756257 -153.45252679 472.31010237 C-153.45074088 463.67595758 -153.4524991 455.04182045 -153.45675123 446.40767658 C-153.45734642 445.17695934 -153.45794161 443.94624209 -153.45855483 442.67823039 C-153.45976663 440.17769303 -153.46098077 437.67715567 -153.46219721 435.17661831 C-153.47275461 412.41371792 -153.47130949 389.65083127 -153.46532926 366.88793 C-153.45963003 344.80989396 -153.47030408 322.73190803 -153.48991058 300.65388086 C-153.50930687 278.64296489 -153.5175418 256.63207042 -153.51378733 234.62114584 C-153.51187794 222.27436485 -153.51433722 209.92762258 -153.52850187 197.58084857 C-153.54043949 187.06932942 -153.5417939 176.55787283 -153.5297117 166.04635277 C-153.52383964 160.68917996 -153.52267713 155.33212146 -153.5347141 149.97495639 C-153.54562912 145.05977697 -153.54240331 140.14480652 -153.52845242 135.22963664 C-153.52582086 133.46258647 -153.52812285 131.69551962 -153.53618828 129.9284859 C-153.67634375 96.89898486 -144.24559901 67.17344617 -122.77518117 41.75823963 C-122.250855 41.1366698 -121.72652883 40.51509998 -121.18631399 39.87469471 C-119.88754715 38.37746985 -118.5239495 36.93695869 -117.15018117 35.50823963 C-116.49018117 35.50823963 -115.83018117 35.50823963 -115.15018117 35.50823963 C-115.15018117 34.84823963 -115.15018117 34.18823963 -115.15018117 33.50823963 C-100.02924931 20.05199751 -81.77073668 9.63399864 -62.15018117 4.50823963 C-61.49854006 4.3326492 -60.84689894 4.15705877 -60.17551112 3.97614741 C-40.5213088 -1.06516848 -20.12115258 -0.05777979 0 0 Z " fill="#F5BF0F" transform="translate(337.15018117427826,172.49176037311554)"/>
<path d="M0 0 C3.65847885 0.0025825 7.31695556 0.00017 10.97543454 -0.00138617 C17.11321081 -0.00319127 23.25097494 -0.00084584 29.38874936 0.00395441 C36.42049261 0.00939135 43.45220682 0.00763172 50.48394936 0.00212801 C56.58912721 -0.00245385 62.69429647 -0.00302912 68.79947549 -0.00043333 C72.41603979 0.0011022 76.03259059 0.00140025 79.64915395 -0.00196981 C92.67537158 -0.01238567 105.69380111 -0.00310399 118.71003842 0.56450129 C119.56597057 0.60112816 120.42190272 0.63775503 121.30377221 0.67549181 C148.78278751 2.06081825 173.3880132 12.34395474 192.58479428 32.3218255 C213.13469801 56.08265168 219.69225106 85.73202495 219.59358335 116.49467707 C219.59630382 117.95225431 219.59987059 119.40983017 219.60420346 120.86740351 C219.61320766 124.77473433 219.6098326 128.6819578 219.60344529 132.58929014 C219.59831854 136.71585641 219.60309537 140.84241457 219.60621762 144.96898127 C219.60983971 151.89829867 219.60510634 158.82757322 219.59553647 165.7568841 C219.58467259 173.71392062 219.58816961 181.67085444 219.59918928 189.62788844 C219.60833331 196.51170267 219.60951252 203.39548639 219.60431194 210.27930474 C219.60122875 214.36761494 219.60067985 218.45587728 219.60738492 222.54418421 C219.66829157 265.52871603 219.66829157 265.52871603 215.20979428 282.3218255 C214.99734067 283.13731867 214.78488706 283.95281183 214.56599545 284.79301691 C207.58458263 310.0397255 190.90090041 331.90490459 168.23762631 345.09575129 C152.83244432 353.5039684 135.20751446 356.99299274 117.82966733 357.68852472 C116.78737564 357.73063515 115.74508395 357.77274557 114.67120767 357.81613207 C101.62887913 358.29373441 88.5835495 358.28095868 75.53440428 358.26865101 C71.90884088 358.26606055 68.28327958 358.26848289 64.65771604 358.27003717 C58.58075107 358.27183916 52.50379839 358.26950432 46.4268353 358.2646966 C39.46374198 358.25925043 32.50067794 358.26102727 25.53758532 358.266523 C19.48671459 358.27110216 13.43585253 358.2716817 7.38498062 358.26908433 C3.8025865 358.26754861 0.22020602 358.26725152 -3.36218715 358.27062082 C-16.08796703 358.28089926 -28.80695717 358.28696595 -41.52189517 357.70024347 C-42.73834987 357.64451764 -42.73834987 357.64451764 -43.97937942 357.58766603 C-71.41949991 356.11955095 -95.23989004 345.35003231 -114.26286197 325.41166925 C-120.11525113 318.59559336 -124.56671139 311.08292057 -128.66520572 303.1343255 C-129.21176822 302.1030755 -129.75833072 301.0718255 -130.32145572 300.0093255 C-133.90536152 292.54895015 -135.80044275 285.02328451 -137.47770572 276.9468255 C-137.78841006 275.4795904 -137.78841006 275.4795904 -138.10539126 273.98271418 C-141.74078852 255.05505588 -140.82895372 235.34918211 -140.83246279 216.16491508 C-140.83318279 213.94460895 -140.83533459 211.72430866 -140.83796 209.504004 C-140.84715872 201.70743412 -140.85130181 193.91088111 -140.85050845 186.11430597 C-140.84990908 178.92813646 -140.86044755 171.74204235 -140.87625211 164.55589187 C-140.88946741 158.31737422 -140.89468658 152.0788808 -140.89405304 145.84034932 C-140.89380213 142.14483044 -140.89642144 138.4493788 -140.90723109 134.7538743 C-141.01449351 95.2866456 -139.91408593 58.82340625 -110.66520572 29.1343255 C-80.27981407 -1.30187784 -39.91898146 -0.03716359 0 0 Z " fill="#FEC500" transform="translate(476.6652057170868,329.865674495697)"/>
<path d="M0 0 C3.65847885 0.0025825 7.31695556 0.00017 10.97543454 -0.00138617 C17.11321081 -0.00319127 23.25097494 -0.00084584 29.38874936 0.00395441 C36.42049261 0.00939135 43.45220682 0.00763172 50.48394936 0.00212801 C56.58912721 -0.00245385 62.69429647 -0.00302912 68.79947549 -0.00043333 C72.41603979 0.0011022 76.03259059 0.00140025 79.64915395 -0.00196981 C92.67537158 -0.01238567 105.69380111 -0.00310399 118.71003842 0.56450129 C119.56597057 0.60112816 120.42190272 0.63775503 121.30377221 0.67549181 C148.78278751 2.06081825 173.3880132 12.34395474 192.58479428 32.3218255 C213.13469801 56.08265168 219.69225106 85.73202495 219.59358335 116.49467707 C219.59630382 117.95225431 219.59987059 119.40983017 219.60420346 120.86740351 C219.61320766 124.77473433 219.6098326 128.6819578 219.60344529 132.58929014 C219.59831854 136.71585641 219.60309537 140.84241457 219.60621762 144.96898127 C219.60983971 151.89829867 219.60510634 158.82757322 219.59553647 165.7568841 C219.58467259 173.71392062 219.58816961 181.67085444 219.59918928 189.62788844 C219.60833331 196.51170267 219.60951252 203.39548639 219.60431194 210.27930474 C219.60122875 214.36761494 219.60067985 218.45587728 219.60738492 222.54418421 C219.66829157 265.52871603 219.66829157 265.52871603 215.20979428 282.3218255 C214.99734067 283.13731867 214.78488706 283.95281183 214.56599545 284.79301691 C207.58458263 310.0397255 190.90090041 331.90490459 168.23762631 345.09575129 C152.83244432 353.5039684 135.20751446 356.99299274 117.82966733 357.68852472 C116.78737564 357.73063515 115.74508395 357.77274557 114.67120767 357.81613207 C101.62887913 358.29373441 88.5835495 358.28095868 75.53440428 358.26865101 C71.90884088 358.26606055 68.28327958 358.26848289 64.65771604 358.27003717 C58.58075107 358.27183916 52.50379839 358.26950432 46.4268353 358.2646966 C39.46374198 358.25925043 32.50067794 358.26102727 25.53758532 358.266523 C19.48671459 358.27110216 13.43585253 358.2716817 7.38498062 358.26908433 C3.8025865 358.26754861 0.22020602 358.26725152 -3.36218715 358.27062082 C-16.08796703 358.28089926 -28.80695717 358.28696595 -41.52189517 357.70024347 C-42.73834987 357.64451764 -42.73834987 357.64451764 -43.97937942 357.58766603 C-71.41949991 356.11955095 -95.23989004 345.35003231 -114.26286197 325.41166925 C-120.11525113 318.59559336 -124.56671139 311.08292057 -128.66520572 303.1343255 C-129.21176822 302.1030755 -129.75833072 301.0718255 -130.32145572 300.0093255 C-133.90536152 292.54895015 -135.80044275 285.02328451 -137.47770572 276.9468255 C-137.78841006 275.4795904 -137.78841006 275.4795904 -138.10539126 273.98271418 C-141.74078852 255.05505588 -140.82895372 235.34918211 -140.83246279 216.16491508 C-140.83318279 213.94460895 -140.83533459 211.72430866 -140.83796 209.504004 C-140.84715872 201.70743412 -140.85130181 193.91088111 -140.85050845 186.11430597 C-140.84990908 178.92813646 -140.86044755 171.74204235 -140.87625211 164.55589187 C-140.88946741 158.31737422 -140.89468658 152.0788808 -140.89405304 145.84034932 C-140.89380213 142.14483044 -140.89642144 138.4493788 -140.90723109 134.7538743 C-141.01449351 95.2866456 -139.91408593 58.82340625 -110.66520572 29.1343255 C-80.27981407 -1.30187784 -39.91898146 -0.03716359 0 0 Z M-34.91496158 35.54106379 C-35.75946903 35.57454857 -36.60397649 35.60803335 -37.47407508 35.64253283 C-58.51427162 36.67504154 -76.10561676 42.46976775 -90.66520572 58.1343255 C-105.3455663 75.70218348 -106.83198062 97.4577168 -106.79460025 119.45830011 C-106.79635257 120.74451258 -106.79810489 122.03072504 -106.79991031 123.35591364 C-106.80443191 126.8544372 -106.80271587 130.35293095 -106.79953122 133.85145497 C-106.79697529 137.54295963 -106.79935453 141.23446197 -106.80091739 144.92596674 C-106.80273177 151.13189885 -106.80035414 157.33781904 -106.79557681 163.54374933 C-106.79015725 170.6650735 -106.79188297 177.78636892 -106.79740322 184.90769237 C-106.80198126 191.06529082 -106.80256157 197.22288074 -106.79996455 203.38048035 C-106.79842452 207.03848922 -106.7981437 210.69648472 -106.80150104 214.35449266 C-108.22092521 262.97296425 -108.22092521 262.97296425 -86.30192447 304.626513 C-72.31381794 317.93075654 -54.32791591 322.90091928 -35.35783267 323.44633722 C-34.66104341 323.46682753 -33.96425414 323.48731783 -33.24635005 323.50842905 C-30.94466999 323.57381389 -28.64289045 323.63206557 -26.34098697 323.689013 C-25.53579434 323.70994894 -24.73060172 323.73088488 -23.90100932 323.75245523 C-5.66230286 324.21975175 12.57366664 324.28823831 30.8174603 324.2646966 C35.24976827 324.25901324 39.68201603 324.26240235 44.11432195 324.26811838 C61.91063209 324.28775169 79.70389985 324.1938324 97.49648213 323.80738688 C99.19740753 323.77083451 100.89838958 323.73680938 102.59942174 323.70561838 C126.14750938 323.2585324 148.66953402 320.19135076 166.33479428 303.1343255 C169.32805077 299.64728351 171.89502846 296.02566825 174.33479428 292.1343255 C174.8053021 291.39053644 175.27580991 290.64674738 175.76057553 289.88041925 C178.74331078 284.57059645 180.45223524 278.90685428 182.08479428 273.0718255 C182.40129941 271.98514582 182.40129941 271.98514582 182.72419858 270.876513 C187.06995493 254.24244848 185.48535682 235.71454439 185.46911979 218.68241191 C185.46654603 215.12534134 185.46894768 211.56827304 185.47050595 208.01120234 C185.47231444 202.03783431 185.46995752 196.06447874 185.46516538 190.09111261 C185.45973786 183.2480409 185.4614798 176.40499907 185.46699178 169.56192809 C185.47157592 163.62668079 185.47214753 157.69144232 185.46955311 151.75619382 C185.46801751 148.23793866 185.46771952 144.71969738 185.4710896 141.2014432 C185.48159178 128.38497933 185.46131001 115.57692768 184.92414975 102.76982355 C184.89014129 101.90642013 184.85613282 101.0430167 184.8210938 100.15344954 C183.95526455 82.41634633 177.5163713 65.23348613 164.95979428 52.46635675 C142.19443784 32.2417767 110.32589701 34.97321492 81.88373947 35 C78.2932914 35.00256807 74.70284563 35.00017352 71.11239743 34.99861383 C65.07999829 34.99680329 59.04761147 34.99916728 53.0152142 35.00395441 C46.10288378 35.00937751 39.19058295 35.00764407 32.27825326 35.00212801 C26.28784506 34.997544 20.29744561 34.99697233 14.30703622 34.99956667 C10.75409872 35.00110297 7.20117496 35.00139833 3.64823842 34.99803019 C-9.21173399 34.98760829 -22.0644058 35.00013744 -34.91496158 35.54106379 Z " fill="#000000" transform="translate(476.6652057170868,329.865674495697)"/>
<path d="M0 0 C18.36064394 13.69017058 32.07518453 31.64995351 38 54 C38.17442627 54.59723877 38.34885254 55.19447754 38.52856445 55.80981445 C40.48190183 63.24473215 40.44290924 70.8017466 40.4375 78.4375 C40.4375705 79.14931427 40.43764099 79.86112854 40.43771362 80.59451294 C40.35329415 102.7588313 33.74315765 122.10100326 19 139 C18.4946875 139.64710938 17.989375 140.29421875 17.46875 140.9609375 C2.65364549 159.33457202 -20.76420559 169.03694805 -43.6953125 171.71484375 C-67.86328566 173.80025987 -91.67692804 166.80172921 -110.6875 151.625 C-112.47303681 150.1003869 -114.24458016 148.55919466 -116 147 C-116.77085937 146.32453125 -117.54171875 145.6490625 -118.3359375 144.953125 C-134.84728697 129.54253216 -145.25530331 106.16508782 -146.22265625 83.6875 C-146.94132895 56.69549055 -138.78945492 33.39307144 -120.5 13.24609375 C-106.03663232 -1.86896637 -89.17885675 -10.47799114 -69 -15 C-68.21367187 -15.19335938 -67.42734375 -15.38671875 -66.6171875 -15.5859375 C-43.73262633 -19.20648001 -18.99411999 -12.9445324 0 0 Z " fill="#010000" transform="translate(568,431)"/>
<path d="M0 0 C9.48657418 8.95954229 14.7613033 19.06381532 18.375 31.4375 C18.57609375 32.0665625 18.7771875 32.695625 18.984375 33.34375 C21.84446202 48.67381644 18.39926676 64.85618767 9.84765625 77.73828125 C0.04978232 91.08644361 -13.06896958 99.78959619 -29.3984375 103.0078125 C-46.15573401 105.23941373 -61.72522443 101.46061496 -75.3203125 91.296875 C-87.88607582 81.15907273 -95.67379886 67.50521718 -97.625 51.4375 C-98.57329988 34.7328328 -94.38271866 18.60958622 -83.6875 5.375 C-82.70052919 4.36170997 -81.67781153 3.38219886 -80.625 2.4375 C-80.00496094 1.87160156 -79.38492187 1.30570312 -78.74609375 0.72265625 C-55.60582392 -18.75267213 -23.50203779 -19.31395839 0 0 Z " fill="#FEC500" transform="translate(554.625,464.5625)"/>
<path d="M0 0 C1.84904414 -0.00346523 3.6980862 -0.00823555 5.54712403 -0.01418173 C10.57999585 -0.02660284 15.61269507 -0.02056222 20.64556718 -0.01122308 C26.09218351 -0.00439606 31.5387715 -0.01493188 36.98538208 -0.02316284 C47.63686427 -0.03646413 58.28828284 -0.03363838 68.93976746 -0.02492492 C77.60196172 -0.01813385 86.26413822 -0.0172378 94.92633438 -0.02049637 C96.16190715 -0.02095607 97.39747992 -0.02141577 98.6704943 -0.0218894 C101.18101533 -0.02284863 103.69153635 -0.02382127 106.20205738 -0.02480717 C129.04404847 -0.03310742 151.88600903 -0.02451719 174.72799436 -0.00877938 C195.5419989 0.00545222 216.35594834 0.0041848 237.16995239 -0.01016235 C260.59753102 -0.02625738 284.0250809 -0.03252332 307.45266449 -0.02332556 C309.95426376 -0.02236998 312.45586303 -0.02142687 314.95746231 -0.02049637 C316.18809539 -0.02003354 317.41872847 -0.01957072 318.68665346 -0.01909386 C327.33066955 -0.01651096 335.974666 -0.02085992 344.61867905 -0.02793503 C355.16413713 -0.0363772 365.70952828 -0.03401313 376.25497876 -0.0180928 C381.62849521 -0.01024603 387.00190035 -0.00705666 392.3754158 -0.01704025 C397.3065694 -0.0260629 402.23750984 -0.02093134 407.16864444 -0.0051076 C408.9403313 -0.00179148 410.71203665 -0.00338113 412.48371135 -0.01073496 C449.72054046 -0.15328529 481.52357805 12.17767504 508.07571411 38.38095093 C521.3911742 51.67284383 530.74296703 69.3215713 536.45071411 87.13095093 C536.68943237 87.87433716 536.92815063 88.61772339 537.17410278 89.38363647 C540.9248568 101.78350715 541.3616959 113.84729514 541.31622314 126.67996216 C541.31709647 128.52173079 541.31884978 130.36349917 541.32140148 132.20526624 C541.32585406 137.240485 541.31790017 142.27561798 541.30784535 147.31082582 C541.29918293 152.75033842 541.30213299 158.18984645 541.3036499 163.62936401 C541.30469699 173.04515472 541.29843882 182.46091764 541.28717422 191.87670135 C541.27089829 205.49022686 541.26570907 219.10373897 541.26319824 232.71727315 C541.25882443 254.8060197 541.24552382 276.89475146 541.22659302 298.98348999 C541.20821152 320.43661421 541.19405049 341.88973447 541.18557739 363.34286499 C541.18531434 364.0046475 541.18505129 364.66643001 541.18478026 365.34826654 C541.18188144 372.65391708 541.17909779 379.95956766 541.17636132 387.26521826 C541.15563858 442.30380603 541.12042158 497.34237777 541.07571411 552.38095093 C540.41571411 552.05095093 539.75571411 551.72095093 539.07571411 551.38095093 C538.41715708 470.88144257 537.95348105 390.3833818 537.95071411 309.88095093 C537.95059963 308.52730289 537.95059963 308.52730289 537.95048285 307.14630842 C537.94742556 268.28747817 537.99671247 229.42987736 538.33743286 190.57235718 C538.34343915 189.88605649 538.34944544 189.19975581 538.35563374 188.49265814 C538.47256155 175.22119815 538.60491813 161.94995546 538.76612759 148.67895603 C538.81896788 144.30777824 538.86863267 139.9365665 538.91828346 135.56535149 C538.95344675 132.63878462 538.99473077 129.71235115 539.03657532 126.78587341 C539.0571238 125.05462952 539.07742936 123.32338273 539.09744263 121.59213257 C539.1168607 120.4388081 539.1168607 120.4388081 539.13667107 119.26218414 C539.18308539 114.59011085 539.0323529 110.47359827 537.07571411 106.19345093 C536.13376219 103.54421114 535.88887054 101.65401831 535.70071411 98.88095093 C535.15962334 92.40718635 533.15818299 86.50356543 531.07571411 80.38095093 C530.80372192 79.54434937 530.53172974 78.7077478 530.25149536 77.84579468 C528.97933794 74.13701827 528.42845716 72.61611296 525.07571411 70.38095093 C524.37518951 67.71788792 524.29826594 65.14059356 524.07571411 62.38095093 C523.41571411 62.38095093 522.75571411 62.38095093 522.07571411 62.38095093 C522.07571411 61.39095093 522.07571411 60.40095093 522.07571411 59.38095093 C521.41571411 59.38095093 520.75571411 59.38095093 520.07571411 59.38095093 C519.74571411 57.73095093 519.41571411 56.08095093 519.07571411 54.38095093 C518.08571411 54.05095093 517.09571411 53.72095093 516.07571411 53.38095093 C514.16692826 51.77757082 513.14224913 50.52233784 512.07571411 48.25595093 C511.16368434 46.02790743 511.16368434 46.02790743 508.07571411 45.38095093 C507.82821411 44.45282593 507.58071411 43.52470093 507.32571411 42.56845093 C505.96183692 39.09056409 505.62991674 38.84921439 502.51321411 37.25595093 C499.07571411 35.38095093 499.07571411 35.38095093 498.13821411 33.13095093 C498.10727661 32.26470093 498.10727661 32.26470093 498.07571411 31.38095093 C497.41571411 31.38095093 496.75571411 31.38095093 496.07571411 31.38095093 C495.07571411 30.38095093 494.07571411 29.38095093 493.07571411 28.38095093 C492.08571411 28.05095093 491.09571411 27.72095093 490.07571411 27.38095093 C490.07571411 26.72095093 490.07571411 26.06095093 490.07571411 25.38095093 C489.41571411 25.38095093 488.75571411 25.38095093 488.07571411 25.38095093 C488.07571411 24.72095093 488.07571411 24.06095093 488.07571411 23.38095093 C486.75571411 23.71095093 485.43571411 24.04095093 484.07571411 24.38095093 C484.07571411 23.06095093 484.07571411 21.74095093 484.07571411 20.38095093 C480.16508187 18.91047756 480.16508187 18.91047756 476.07571411 18.38095093 C475.41571411 17.72095093 474.75571411 17.06095093 474.07571411 16.38095093 C472.4955344 15.48318511 470.88728465 14.63413853 469.26321411 13.81845093 C468.4111438 13.38403687 467.55907349 12.9496228 466.68118286 12.50204468 C464.13036992 11.4044685 461.80989033 10.81783007 459.07571411 10.38095093 C459.07571411 9.72095093 459.07571411 9.06095093 459.07571411 8.38095093 C458.18883911 8.58720093 457.30196411 8.79345093 456.38821411 9.00595093 C452.63737033 9.43057475 451.45918382 8.91889171 448.07571411 7.38095093 C441.74734899 5.18607782 435.73199303 3.95007515 429.07571411 3.38095093 C425.34417458 2.89156869 421.70277084 2.39652681 418.07571411 1.38095093 C418.07571411 2.04095093 418.07571411 2.70095093 418.07571411 3.38095093 C417.41571411 3.38095093 416.75571411 3.38095093 416.07571411 3.38095093 C416.07571411 2.72095093 416.07571411 2.06095093 416.07571411 1.38095093 C414.59071411 1.87595093 414.59071411 1.87595093 413.07571411 2.38095093 C410.70433169 2.4533485 408.33091844 2.46473594 405.95852661 2.44345093 C405.26435638 2.43966431 404.57018616 2.43587769 403.85498047 2.43197632 C400.88991043 2.41565888 397.92497908 2.38757963 394.95999146 2.36044312 C392.79284305 2.34229999 390.62571742 2.33024021 388.45852661 2.31845093 C387.16317993 2.30684937 385.86783325 2.2952478 384.53323364 2.28329468 C381.550091 2.36755234 378.97827265 2.77056088 376.07571411 3.38095093 C374.40345682 3.07690415 372.73491307 2.74966181 371.07571411 2.38095093 C370.74571411 2.71095093 370.41571411 3.04095093 370.07571411 3.38095093 C368.07613047 3.42175876 366.07526157 3.42349449 364.07571411 3.38095093 C364.07571411 2.72095093 364.07571411 2.06095093 364.07571411 1.38095093 C359.73387209 1.56559459 359.73387209 1.56559459 356.07571411 3.38095093 C353.82755346 3.48099996 351.57609504 3.51061977 349.32571411 3.50595093 C347.47719849 3.50981812 347.47719849 3.50981812 345.59133911 3.51376343 C342.59872561 3.40070914 339.98838925 2.9995722 337.07571411 2.38095093 C334.51634852 2.70947175 334.51634852 2.70947175 332.07571411 3.38095093 C330.93102661 3.65938843 330.93102661 3.65938843 329.76321411 3.94345093 C329.20633911 4.08782593 328.64946411 4.23220093 328.07571411 4.38095093 C327.74571411 3.39095093 327.41571411 2.40095093 327.07571411 1.38095093 C326.53946411 1.71095093 326.00321411 2.04095093 325.45071411 2.38095093 C322.50439496 3.62150636 320.25149355 3.51327507 317.07571411 3.38095093 C315.75571411 3.38095093 314.43571411 3.38095093 313.07571411 3.38095093 C310.65551455 3.07431931 308.23892231 2.73846325 305.82571411 2.38095093 C304.56243286 2.19532593 303.29915161 2.00970093 301.99758911 1.81845093 C300.55126099 1.60188843 300.55126099 1.60188843 299.07571411 1.38095093 C298.74571411 2.04095093 298.41571411 2.70095093 298.07571411 3.38095093 C291.07571411 3.38095093 284.07571411 3.38095093 277.07571411 3.38095093 C275.83821411 3.40157593 274.60071411 3.42220093 273.32571411 3.44345093 C270.10517294 3.44345093 267.21353749 3.16540677 264.07571411 2.38095093 C263.31258911 2.19532593 262.54946411 2.00970093 261.76321411 1.81845093 C260.92790161 1.60188843 260.92790161 1.60188843 260.07571411 1.38095093 C260.07571411 2.04095093 260.07571411 2.70095093 260.07571411 3.38095093 C252.81571411 3.38095093 245.55571411 3.38095093 238.07571411 3.38095093 C238.07571411 2.72095093 238.07571411 2.06095093 238.07571411 1.38095093 C237.41571411 1.38095093 236.75571411 1.38095093 236.07571411 1.38095093 C236.07571411 2.04095093 236.07571411 2.70095093 236.07571411 3.38095093 C227.82571411 3.38095093 219.57571411 3.38095093 211.07571411 3.38095093 C211.07571411 2.72095093 211.07571411 2.06095093 211.07571411 1.38095093 C206.73387209 1.56559459 206.73387209 1.56559459 203.07571411 3.38095093 C201.24369518 3.45342003 199.40904251 3.46471376 197.57571411 3.44345093 C196.57540161 3.43442749 195.57508911 3.42540405 194.54446411 3.41610718 C193.72977661 3.40450562 192.91508911 3.39290405 192.07571411 3.38095093 C191.74571411 3.38095093 191.41571411 3.38095093 191.07571411 3.38095093 C190.42602661 3.36934937 189.77633911 3.3577478 189.10696411 3.34579468 C184.87003081 3.30002534 180.77610561 3.3583964 176.57571411 3.94345093 C171.6536579 4.57741881 166.97197298 4.04537019 162.07571411 3.38095093 C162.07571411 2.72095093 162.07571411 2.06095093 162.07571411 1.38095093 C156.52518125 2.12454766 156.52518125 2.12454766 151.07571411 3.38095093 C151.07571411 2.72095093 151.07571411 2.06095093 151.07571411 1.38095093 C149.09571411 1.38095093 147.11571411 1.38095093 145.07571411 1.38095093 C145.07571411 2.04095093 145.07571411 2.70095093 145.07571411 3.38095093 C141.01322922 3.41004862 136.95077125 3.42778266 132.88821411 3.44345093 C131.73772583 3.45182983 130.58723755 3.46020874 129.40188599 3.46884155 C128.29006958 3.47206421 127.17825317 3.47528687 126.03274536 3.47860718 C125.01156616 3.48384399 123.99038696 3.48908081 122.93826294 3.49447632 C120.07571411 3.38095093 120.07571411 3.38095093 117.26589966 2.81234741 C116.54313843 2.66998657 115.8203772 2.52762573 115.07571411 2.38095093 C114.74571411 2.71095093 114.41571411 3.04095093 114.07571411 3.38095093 C112.74414938 3.45269472 111.40903801 3.46487935 110.07571411 3.44345093 C108.99290161 3.42991577 108.99290161 3.42991577 107.88821411 3.41610718 C107.29008911 3.40450562 106.69196411 3.39290405 106.07571411 3.38095093 C105.74571411 3.38095093 105.41571411 3.38095093 105.07571411 3.38095093 C103.07571411 3.38095093 101.07571411 3.38095093 99.07571411 3.38095093 C99.07571411 3.05095093 99.07571411 2.72095093 99.07571411 2.38095093 C95.07316955 2.28913958 95.07316955 2.28913958 91.07571411 2.38095093 C90.74571411 2.71095093 90.41571411 3.04095093 90.07571411 3.38095093 C88.4114236 3.4791903 86.7428948 3.51068724 85.07571411 3.50595093 C83.71446411 3.50981812 83.71446411 3.50981812 82.32571411 3.51376343 C80.07571411 3.38095093 80.07571411 3.38095093 79.07571411 2.38095093 C76.26014627 2.308641 73.457792 2.38471462 70.64212036 2.44345093 C68.07571411 2.38095093 68.07571411 2.38095093 66.07571411 1.38095093 C66.07571411 2.04095093 66.07571411 2.70095093 66.07571411 3.38095093 C61.74238078 3.38095093 57.40904744 3.38095093 53.07571411 3.38095093 C51.66293906 3.40348876 50.25017985 3.42703001 48.83743286 3.45126343 C47.14603066 3.46986487 45.45462418 3.48807943 43.76321411 3.50595093 C42.4996106 3.53108765 42.4996106 3.53108765 41.21047974 3.55673218 C36.41190889 3.59425032 32.58579211 3.24972713 28.07571411 1.38095093 C28.07571411 2.04095093 28.07571411 2.70095093 28.07571411 3.38095093 C26.42571411 3.38095093 24.77571411 3.38095093 23.07571411 3.38095093 C23.07571411 2.72095093 23.07571411 2.06095093 23.07571411 1.38095093 C21.46696411 1.62845093 21.46696411 1.62845093 19.82571411 1.88095093 C15.61896678 2.44185057 12.14339638 2.54314586 8.07571411 1.38095093 C8.07571411 2.04095093 8.07571411 2.70095093 8.07571411 3.38095093 C7.41571411 3.38095093 6.75571411 3.38095093 6.07571411 3.38095093 C6.07571411 2.72095093 6.07571411 2.06095093 6.07571411 1.38095093 C5.41571411 1.38095093 4.75571411 1.38095093 4.07571411 1.38095093 C4.07571411 2.04095093 4.07571411 2.70095093 4.07571411 3.38095093 C3.20946411 3.21595093 2.34321411 3.05095093 1.45071411 2.88095093 C-2.37431444 2.31428003 -6.03245037 1.90299557 -9.81930542 2.85971069 C-12.05625797 3.41363017 -14.18349953 3.65177418 -16.47897339 3.84579468 C-17.3413562 3.92378296 -18.20373901 4.00177124 -19.09225464 4.0821228 C-20.88885314 4.2389687 -22.68573142 4.39264397 -24.48287964 4.5430603 C-29.26366059 4.98123918 -33.39151261 5.7023977 -37.92428589 7.38095093 C-39.18241089 7.54595093 -40.44053589 7.71095093 -41.73678589 7.88095093 C-43.31459839 8.12845093 -43.31459839 8.12845093 -44.92428589 8.38095093 C-45.25428589 9.04095093 -45.58428589 9.70095093 -45.92428589 10.38095093 C-47.65443937 10.90928639 -49.41024671 11.35503293 -51.17428589 11.75595093 C-55.71268303 12.90520912 -58.38657709 14.25944317 -61.92428589 17.38095093 C-63.58043246 17.7631386 -65.24885613 18.09490194 -66.92428589 18.38095093 C-67.95553589 18.91720093 -68.98678589 19.45345093 -70.04928589 20.00595093 C-72.92428589 21.38095093 -72.92428589 21.38095093 -75.92428589 20.38095093 C-52.5440874 5.49784489 -27.40790348 -0.11345028 0 0 Z " fill="#FCE872" transform="translate(315.9242858886719,172.61904907226563)"/>
<path d="M0 0 C5.74076467 3.32422102 9.62010558 8.16081605 11.6875 14.4375 C12.82526847 22.17213758 11.81849931 27.90999749 7.39453125 34.375 C3.39675309 39.20526743 -1.22498983 41.32145647 -7.3125 42.4375 C-13.92623542 42.73412933 -19.00064404 41.32664806 -24.328125 37.359375 C-29.37324437 32.47315703 -31.56621574 26.76979535 -31.875 19.8125 C-31.4934528 12.69363257 -29.14261577 7.83555796 -23.875 3.0625 C-17.16754726 -2.50888766 -7.9731426 -3.5725812 0 0 Z " fill="#020100" transform="translate(621.3125,393.5625)"/>
<path d="M0 0 C1.20522701 3.76424092 1.13656374 7.4811231 1.12025452 11.3894825 C1.12110876 12.13975985 1.12196301 12.8900372 1.12284315 13.66305023 C1.12449482 16.19125383 1.11897343 18.71939156 1.11352539 21.24758911 C1.11324551 23.07277769 1.11340808 24.89796639 1.11397648 26.7231549 C1.11427278 31.74976154 1.10832632 36.77634468 1.10140657 41.80294585 C1.0950459 47.21945931 1.0944645 52.63597362 1.0932312 58.05249023 C1.09034137 67.44112654 1.08389704 76.829755 1.07516479 86.2183876 C1.06262965 99.79504378 1.05653851 113.37169704 1.05223143 126.94835804 C1.04516028 148.97713033 1.03435456 171.00589895 1.02050781 193.03466797 C1.01926609 195.01326562 1.01926609 195.01326562 1.01799929 197.03183495 C1.012106 206.39622337 1.00606488 215.76061169 1 225.125 C0.99307028 235.82535801 0.98620438 246.52571607 0.97949219 257.22607422 C0.97866406 258.54414456 0.97783593 259.86221491 0.97698271 261.22022678 C0.96331487 283.16746285 0.95354624 305.11469897 0.94658184 327.06193817 C0.94209138 340.61121938 0.93403232 354.16048975 0.92143703 367.7097659 C0.91303513 376.98587617 0.90812608 386.26198393 0.90601182 395.53809775 C0.9046618 400.8972347 0.90162123 406.25635762 0.89425278 411.61548996 C0.88754262 416.51412661 0.88535952 421.41274289 0.88688838 426.31138371 C0.88661522 428.09056232 0.88461918 429.86974161 0.8807956 431.64891614 C0.875865 434.05337004 0.87699718 436.45774428 0.87974548 438.86219978 C0.87537619 439.91628468 0.87537619 439.91628468 0.87091863 440.99166423 C0.83977882 444.61835037 0.83977882 444.61835037 2 448 C1.75237915 449.13816162 1.75237915 449.13816162 1.49975586 450.29931641 C0.93634944 453.34396801 1.26453306 455.21908065 2.00390625 458.2109375 C2.24713623 459.20182373 2.49036621 460.19270996 2.7409668 461.21362305 C3.01207275 462.25687744 3.28317871 463.30013184 3.5625 464.375 C3.83553955 465.44468018 4.1085791 466.51436035 4.38989258 467.61645508 C7.11317444 477.96586224 10.37929151 487.83102302 16 497 C16.69822617 498.65369357 17.37498605 500.31727014 18 502 C17.01 502 16.02 502 15 502 C10.26365029 492.60097714 5.77448992 483.22885648 2.5625 473.1875 C2.32837402 472.47360107 2.09424805 471.75970215 1.85302734 471.02416992 C-2.11182261 458.02794772 -2.29081824 444.85617813 -2.25396729 431.41146851 C-2.25627578 429.56257429 -2.25945491 427.713681 -2.26342177 425.86478961 C-2.27172417 420.81901574 -2.26766542 415.77331811 -2.26144934 410.72754407 C-2.25690743 405.27298815 -2.26391699 399.81844496 -2.26940918 394.3638916 C-2.27828451 383.69498495 -2.27638999 373.0261065 -2.2705839 362.35719876 C-2.26606246 353.6895627 -2.26545658 345.02193454 -2.26763153 336.35429764 C-2.26809123 334.50215859 -2.26809123 334.50215859 -2.26856022 332.6126026 C-2.26919967 330.104145 -2.2698481 327.5956874 -2.2705054 325.0872298 C-2.27604033 302.25984784 -2.27030821 279.43247945 -2.2598202 256.60510005 C-2.25031808 235.76488271 -2.25118912 214.9246898 -2.26074219 194.08447266 C-2.2714464 170.65486777 -2.27566505 147.22527453 -2.26951766 123.79566729 C-2.26888056 121.29962643 -2.26825182 118.80358557 -2.26763153 116.30754471 C-2.26732298 115.07944421 -2.26701443 113.8513437 -2.26669653 112.58602803 C-2.26496787 103.92147807 -2.26788813 95.25693677 -2.27259064 86.59238815 C-2.27818956 76.04461232 -2.27670344 65.49686627 -2.26602915 54.94909386 C-2.26076081 49.56532593 -2.25873559 44.18160772 -2.26532745 38.79784012 C-2.27126432 33.87479596 -2.26804945 28.95184787 -2.25737235 24.02881248 C-2.25512882 22.24316987 -2.25629579 20.45751922 -2.26112393 18.67188172 C-2.26716292 16.2539481 -2.26101101 13.83634813 -2.25168228 11.41843224 C-2.25636461 10.71740409 -2.26104695 10.01637594 -2.26587117 9.29410452 C-2.23790213 5.69281155 -1.96406379 3.0657095 0 0 Z " fill="#BC8E00" transform="translate(186,282)"/>
<path d="M0 0 C1.485 0.99 1.485 0.99 3 2 C3 2.66 3 3.32 3 4 C5.475 4.99 5.475 4.99 8 6 C8 6.66 8 7.32 8 8 C8.66 8.226875 9.32 8.45375 10 8.6875 C13.88658628 10.3878815 17.63679817 12.39623084 21 15 C21 15.66 21 16.32 21 17 C21.7425 17.144375 22.485 17.28875 23.25 17.4375 C25.52027739 17.90187492 27.75759479 18.41863569 30 19 C30 19.66 30 20.32 30 21 C31.65 21.33 33.3 21.66 35 22 C35 22.66 35 23.32 35 24 C35.66386719 24.03738281 36.32773437 24.07476563 37.01171875 24.11328125 C42.29643405 24.50674181 45.47919665 25.17449791 50 28 C56.20624355 29.70561658 62.60785233 30.40404979 69 31 C69.87655424 31.08489148 70.75310848 31.16978296 71.65622497 31.25724691 C78.77547969 31.90512324 85.81291043 32.140215 92.95904541 32.12025452 C94.67114106 32.12153615 94.67114106 32.12153615 96.41782451 32.12284368 C100.20857911 32.12447917 103.99928859 32.11900898 107.79003906 32.11352539 C110.5208387 32.11268467 113.25163749 32.11335818 115.98243713 32.1139679 C121.84430653 32.11449012 127.70616473 32.1113749 133.56803131 32.10573006 C142.04311786 32.0975741 150.51819904 32.09499565 158.99328908 32.09374207 C172.74634292 32.09155796 186.4993908 32.08491532 200.25244141 32.07543945 C213.60563121 32.06624871 226.95881939 32.05917602 240.31201172 32.05493164 C241.54837936 32.05453756 241.54837936 32.05453756 242.80972412 32.05413551 C246.94506424 32.05283039 251.08040436 32.0515667 255.2157445 32.05032361 C289.47716728 32.03997098 323.738583 32.02237018 358 32 C358 32.33 358 32.66 358 33 C298.105 33.495 298.105 33.495 237 34 C237 34.33 237 34.66 237 35 C216.87516717 35.0469228 196.75034559 35.08208749 176.62546921 35.10362434 C167.27910269 35.11389438 157.93277035 35.127872 148.58642578 35.15087891 C140.43093155 35.17094468 132.27546209 35.18374739 124.11994386 35.18817699 C119.81005166 35.19076227 115.5002303 35.1967473 111.19036102 35.21146011 C70.93418143 35.34323006 32.91593655 32.85024927 1.40625 4.69140625 C0 3 0 3 0 0 Z " fill="#BD8B00" transform="translate(223,808)"/>
<path d="M0 0 C8.03774608 0.6706221 15.63507119 1.96826703 23.41796875 4.08203125 C25.30515625 4.59056641 25.30515625 4.59056641 27.23046875 5.109375 C58.36076509 13.93313776 83.53117806 35.05202998 99.49755859 62.96972656 C107.8145471 77.92878119 114.72853057 95.75268174 114.41796875 113.08203125 C112.93296875 112.58703125 112.93296875 112.58703125 111.41796875 112.08203125 C111.20140625 110.50421875 111.20140625 110.50421875 110.98046875 108.89453125 C110.54135917 105.91834406 110.04762628 103.02043304 109.41796875 100.08203125 C109.28519531 99.4478125 109.15242187 98.81359375 109.015625 98.16015625 C106.54258618 82.40519668 106.54258618 82.40519668 98.41796875 70.08203125 C97.71744414 67.41896825 97.64052057 64.84167388 97.41796875 62.08203125 C96.75796875 62.08203125 96.09796875 62.08203125 95.41796875 62.08203125 C95.41796875 61.09203125 95.41796875 60.10203125 95.41796875 59.08203125 C94.75796875 59.08203125 94.09796875 59.08203125 93.41796875 59.08203125 C93.08796875 57.43203125 92.75796875 55.78203125 92.41796875 54.08203125 C90.93296875 53.58703125 90.93296875 53.58703125 89.41796875 53.08203125 C87.5091829 51.47865114 86.48450377 50.22341816 85.41796875 47.95703125 C84.50593897 45.72898775 84.50593897 45.72898775 81.41796875 45.08203125 C81.17046875 44.15390625 80.92296875 43.22578125 80.66796875 42.26953125 C79.30409156 38.79164442 78.97217137 38.55029471 75.85546875 36.95703125 C72.41796875 35.08203125 72.41796875 35.08203125 71.48046875 32.83203125 C71.45984375 32.25453125 71.43921875 31.67703125 71.41796875 31.08203125 C70.75796875 31.08203125 70.09796875 31.08203125 69.41796875 31.08203125 C68.41796875 30.08203125 67.41796875 29.08203125 66.41796875 28.08203125 C64.93296875 27.58703125 64.93296875 27.58703125 63.41796875 27.08203125 C63.41796875 26.42203125 63.41796875 25.76203125 63.41796875 25.08203125 C62.75796875 25.08203125 62.09796875 25.08203125 61.41796875 25.08203125 C61.41796875 24.42203125 61.41796875 23.76203125 61.41796875 23.08203125 C60.09796875 23.41203125 58.77796875 23.74203125 57.41796875 24.08203125 C57.41796875 22.76203125 57.41796875 21.44203125 57.41796875 20.08203125 C53.50733651 18.61155789 53.50733651 18.61155789 49.41796875 18.08203125 C48.75796875 17.42203125 48.09796875 16.76203125 47.41796875 16.08203125 C45.83778904 15.18426543 44.22953929 14.33521885 42.60546875 13.51953125 C41.75339844 13.08511719 40.90132812 12.65070313 40.0234375 12.203125 C37.47262456 11.10554882 35.15214497 10.5189104 32.41796875 10.08203125 C32.41796875 9.42203125 32.41796875 8.76203125 32.41796875 8.08203125 C31.08765625 8.39140625 31.08765625 8.39140625 29.73046875 8.70703125 C25.97962497 9.13165507 24.80143846 8.61997203 21.41796875 7.08203125 C15.08755572 4.88644786 9.07438863 3.65924847 2.41796875 3.08203125 C0.07988831 2.77575134 -2.24959427 2.42941548 -4.58203125 2.08203125 C-2.58203125 0.08203125 -2.58203125 0.08203125 0 0 Z " fill="#F8E987" transform="translate(742.58203125,172.91796875)"/>
<path d="M0 0 C0.33 0 0.66 0 1 0 C0.52411411 28.5531535 -10.80651352 54.28402213 -29 76 C-29.55300781 76.68835938 -30.10601563 77.37671875 -30.67578125 78.0859375 C-35.46349311 83.8677566 -41.06340418 88.4359319 -47 93 C-47.78117188 93.6084375 -48.56234375 94.216875 -49.3671875 94.84375 C-59.89859059 102.64478933 -76.51882906 113.17227573 -90 112 C-90 111.34 -90 110.68 -90 110 C-89.175 109.87625 -88.35 109.7525 -87.5 109.625 C-80.02341938 108.28989632 -75.28154554 106.90521413 -69.17578125 102.33984375 C-66.76450279 100.85498107 -64.76613552 100.4834926 -62 100 C-60.97895449 99.02149805 -59.9793879 98.02019573 -59 97 C-56.3125 95.8125 -56.3125 95.8125 -54 95 C-54 94.34 -54 93.68 -54 93 C-53.0925 92.7525 -52.185 92.505 -51.25 92.25 C-47.79797196 90.92229691 -46.45298859 89.69037458 -44 87 C-43.195625 86.38125 -42.39125 85.7625 -41.5625 85.125 C-38.62181223 82.68638087 -36.40592332 79.96113639 -34 77 C-32.68456137 75.64900897 -31.35824882 74.30794331 -30 73 C-30.66 73 -31.32 73 -32 73 C-31.67 72.34 -31.34 71.68 -31 71 C-29.68 71.33 -28.36 71.66 -27 72 C-26.67 70.35 -26.34 68.7 -26 67 C-25.34 67 -24.68 67 -24 67 C-23.938125 65.906875 -23.87625 64.81375 -23.8125 63.6875 C-23 60 -23 60 -20.5625 58.4375 C-19.716875 57.963125 -18.87125 57.48875 -18 57 C-16.77479736 53.99152582 -16.77479736 53.99152582 -16 51 C-15.01 50.01 -15.01 50.01 -14 49 C-10.58981946 42.88079754 -8.45359789 37.32515403 -8.3359375 30.2890625 C-8 28 -8 28 -6.55078125 25.60546875 C-4.75271596 22.5845379 -4.30760885 20.15326198 -3.8125 16.6875 C-3.65394531 15.61886719 -3.49539063 14.55023437 -3.33203125 13.44921875 C-3.22246094 12.64097656 -3.11289062 11.83273437 -3 11 C-2.34 11 -1.68 11 -1 11 C-1.309375 10.2265625 -1.309375 10.2265625 -1.625 9.4375 C-2.15887026 5.96734329 -1.07676761 3.29364209 0 0 Z " fill="#F9DE44" transform="translate(856,725)"/>
<path d="M0 0 C49.5 0 99 0 150 0 C150 0.33 150 0.66 150 1 C149.1300943 1.01213028 149.1300943 1.01213028 148.24261475 1.02450562 C142.20790637 1.11054692 136.17352663 1.21005044 130.13916016 1.31738281 C127.88693764 1.35567157 125.634654 1.39052461 123.38232422 1.421875 C120.14528553 1.46752737 116.90866764 1.52552215 113.671875 1.5859375 C112.16074127 1.60326431 112.16074127 1.60326431 110.61907959 1.62094116 C109.20806976 1.6507457 109.20806976 1.6507457 107.76855469 1.68115234 C106.94248718 1.69447601 106.11641968 1.70779968 105.26531982 1.7215271 C102.97753148 1.86710849 102.97753148 1.86710849 101.07833862 3.01048279 C98.27429903 4.34551328 96.07585319 4.20674631 92.97802734 4.15112305 C91.76351898 4.13417892 90.54901062 4.1172348 89.29769897 4.09977722 C87.33662704 4.05618828 87.33662704 4.05618828 85.3359375 4.01171875 C83.97882371 3.98807269 82.62169622 3.96520075 81.26455688 3.94306946 C78.42490799 3.89460912 75.58550702 3.83925907 72.74609375 3.77856445 C69.10328423 3.70089956 65.4603952 3.63658222 61.81725121 3.57690716 C59.01712275 3.53023178 56.21710802 3.47846173 53.41710281 3.42493629 C51.4195722 3.38711887 49.42198969 3.35207578 47.42440796 3.31706238 C46.21620392 3.29066177 45.00799988 3.26426117 43.76318359 3.23706055 C42.16245499 3.20469551 42.16245499 3.20469551 40.52938843 3.17167664 C38 3 38 3 36 2 C33.30344554 1.84323225 30.62870023 1.74163685 27.9296875 1.68359375 C27.13345978 1.66281265 26.33723206 1.64203156 25.51687622 1.62062073 C22.96967315 1.55515851 20.42236575 1.49625585 17.875 1.4375 C16.14972873 1.3943116 14.42446807 1.35069721 12.69921875 1.30664062 C8.46625315 1.19948055 4.23318247 1.09820377 0 1 C0 0.67 0 0.34 0 0 Z " fill="#F4D200" transform="translate(449,688)"/>
<path d="M0 0 C2.5499869 1.27499345 2.65976415 2.18491352 3.625 4.8125 C4.01558594 5.84310547 4.01558594 5.84310547 4.4140625 6.89453125 C5 9 5 9 5 13 C5.99 13.33 6.98 13.66 8 14 C8.06058594 14.92941406 8.12117187 15.85882813 8.18359375 16.81640625 C8.26738281 18.05261719 8.35117187 19.28882813 8.4375 20.5625 C8.55931641 22.38974609 8.55931641 22.38974609 8.68359375 24.25390625 C8.88288102 26.61336906 9.15001026 28.96900853 9.51225948 31.30899906 C9.98156917 34.86052379 10.12312048 38.22252114 10.12025452 41.80210876 C10.12110894 42.44920746 10.12196337 43.09630615 10.12284368 43.7630139 C10.12447847 45.91096732 10.11901022 48.058841 10.11352539 50.20678711 C10.11324306 51.75459796 10.11340215 53.30240895 10.1139679 54.85021973 C10.11425408 59.03770001 10.10838627 63.22515147 10.10139394 67.41262507 C10.09513061 71.79417063 10.09455424 76.17571689 10.09336853 80.55726624 C10.09026399 88.84791741 10.08206244 97.13855535 10.07201904 105.42920071 C10.06083064 114.87053588 10.05534058 124.3118717 10.05032361 133.75321186 C10.03987909 153.1688154 10.02229666 172.58440663 10 192 C9.67 192 9.34 192 9 192 C8.99761165 191.23599034 8.99522329 190.47198069 8.99276257 189.68481922 C8.93334466 171.00080333 8.85762652 152.31691653 8.76428509 133.63303852 C8.71952738 124.59724922 8.68006797 115.56149758 8.65356445 106.52563477 C8.63042067 98.63997314 8.59684405 90.75443273 8.55129844 82.86886758 C8.52758434 78.70259797 8.50871415 74.53644676 8.50238609 70.37011147 C8.46383936 48.01644071 7.92921271 26.64148523 0.98828125 5.17578125 C0 2 0 2 0 0 Z " fill="#FDFC00" transform="translate(687,391)"/>
<path d="M0 0 C1.485 0.99 1.485 0.99 3 2 C3 2.66 3 3.32 3 4 C5.475 4.99 5.475 4.99 8 6 C8 6.66 8 7.32 8 8 C8.66 8.226875 9.32 8.45375 10 8.6875 C13.88658628 10.3878815 17.63679817 12.39623084 21 15 C21 15.66 21 16.32 21 17 C21.7425 17.144375 22.485 17.28875 23.25 17.4375 C25.52027739 17.90187492 27.75759479 18.41863569 30 19 C30 19.66 30 20.32 30 21 C31.65 21.33 33.3 21.66 35 22 C35 22.66 35 23.32 35 24 C35.66386719 24.03738281 36.32773437 24.07476563 37.01171875 24.11328125 C42.29643405 24.50674181 45.47919665 25.17449791 50 28 C60.04214006 30.75980799 70.67010026 31.17850205 81 32 C81 32.33 81 32.66 81 33 C55.02168733 36.74991296 28.57170825 25.21576054 8 10 C2.04693055 5.37805167 2.04693055 5.37805167 0 3 C0 2.01 0 1.02 0 0 Z " fill="#9C7400" transform="translate(223,808)"/>
<path d="M0 0 C-2.86234062 0.78586038 -5.5987787 1.21500126 -8.5546875 1.46484375 C-9.41707031 1.54283203 -10.27945313 1.62082031 -11.16796875 1.70117188 C-12.96456725 1.85801778 -14.76144553 2.01169304 -16.55859375 2.16210938 C-21.3393747 2.60028826 -25.46722672 3.32144678 -30 5 C-31.258125 5.165 -32.51625 5.33 -33.8125 5.5 C-35.3903125 5.7475 -35.3903125 5.7475 -37 6 C-37.33 6.66 -37.66 7.32 -38 8 C-39.73015349 8.52833546 -41.48596083 8.97408201 -43.25 9.375 C-47.78839715 10.52425819 -50.46229121 11.87849224 -54 15 C-55.65614657 15.38218767 -57.32457024 15.71395102 -59 16 C-60.03125 16.53625 -61.0625 17.0725 -62.125 17.625 C-65 19 -65 19 -68 18 C-52.66721959 8.23962962 -36.67856243 2.40475177 -18.875 -0.8125 C-18.18889648 -0.9364917 -17.50279297 -1.0604834 -16.79589844 -1.18823242 C-4.93903726 -3.16098385 -4.93903726 -3.16098385 0 0 Z " fill="#F6DD5E" transform="translate(308,175)"/>
<path d="M0 0 C16.20472301 14.24051416 26.05511497 42.00865468 28 63 C28.02308181 64.66650683 28.02986378 66.33360091 28 68 C26.515 67.505 26.515 67.505 25 67 C24.855625 65.948125 24.71125 64.89625 24.5625 63.8125 C24.12339042 60.83631281 23.62965753 57.93840179 23 55 C22.86722656 54.36578125 22.73445312 53.7315625 22.59765625 53.078125 C20.12461743 37.32316543 20.12461743 37.32316543 12 25 C11.29947539 22.336937 11.22255182 19.75964263 11 17 C10.34 17 9.68 17 9 17 C9 16.01 9 15.02 9 14 C8.34 14 7.68 14 7 14 C6.67 12.35 6.34 10.7 6 9 C5.01 8.67 4.02 8.34 3 8 C1.3125 6.75 1.3125 6.75 0 5 C-0.1875 2.3125 -0.1875 2.3125 0 0 Z " fill="#F6E579" transform="translate(829,218)"/>
<path d="M0 0 C27.39 0 54.78 0 83 0 C83 0.33 83 0.66 83 1 C81.02 1 79.04 1 77 1 C77 1.66 77 2.32 77 3 C76.34 3 75.68 3 75 3 C75 2.34 75 1.68 75 1 C74.01 1.33 73.02 1.66 72 2 C69.62861757 2.07239757 67.25520432 2.08378501 64.8828125 2.0625 C64.18864227 2.05871338 63.49447205 2.05492676 62.77926636 2.05102539 C59.81419632 2.03470795 56.84926496 2.00662871 53.88427734 1.97949219 C51.71712894 1.96134906 49.55000331 1.94928929 47.3828125 1.9375 C46.08746582 1.92589844 44.79211914 1.91429687 43.45751953 1.90234375 C40.47437689 1.98660142 37.90255854 2.38960996 35 3 C33.32774271 2.69595322 31.65919896 2.36871088 30 2 C29.67 2.33 29.34 2.66 29 3 C27.00041636 3.04080783 24.99954746 3.04254356 23 3 C23 2.34 23 1.68 23 1 C18.65815798 1.18464366 18.65815798 1.18464366 15 3 C12.64686445 3.07271741 10.29166332 3.08370868 7.9375 3.0625 C6.64714844 3.05347656 5.35679687 3.04445312 4.02734375 3.03515625 C3.02832031 3.02355469 2.02929688 3.01195312 1 3 C0.67 2.01 0.34 1.02 0 0 Z " fill="#FDF28B" transform="translate(657,173)"/>
<path d="M0 0 C1.32 0.33 2.64 0.66 4 1 C3.78214844 1.75410156 3.56429687 2.50820313 3.33984375 3.28515625 C2.84900842 8.65049422 4.20694298 13.26301858 5.5625 18.4375 C5.83553955 19.50266846 6.1085791 20.56783691 6.38989258 21.6652832 C9.11878766 31.99224766 12.39034158 41.84904884 18 51 C18.69822617 52.65369357 19.37498605 54.31727014 20 56 C19.01 56 18.02 56 17 56 C7.7677058 37.67902506 1.4253488 20.56925765 0 0 Z " fill="#9D7400" transform="translate(184,728)"/>
<path d="M0 0 C0.99 0.66 1.98 1.32 3 2 C1.75 4.5 1.75 4.5 0 7 C-1.32 7 -2.64 7 -4 7 C-5.37310707 8.29233607 -6.71034824 9.62437146 -8 11 C-8.66 11 -9.32 11 -10 11 C-10 11.66 -10 12.32 -10 13 C-13 15 -13 15 -16 15 C-16 15.66 -16 16.32 -16 17 C-16.66 17 -17.32 17 -18 17 C-17.67 17.99 -17.34 18.98 -17 20 C-21.75 23 -21.75 23 -24 23 C-24 23.99 -24 24.98 -24 26 C-24.66 26 -25.32 26 -26 26 C-25.67 26.99 -25.34 27.98 -25 29 C-28 31 -28 31 -30.1875 30.625 C-31.0846875 30.315625 -31.0846875 30.315625 -32 30 C-31.09507812 29.00419922 -31.09507812 29.00419922 -30.171875 27.98828125 C-29.37265625 27.10527344 -28.5734375 26.22226563 -27.75 25.3125 C-26.96109375 24.44238281 -26.1721875 23.57226562 -25.359375 22.67578125 C-23.7870393 20.89258596 -22.27488254 19.05447813 -20.828125 17.16796875 C-20.22484375 16.45253906 -19.6215625 15.73710937 -19 15 C-18.34 15 -17.68 15 -17 15 C-17 14.34 -17 13.68 -17 13 C-15.43945312 11.57958984 -15.43945312 11.57958984 -13.28125 9.9609375 C-12.51425781 9.38085938 -11.74726563 8.80078125 -10.95703125 8.203125 C-10.14621094 7.59984375 -9.33539063 6.9965625 -8.5 6.375 C-7.68917969 5.76398438 -6.87835938 5.15296875 -6.04296875 4.5234375 C-4.03282573 3.00991805 -2.01842299 1.50244941 0 0 Z " fill="#EDC829" transform="translate(239,193)"/>
<path d="M0 0 C1.05866606 3.45833754 1.12073782 6.63108902 1.11352539 10.23730469 C1.11344986 11.49830994 1.11337433 12.75931519 1.11329651 14.05853271 C1.10819028 15.42964721 1.1029743 16.80076131 1.09765625 18.171875 C1.09579028 19.57863311 1.09436722 20.98539188 1.09336853 22.39215088 C1.08955744 26.08780727 1.0797392 29.78342413 1.06866455 33.47906494 C1.05842014 37.25296494 1.05386442 41.02687135 1.04882812 44.80078125 C1.03811564 52.20053882 1.02105616 59.60026386 1 67 C0.01 67.495 0.01 67.495 -1 68 C-1.1771006 59.72472473 -1.3430462 51.44933289 -1.49477577 43.17355728 C-1.56558084 39.33073888 -1.6402186 35.48807483 -1.72363281 31.64550781 C-1.80399867 27.93685635 -1.87427399 24.22813806 -1.93757248 20.51915741 C-1.96348552 19.10451978 -1.99302695 17.68994379 -2.02626419 16.27545929 C-2.07221354 14.29353971 -2.10404088 12.31130798 -2.13525391 10.32910156 C-2.15746002 9.20103088 -2.17966614 8.07296021 -2.20254517 6.91070557 C-2.00270815 4.03891781 -1.49762056 2.42331426 0 0 Z " fill="#917300" transform="translate(186,282)"/>
<path d="M0 0 C1.480716 0.0037438 2.96143453 0.00658428 4.44215393 0.00857544 C8.28401895 0.01610458 12.1257256 0.03565669 15.9675293 0.0579834 C19.90997171 0.07867702 23.85244046 0.08762671 27.79492188 0.09765625 C35.48965447 0.11891618 43.18425793 0.15291721 50.87890625 0.1953125 C50.87890625 0.5253125 50.87890625 0.8553125 50.87890625 1.1953125 C31.40890625 1.5253125 11.93890625 1.8553125 -8.12109375 2.1953125 C-8.12109375 2.5253125 -8.12109375 2.8553125 -8.12109375 3.1953125 C-15.71109375 3.1953125 -23.30109375 3.1953125 -31.12109375 3.1953125 C-31.12109375 2.8653125 -31.12109375 2.5353125 -31.12109375 2.1953125 C-20.69523231 0.54132923 -10.55418464 -0.08012393 0 0 Z " fill="#F3C000" transform="translate(456.12109375,327.8046875)"/>
<path d="M0 0 C0.33 0 0.66 0 1 0 C0.73537908 15.87725525 -2.41204878 31.92192879 -10 46 C-11 43 -11 43 -10.125 40.9375 C-8.77536502 37.4134531 -8.62291295 34.24723518 -8.44140625 30.5 C-8 28 -8 28 -6.5390625 25.58203125 C-4.74584736 22.57361701 -4.30577375 20.14041623 -3.8125 16.6875 C-3.65394531 15.61886719 -3.49539063 14.55023437 -3.33203125 13.44921875 C-3.22246094 12.64097656 -3.11289062 11.83273437 -3 11 C-2.34 11 -1.68 11 -1 11 C-1.20625 10.484375 -1.4125 9.96875 -1.625 9.4375 C-2.15887026 5.96734329 -1.07676761 3.29364209 0 0 Z " fill="#F9E861" transform="translate(856,725)"/>
<path d="M0 0 C14.72384352 4.54039227 30.61228095 15.69591155 38.703125 28.94140625 C39.96423889 30.94323463 41.32288921 32.3502334 43 34 C44.75 37.0625 44.75 37.0625 46 40 C45.505 40.99 45.505 40.99 45 42 C44.46632813 41.18917969 43.93265625 40.37835938 43.3828125 39.54296875 C32.0086402 22.5153617 18.42373963 10.07780934 0 1 C0 0.67 0 0.34 0 0 Z " fill="#F4D901" transform="translate(636,338)"/>
<path d="M0 0 C2.3520288 3.8958715 2.93965121 8.10157135 3.8125 12.5 C5.21484819 19.28405593 7.10169963 25.35305907 10.14453125 31.6171875 C11.09382327 34.26133421 10.98094966 35.41221868 10 38 C9.32332002 36.75539217 8.65905281 35.50403104 8 34.25 C7.62875 33.55390625 7.2575 32.8578125 6.875 32.140625 C6 30 6 30 6 26 C5.34 26 4.68 26 4 26 C-0.78194572 9.60475755 -0.78194572 9.60475755 -1 1 C-0.67 0.67 -0.34 0.34 0 0 Z " fill="#F2CF01" transform="translate(337,597)"/>
<path d="M0 0 C0.99 0 1.98 0 3 0 C2.34936158 2.66828597 1.63304968 5.30313043 0.84375 7.93359375 C0.62589844 8.66513672 0.40804687 9.39667969 0.18359375 10.15039062 C-0.27106374 11.67154468 -0.72678807 13.19238029 -1.18359375 14.71289062 C-2.29763169 18.4604088 -3.28368497 22.15236498 -4 26 C-4.65146849 28.33762223 -5.31526605 30.67190457 -6 33 C-6.33 33 -6.66 33 -7 33 C-7.80099643 21.58580094 -3.73811029 10.65361432 0 0 Z " fill="#CE9D04" transform="translate(193,248)"/>
<path d="M0 0 C2.79202121 2.52652226 4.61586539 5.39170525 6.625 8.5625 C14.15766253 19.91607831 23.20066057 27.91969767 34 36 C29.88939334 36 28.36906003 34.2255185 25.2265625 31.734375 C23.06587511 29.99913543 23.06587511 29.99913543 20.8984375 28.640625 C12.53859115 22.98632892 7.4843272 14.27899672 2 6 C1.34 5.01 0.68 4.02 0 3 C0 2.01 0 1.02 0 0 Z " fill="#F3D800" transform="translate(349,636)"/>
<path d="M0 0 C2.07944919 3.64602974 3.06146023 7.52035081 4.0625 11.5625 C4.32691895 12.62017578 4.32691895 12.62017578 4.59667969 13.69921875 C5.97592143 19.43519574 6.74998295 25.09959762 7 31 C6.01 30.67 5.02 30.34 4 30 C3.855625 28.948125 3.71125 27.89625 3.5625 26.8125 C3.02079771 23.14096229 2.35601845 19.55353504 1.52734375 15.9375 C-1.44707077 2.89414153 -1.44707077 2.89414153 0 0 Z " fill="#F3DF72" transform="translate(850,255)"/>
<path d="M0 0 C2.5499869 1.27499345 2.65976415 2.18491352 3.625 4.8125 C4.01558594 5.84310547 4.01558594 5.84310547 4.4140625 6.89453125 C5 9 5 9 5 13 C5.99 13.33 6.98 13.66 8 14 C8.06058594 14.85980469 8.12117187 15.71960938 8.18359375 16.60546875 C8.76014879 24.73932984 9.3653027 32.87047285 10 41 C9.34 40.67 8.68 40.34 8 40 C7.5769043 38.22851562 7.5769043 38.22851562 7.32421875 35.90625 C7.22085205 35.04813721 7.11748535 34.19002441 7.01098633 33.3059082 C6.90423584 32.3799585 6.79748535 31.45400879 6.6875 30.5 C5.5771221 21.73350254 3.69211477 13.57620161 0.98828125 5.17578125 C0 2 0 2 0 0 Z " fill="#F6DB00" transform="translate(687,391)"/>
<path d="M0 0 C1 3 1 3 -0.51171875 6.3359375 C-1.23076418 7.68562113 -1.95644108 9.03178554 -2.6875 10.375 C-7.81125505 20.18348988 -10.79770214 30.17203554 -13 41 C-13.66 40.34 -14.32 39.68 -15 39 C-15 37.68 -15 36.36 -15 35 C-14.34 35 -13.68 35 -13 35 C-12.896875 33.906875 -12.79375 32.81375 -12.6875 31.6875 C-12.0310434 26.31034816 -10.516408 21.18821352 -9 16 C-8.34 16 -7.68 16 -7 16 C-6.95875 15.21625 -6.9175 14.4325 -6.875 13.625 C-5.6274716 8.45666805 -2.86484354 4.43306065 0 0 Z " fill="#F8DE00" transform="translate(351,375)"/>
<path d="M0 0 C2.24024365 2.24024365 2.74778281 2.88932136 3 6 C2.34176248 7.71141756 1.67033777 9.42060086 0.89453125 11.08203125 C-1.80449982 16.86903674 -3.55903671 22.79277351 -5 29 C-5.99 29 -6.98 29 -8 29 C-7.8146167 28.472854 -7.6292334 27.94570801 -7.43823242 27.40258789 C-5.40437252 21.48150922 -3.78936235 15.51896037 -2.3125 9.4375 C-2.08755859 8.52419922 -1.86261719 7.61089844 -1.63085938 6.66992188 C-1.08395544 4.44739739 -0.54039409 2.22411454 0 0 Z " fill="#E9C200" transform="translate(693,602)"/>
<path d="M0 0 C3.85379878 1.23209041 7.50530028 2.64272849 11.1875 4.3125 C19.50282444 7.84467321 28.24966326 9.8490281 37 12 C37 12.33 37 12.66 37 13 C31.4978184 13.23136637 26.86146222 12.4350346 21.5625 11 C20.83095703 10.80921875 20.09941406 10.6184375 19.34570312 10.421875 C17.56180334 9.95549597 15.78060155 9.47881722 14 9 C14 8.34 14 7.68 14 7 C13.34 6.9175 12.68 6.835 12 6.75 C8.0458443 5.76146107 4.46827753 4.14741483 1 2 C0.67 1.34 0.34 0.68 0 0 Z " fill="#F4D701" transform="translate(385,674)"/>
<path d="M0 0 C0.99 0.66 1.98 1.32 3 2 C1.75 4.5 1.75 4.5 0 7 C-1.32 7 -2.64 7 -4 7 C-5.37310707 8.29233607 -6.71034824 9.62437146 -8 11 C-8.66 11 -9.32 11 -10 11 C-10.33 11.66 -10.66 12.32 -11 13 C-12.32 12.67 -13.64 12.34 -15 12 C-10.19200621 7.66656144 -5.33522342 3.6679661 0 0 Z " fill="#F6D237" transform="translate(239,193)"/>
<path d="M0 0 C0 0.99 0 1.98 0 3 C-0.94875 3.45375 -1.8975 3.9075 -2.875 4.375 C-6.00313679 5.80238254 -6.00313679 5.80238254 -8 8 C-8.7425 8.144375 -9.485 8.28875 -10.25 8.4375 C-13.16007304 8.90180947 -13.16007304 8.90180947 -16.125 10.625 C-19 12 -19 12 -22 11 C-4.23367698 0 -4.23367698 0 0 0 Z " fill="#F8DF4A" transform="translate(262,182)"/>
<path d="M0 0 C9.57 0 19.14 0 29 0 C29 0.66 29 1.32 29 2 C28.38253906 1.98839844 27.76507813 1.97679687 27.12890625 1.96484375 C22.85996912 1.9193604 18.7321075 1.97197337 14.5 2.5625 C9.57794379 3.19646788 4.89625887 2.66441926 0 2 C0 1.34 0 0.68 0 0 Z " fill="#FDDC68" transform="translate(478,174)"/>
<path d="M0 0 C0.33 0.99 0.66 1.98 1 3 C-1.60346797 4.14744331 -4.20773205 5.29301468 -6.8125 6.4375 C-7.55048828 6.76298828 -8.28847656 7.08847656 -9.04882812 7.42382812 C-9.76103516 7.73642578 -10.47324219 8.04902344 -11.20703125 8.37109375 C-12.18893433 8.8031311 -12.18893433 8.8031311 -13.19067383 9.24389648 C-17.29037967 10.95713208 -20.58132457 11.08337123 -25 11 C-25 10.34 -25 9.68 -25 9 C-24.175 8.87625 -23.35 8.7525 -22.5 8.625 C-14.92679755 7.27264242 -10.12491567 5.78783057 -3.8828125 1.2421875 C-2 0 -2 0 0 0 Z " fill="#F8DE21" transform="translate(791,826)"/>
<path d="M0 0 C6.02741895 -0.16589226 11.57494793 0.42885867 17.5 1.5 C18.32242188 1.64308594 19.14484375 1.78617187 19.9921875 1.93359375 C21.99584627 2.28306912 23.99808298 2.64068156 26 3 C26 3.33 26 3.66 26 4 C15.77 3.67 5.54 3.34 -5 3 C-5 2.67 -5 2.34 -5 2 C-3.35 1.67 -1.7 1.34 0 1 C0 0.67 0 0.34 0 0 Z " fill="#F3CC00" transform="translate(588,328)"/>
<path d="M0 0 C0.66 0.33 1.32 0.66 2 1 C1.32904297 1.74443359 1.32904297 1.74443359 0.64453125 2.50390625 C-2.2960409 5.80813125 -5.09057546 9.03513474 -7.5 12.75 C-10.07121987 16.48763418 -12.96980829 17.98490414 -17 20 C-17.99 20.66 -18.98 21.32 -20 22 C-18.61308541 18.7778752 -17.07563327 16.96645599 -14.375 14.75 C-9.12672128 10.30620196 -3.83126485 5.74689727 0 0 Z " fill="#F7D700" transform="translate(674,648)"/>
<path d="M0 0 C0.66 0.99 1.32 1.98 2 3 C-8.27313076 10.61042591 -8.27313076 10.61042591 -13.5 14.0625 C-14.41265625 14.66771484 -14.41265625 14.66771484 -15.34375 15.28515625 C-17 16 -17 16 -20 15 C-18.7934375 14.319375 -18.7934375 14.319375 -17.5625 13.625 C-14.91143428 12.25274335 -14.91143428 12.25274335 -14 10 C-12.35636866 9.27840576 -10.68949614 8.60648579 -9 8 C-9 7.34 -9 6.68 -9 6 C-7.6078125 5.62875 -7.6078125 5.62875 -6.1875 5.25 C-2.83541675 3.93545755 -1.8122197 3.02036616 0 0 Z " fill="#F8DF31" transform="translate(811,812)"/>
<path d="M0 0 C0 0.33 0 0.66 0 1 C-5.1253919 2.09050891 -8.66875714 1.77839071 -13.71875 0.47265625 C-16.0427632 -0.00886018 -18.07096402 -0.07288245 -20.4375 0 C-21.613125 0 -22.78875 0 -24 0 C-24.66 -0.66 -25.32 -1.32 -26 -2 C-19.23347421 -5.38326289 -7.17884626 -1.48180594 0 0 Z " fill="#EFDE84" transform="translate(764,176)"/>
<path d="M0 0 C0.33 0 0.66 0 1 0 C0.85834107 2.39614575 0.71181159 4.79182897 0.5625 7.1875 C0.50352539 8.19780273 0.50352539 8.19780273 0.44335938 9.22851562 C0.21072435 12.89699102 -0.17207011 16.41694206 -1 20 C-1.66 20 -2.32 20 -3 20 C-3.33 20.66 -3.66 21.32 -4 22 C-3.67 18.37 -3.34 14.74 -3 11 C-2.34 11 -1.68 11 -1 11 C-1.20625 10.484375 -1.4125 9.96875 -1.625 9.4375 C-2.15887026 5.96734329 -1.07676761 3.29364209 0 0 Z " fill="#F3DC62" transform="translate(856,725)"/>
<path d="M0 0 C4.95532767 3.86757281 8.96476648 8.18876004 13 13 C12.34 13.66 11.68 14.32 11 15 C6.41853326 10.61869443 2.27094033 6.45156722 -1 1 C-0.67 0.67 -0.34 0.34 0 0 Z " fill="#9B7200" transform="translate(210,794)"/>
<path d="M0 0 C0.99 0.33 1.98 0.66 3 1 C2.360625 1.9075 1.72125 2.815 1.0625 3.75 C-1.05744093 6.69036168 -1.05744093 6.69036168 -1.5 9.1875 C-2.216946 11.78642926 -3.79853935 12.57970281 -6 14 C-6.33 13.01 -6.66 12.02 -7 11 C-5.56640625 8.30078125 -5.56640625 8.30078125 -3.5625 5.3125 C-2.57443359 3.82169922 -2.57443359 3.82169922 -1.56640625 2.30078125 C-1.04949219 1.54152344 -0.53257812 0.78226563 0 0 Z " fill="#E5B817" transform="translate(206,225)"/>
<path d="M0 0 C0.66 0.66 1.32 1.32 2 2 C0.71520038 4.48294996 -0.5773869 6.96125909 -1.875 9.4375 C-2.42220703 10.49807617 -2.42220703 10.49807617 -2.98046875 11.58007812 C-5.7734375 16.88671875 -5.7734375 16.88671875 -8 18 C-7.21998106 12.85187497 -5.73783993 7.73783993 -2 4 C-1.30251417 2.68252676 -0.63040043 1.35085807 0 0 Z " fill="#F2DD4F" transform="translate(844,770)"/>
<path d="M0 0 C0.84191782 2.9248633 1.11819313 5.50741656 1.09765625 8.546875 C1.09443359 9.39121094 1.09121094 10.23554688 1.08789062 11.10546875 C1.07951172 11.97816406 1.07113281 12.85085938 1.0625 13.75 C1.05798828 14.63816406 1.05347656 15.52632813 1.04882812 16.44140625 C1.037074 18.62767329 1.02064249 20.81380179 1 23 C0.67 23 0.34 23 0 23 C-0.33774332 20.77149723 -0.6700187 18.54216533 -1 16.3125 C-1.185625 15.07113281 -1.37125 13.82976562 -1.5625 12.55078125 C-2.16551268 7.65668724 -2.55633569 4.31381647 0 0 Z " fill="#B48A00" transform="translate(186,282)"/>
<path d="M0 0 C0.99 0 1.98 0 3 0 C2.21302675 3.41021743 1.12880057 6.68885166 0 10 C-0.66 10 -1.32 10 -2 10 C-2.33 11.98 -2.66 13.96 -3 16 C-4.49828872 12.11764181 -3.43110582 9.56550712 -2.0625 5.75 C-1.68222656 4.67234375 -1.30195313 3.5946875 -0.91015625 2.484375 C-0.45962891 1.25460938 -0.45962891 1.25460938 0 0 Z " fill="#E0AE06" transform="translate(193,248)"/>
<path d="M0 0 C1.25127906 3.54667178 0.72285053 5.72253438 -0.4375 9.25 C-0.72496094 10.14203125 -1.01242187 11.0340625 -1.30859375 11.953125 C-1.53675781 12.62859375 -1.76492188 13.3040625 -2 14 C-2.99 14 -3.98 14 -5 14 C-3.45730076 9.27934033 -1.92205381 4.58335908 0 0 Z " fill="#F8D501" transform="translate(690,617)"/>
<path d="M0 0 C0.33 0 0.66 0 1 0 C1.05406122 1.93719378 1.09282025 3.87481921 1.125 5.8125 C1.14820313 6.89144531 1.17140625 7.97039063 1.1953125 9.08203125 C1 12 1 12 -1 15 C-1.92867074 12.21398777 -2.16342217 10.38933911 -2.1875 7.5 C-2.20167969 6.7265625 -2.21585937 5.953125 -2.23046875 5.15625 C-2 3 -2 3 0 0 Z " fill="#DCAC01" transform="translate(336,575)"/>
<path d="M0 0 C0.33 0.66 0.66 1.32 1 2 C0.34 2 -0.32 2 -1 2 C-0.67 2.99 -0.34 3.98 0 5 C-3 7 -3 7 -5.1875 6.625 C-5.785625 6.41875 -6.38375 6.2125 -7 6 C-3.375 1.125 -3.375 1.125 0 0 Z " fill="#E7BC20" transform="translate(214,217)"/>
<path d="M0 0 C0.33 0.99 0.66 1.98 1 3 C-2.465 4.485 -2.465 4.485 -6 6 C-6.66 5.34 -7.32 4.68 -8 4 C-2.25 0 -2.25 0 0 0 Z " fill="#F3CF20" transform="translate(791,826)"/>
<path d="M0 0 C0.33 0 0.66 0 1 0 C1.33 3.63 1.66 7.26 2 11 C1.01 10.67 0.02 10.34 -1 10 C-1.125 2.25 -1.125 2.25 0 0 Z " fill="#EAD568" transform="translate(855,275)"/>
<path d="M0 0 C0 0.99 0 1.98 0 3 C-0.94875 3.45375 -1.8975 3.9075 -2.875 4.375 C-6.00313679 5.80238254 -6.00313679 5.80238254 -8 8 C-8.33 7.01 -8.66 6.02 -9 5 C-2.87096774 0 -2.87096774 0 0 0 Z " fill="#F1D14C" transform="translate(262,182)"/>
<path d="M0 0 C4.82360189 -0.19294408 8.49646738 0.24252386 13 2 C9.44646071 3.1845131 6.72986522 3.26641894 3 3 C1.0625 1.5 1.0625 1.5 0 0 Z " fill="#FCED92" transform="translate(759,177)"/>
<path d="M0 0 C2.70272533 2.87164566 3.94791837 4.30991841 4.25 8.3125 C4.1675 9.199375 4.085 10.08625 4 11 C1.73030256 8.73030256 1.00868171 7.02604513 0 4 C0 2.68 0 1.36 0 0 Z " fill="#A57A00" transform="translate(190,756)"/>
<path d="M0 0 C0.5775 0.309375 1.155 0.61875 1.75 0.9375 C0.491875 0.97875 -0.76625 1.02 -2.0625 1.0625 C-2.77019531 1.08570313 -3.47789062 1.10890625 -4.20703125 1.1328125 C-6.25 0.9375 -6.25 0.9375 -9.25 -1.0625 C-5.37331765 -2.35472745 -3.62094106 -1.70988884 0 0 Z " fill="#B08100" transform="translate(289.25,840.0625)"/>
<path d="M0 0 C4.44870215 -0.39253254 7.14243493 0.84694043 11 3 C8.83032311 3.95465783 7.43671207 4.14401212 5.17578125 3.3984375 C3.4315257 2.64129615 1.71372869 1.82390802 0 1 C0 0.67 0 0.34 0 0 Z " fill="#AD7E00" transform="translate(257,832)"/>
<path d="M0 0 C3.63 0 7.26 0 11 0 C10.01 1.485 10.01 1.485 9 3 C8.01 3 7.02 3 6 3 C6 2.34 6 1.68 6 1 C4.02 1 2.04 1 0 1 C0 0.67 0 0.34 0 0 Z " fill="#FCF17D" transform="translate(461,173)"/>
<path d="M0 0 C0.66 0 1.32 0 2 0 C1.34 2.97 0.68 5.94 0 9 C-0.33 9 -0.66 9 -1 9 C-1.09765625 2.84765625 -1.09765625 2.84765625 -1 1 C-0.67 0.67 -0.34 0.34 0 0 Z " fill="#FDD455" transform="translate(849,752)"/>
<path d="M0 0 C-3.3125 1.625 -3.3125 1.625 -7 3 C-7.99 2.34 -8.98 1.68 -10 1 C-3.375 -1.125 -3.375 -1.125 0 0 Z " fill="#F5CF02" transform="translate(402,337)"/>
</svg>
