<svg width="1053" height="727" viewBox="0 0 1053 727" fill="none" xmlns="http://www.w3.org/2000/svg">
<g clip-path="url(#clip0_16_99)" filter="url(#filter0_d_16_99)">
<rect width="1045" height="719" transform="translate(4)" fill="url(#paint0_linear_16_99)"/>
<path d="M820.257 168.25C827.226 166.785 834.077 171.199 835.622 178.151L848.217 234.805C850.738 246.146 838.251 254.847 828.485 248.554L759.095 203.84C749.329 197.548 752.093 182.581 763.462 180.191L820.257 168.25Z" fill="white" fill-opacity="0.22"/>
<path d="M125.257 512.25C132.226 510.785 139.077 515.199 140.622 522.151L153.217 578.805C155.738 590.146 143.251 598.847 133.485 592.554L64.0951 547.84C54.3291 541.548 57.0926 526.581 68.462 524.191L125.257 512.25Z" fill="white" fill-opacity="0.22"/>
<path d="M533.036 601.486C529.863 595.11 532.409 587.369 538.747 584.122L590.403 557.664C600.743 552.368 612.308 562.261 608.678 573.297L582.884 651.712C579.253 662.748 564.073 663.843 558.897 653.442L533.036 601.486Z" fill="white" fill-opacity="0.22"/>
<path d="M716.036 491.486C712.863 485.11 715.409 477.369 721.747 474.122L773.403 447.664C783.743 442.368 795.308 452.261 791.678 463.297L765.884 541.712C762.253 552.748 747.073 553.843 741.897 543.442L716.036 491.486Z" fill="white" fill-opacity="0.22"/>
<path d="M258.849 250.662C252.179 253.155 244.744 249.817 242.174 243.176L221.231 189.05C217.038 178.215 228.08 167.74 238.679 172.499L313.987 206.307C324.586 211.065 324.096 226.277 313.214 230.344L258.849 250.662Z" fill="white" fill-opacity="0.22"/>
<path d="M924.849 86.662C918.179 89.1551 910.744 85.8173 908.174 79.176L887.23 25.0496C883.038 14.2145 894.08 3.74046 904.679 8.49864L979.987 42.3068C990.585 47.065 990.096 62.2765 979.214 66.3438L924.849 86.662Z" fill="white" fill-opacity="0.22"/>
<path d="M877.849 406.662C871.179 409.155 863.744 405.817 861.174 399.176L840.23 345.05C836.038 334.215 847.08 323.74 857.679 328.499L932.987 362.307C943.585 367.065 943.096 382.277 932.214 386.344L877.849 406.662Z" fill="white" fill-opacity="0.22"/>
<path d="M133.849 376.662C127.179 379.155 119.744 375.817 117.174 369.176L96.2306 315.05C92.038 304.215 103.08 293.74 113.679 298.499L188.987 332.307C199.586 337.065 199.096 352.277 188.214 356.344L133.849 376.662Z" fill="white" fill-opacity="0.22"/>
<path d="M558.849 327.662C552.179 330.155 544.744 326.817 542.174 320.176L521.231 266.05C517.038 255.215 528.08 244.74 538.679 249.499L613.987 283.307C624.586 288.065 624.096 303.277 613.214 307.344L558.849 327.662Z" fill="white" fill-opacity="0.22"/>
<path d="M530.849 96.662C524.179 99.1551 516.744 95.8173 514.174 89.176L493.231 35.0496C489.038 24.2145 500.08 13.7405 510.679 18.4986L585.987 52.3068C596.586 57.065 596.096 72.2765 585.214 76.3438L530.849 96.662Z" fill="white" fill-opacity="0.22"/>
<ellipse cx="318" cy="526.5" rx="21" ry="17.5" fill="white" fill-opacity="0.22"/>
<ellipse cx="636" cy="508.5" rx="21" ry="17.5" fill="white" fill-opacity="0.22"/>
<ellipse cx="666" cy="622.5" rx="21" ry="17.5" fill="white" fill-opacity="0.22"/>
<ellipse cx="470" cy="492.5" rx="21" ry="17.5" fill="white" fill-opacity="0.22"/>
<path d="M331.036 384.486C327.863 378.11 330.409 370.369 336.747 367.122L388.403 340.664C398.743 335.368 410.308 345.261 406.678 356.297L380.884 434.712C377.253 445.748 362.073 446.843 356.897 436.442L331.036 384.486Z" fill="white" fill-opacity="0.22"/>
<ellipse cx="828" cy="626.5" rx="21" ry="17.5" fill="white" fill-opacity="0.22"/>
<ellipse cx="45" cy="468.5" rx="21" ry="17.5" fill="white" fill-opacity="0.22"/>
<ellipse cx="230" cy="609.5" rx="21" ry="17.5" fill="white" fill-opacity="0.22"/>
<ellipse cx="411" cy="618.5" rx="21" ry="17.5" fill="white" fill-opacity="0.22"/>
<path d="M1050.34 333.635C1047.83 334.062 1045.25 334.014 1042.77 333.494C1040.29 332.975 1037.95 331.993 1035.88 330.606C1033.82 329.219 1032.06 327.453 1030.73 325.41C1029.39 323.366 1028.49 321.085 1028.09 318.696C1027.68 316.307 1027.78 313.857 1028.36 311.487C1028.95 309.116 1030.03 306.871 1031.52 304.88C1033.01 302.889 1034.9 301.19 1037.07 299.882C1039.24 298.573 1041.66 297.679 1044.17 297.252L1047.26 315.443L1050.34 333.635Z" fill="white" fill-opacity="0.22"/>
<path d="M6.45864 149.006C9.01247 149.007 11.5411 149.485 13.9003 150.413C16.2594 151.341 18.4028 152.701 20.2081 154.415C22.0134 156.128 23.4452 158.163 24.4218 160.402C25.3984 162.641 25.9007 165.04 25.9 167.463C25.8992 169.886 25.3954 172.285 24.4174 174.524C23.4394 176.762 22.0063 178.795 20.1999 180.508C18.3936 182.221 16.2493 183.579 13.8896 184.506C11.5299 185.432 9.00091 185.909 6.44709 185.908L6.45286 167.457L6.45864 149.006Z" fill="white" fill-opacity="0.22"/>
<path d="M7.44422 283.342C10.129 283.297 12.795 283.704 15.2901 284.54C17.7852 285.375 20.0605 286.622 21.986 288.211C23.9116 289.799 25.4497 291.698 26.5126 293.797C27.5755 295.897 28.1423 298.157 28.1806 300.449C28.219 302.74 27.7282 305.018 26.7362 307.152C25.7442 309.286 24.2705 311.235 22.3992 312.887C20.528 314.539 18.2957 315.862 15.83 316.78C13.3643 317.699 10.7133 318.195 8.02857 318.24L7.7364 300.791L7.44422 283.342Z" fill="white" fill-opacity="0.22"/>
<ellipse cx="931" cy="526.5" rx="21" ry="17.5" fill="white" fill-opacity="0.22"/>
<ellipse cx="112" cy="168.5" rx="21" ry="17.5" fill="white" fill-opacity="0.22"/>
<ellipse cx="786" cy="121.5" rx="21" ry="17.5" fill="white" fill-opacity="0.22"/>
<ellipse cx="49" cy="607.5" rx="21" ry="17.5" fill="white" fill-opacity="0.22"/>
<ellipse cx="566" cy="388.5" rx="21" ry="17.5" fill="white" fill-opacity="0.22"/>
<ellipse cx="238" cy="64.5" rx="21" ry="17.5" fill="white" fill-opacity="0.22"/>
<ellipse cx="350" cy="156.5" rx="21" ry="17.5" fill="white" fill-opacity="0.22"/>
<ellipse cx="731" cy="349.5" rx="21" ry="17.5" fill="white" fill-opacity="0.22"/>
<ellipse cx="481" cy="210.5" rx="21" ry="17.5" fill="white" fill-opacity="0.22"/>
<ellipse cx="584" cy="155.5" rx="21" ry="17.5" fill="white" fill-opacity="0.22"/>
<ellipse cx="439" cy="66.5" rx="21" ry="17.5" fill="white" fill-opacity="0.22"/>
<ellipse cx="663" cy="49.5" rx="21" ry="17.5" fill="white" fill-opacity="0.22"/>
<ellipse cx="112" cy="48.5" rx="21" ry="17.5" fill="white" fill-opacity="0.22"/>
<ellipse cx="939" cy="175.5" rx="21" ry="17.5" fill="white" fill-opacity="0.22"/>
<ellipse cx="666" cy="233.5" rx="21" ry="17.5" fill="white" fill-opacity="0.22"/>
<path d="M952.303 718.992C952.263 716.307 952.701 713.642 953.592 711.148C954.482 708.653 955.807 706.379 957.492 704.455C959.177 702.532 961.189 700.995 963.412 699.935C965.635 698.874 968.026 698.31 970.449 698.274C972.872 698.238 975.279 698.731 977.532 699.725C979.786 700.719 981.842 702.195 983.583 704.068C985.325 705.941 986.717 708.175 987.681 710.642C988.645 713.108 989.161 715.76 989.201 718.445L970.752 718.719L952.303 718.992Z" fill="white" fill-opacity="0.22"/>
<path d="M709.303 716.992C709.264 714.307 709.701 711.642 710.592 709.148C711.482 706.653 712.807 704.379 714.492 702.455C716.177 700.532 718.189 698.995 720.412 697.935C722.635 696.874 725.026 696.31 727.449 696.274C729.872 696.238 732.279 696.731 734.532 697.725C736.786 698.719 738.842 700.195 740.583 702.068C742.325 703.941 743.717 706.175 744.681 708.642C745.645 711.108 746.162 713.76 746.201 716.445L727.752 716.719L709.303 716.992Z" fill="white" fill-opacity="0.22"/>
<path d="M1049.51 612.482C1046.83 612.56 1044.16 612.16 1041.65 611.306C1039.14 610.451 1036.85 609.158 1034.9 607.501C1032.96 605.844 1031.39 603.854 1030.3 601.647C1029.21 599.439 1028.61 597.056 1028.54 594.634C1028.47 592.212 1028.93 589.798 1029.89 587.531C1030.85 585.263 1032.3 583.186 1034.14 581.418C1035.99 579.651 1038.21 578.226 1040.66 577.227C1043.11 576.228 1045.75 575.674 1048.44 575.595L1048.98 594.039L1049.51 612.482Z" fill="white" fill-opacity="0.22"/>
<path d="M28.4358 718.229C28.3786 715.544 28.799 712.876 29.6732 710.376C30.5474 707.876 31.8581 705.594 33.5306 703.659C35.2031 701.724 37.2045 700.175 39.4207 699.1C41.6369 698.025 44.0244 697.445 46.4468 697.393C48.8693 697.342 51.2793 697.819 53.5393 698.799C55.7993 699.778 57.865 701.241 59.6184 703.103C61.3718 704.964 62.7786 707.189 63.7585 709.649C64.7384 712.11 65.2723 714.758 65.3295 717.442L46.8826 717.836L28.4358 718.229Z" fill="white" fill-opacity="0.22"/>
</g>
<defs>
<filter id="filter0_d_16_99" x="0" y="0" width="1053" height="727" filterUnits="userSpaceOnUse" color-interpolation-filters="sRGB">
<feFlood flood-opacity="0" result="BackgroundImageFix"/>
<feColorMatrix in="SourceAlpha" type="matrix" values="0 0 0 0 0 0 0 0 0 0 0 0 0 0 0 0 0 0 127 0" result="hardAlpha"/>
<feOffset dy="4"/>
<feGaussianBlur stdDeviation="2"/>
<feComposite in2="hardAlpha" operator="out"/>
<feColorMatrix type="matrix" values="0 0 0 0 0 0 0 0 0 0 0 0 0 0 0 0 0 0 0.25 0"/>
<feBlend mode="normal" in2="BackgroundImageFix" result="effect1_dropShadow_16_99"/>
<feBlend mode="normal" in="SourceGraphic" in2="effect1_dropShadow_16_99" result="shape"/>
</filter>
<linearGradient id="paint0_linear_16_99" x1="522.5" y1="719" x2="522.5" y2="0" gradientUnits="userSpaceOnUse">
<stop stop-color="#997500"/>
<stop offset="0.0001" stop-color="#FFC400"/>
</linearGradient>
<clipPath id="clip0_16_99">
<rect width="1045" height="719" fill="white" transform="translate(4)"/>
</clipPath>
</defs>
</svg>
