<?xml version="1.0" encoding="UTF-8"?>
<svg version="1.1" xmlns="http://www.w3.org/2000/svg" width="1024" height="1024">
<path d="M0 0 C337.92 0 675.84 0 1024 0 C1024 337.92 1024 675.84 1024 1024 C686.08 1024 348.16 1024 0 1024 C0 686.08 0 348.16 0 0 Z " fill="#000000" transform="translate(0,0)"/>
<path d="M0 0 C1.85129159 -0.00159075 3.70258259 -0.00405698 5.55387199 -0.00731641 C10.6111974 -0.01369605 15.66844207 -0.00768811 20.72576213 0.00044787 C26.19137361 0.00705144 31.65697646 0.00207063 37.12258911 -0.00143433 C47.81737946 -0.00646594 58.51213879 -0.00084785 69.20692529 0.00841597 C81.66673765 0.0188193 94.12654336 0.01872927 106.58635925 0.01824339 C129.49073717 0.01772808 152.3951014 0.0277532 175.29947357 0.04274584 C196.19329357 0.05637203 217.08710211 0.06260692 237.98092651 0.06193542 C239.32288528 0.06189501 240.66484405 0.06185465 242.00680281 0.06181435 C242.6702534 0.06179399 243.33370399 0.06177364 244.01725914 0.06175268 C269.25287154 0.06099106 294.48847849 0.06664982 319.72408918 0.07584528 C328.40587413 0.07885903 337.0876581 0.07992452 345.76944351 0.08037758 C356.35034066 0.08106036 366.93122875 0.08553416 377.51212205 0.09471039 C382.90888841 0.09932083 388.30564319 0.10237664 393.70241165 0.10111618 C398.64557524 0.10001765 403.58871328 0.10356083 408.53187154 0.1107647 C410.3169957 0.11257129 412.1021225 0.11271494 413.88724674 0.11099742 C426.04096615 0.10060159 437.88416889 0.18054422 449.69039917 3.37223816 C450.50065552 3.58960632 451.31091187 3.80697449 452.14572144 4.03092957 C484.57311846 13.1274626 511.35444373 35.06897751 527.81930542 64.25505066 C539.49575327 85.98651726 542.98724663 108.83652593 542.8838501 133.24635315 C542.88731801 135.06697481 542.89209009 136.88759436 542.89803183 138.70820963 C542.91041625 143.64870188 542.9044295 148.5890176 542.89507318 153.52951002 C542.88823075 158.88206067 542.89878949 164.23458286 542.90701294 169.58712769 C542.92029806 180.04870333 542.91749576 190.51021411 542.90877502 200.97179221 C542.9019775 209.4813337 542.90109066 217.99085711 542.90434647 226.50040054 C542.90480617 227.71527315 542.90526586 228.93014575 542.90573949 230.18183268 C542.90669875 232.65047291 542.90767139 235.11911315 542.90865727 237.58775337 C542.91719606 260.69446518 542.90740117 283.80114119 542.89125617 306.90784712 C542.87785777 326.69547456 542.8801801 346.48304918 542.89401245 366.27067566 C542.91010087 389.29618085 542.91636867 412.32165472 542.90717566 435.34716475 C542.9062201 437.80692458 542.90527699 440.26668441 542.90434647 442.72644424 C542.90388364 443.93642145 542.90342081 445.14639866 542.90294396 446.39304184 C542.90036359 454.88239566 542.90470449 463.37172945 542.91178513 471.86108017 C542.92023681 482.2211953 542.9178435 492.58124231 542.90194289 502.94134973 C542.89410875 508.21804659 542.89088469 513.49463028 542.90089035 518.77132607 C542.97965756 564.29951926 538.5363088 601.94526441 505.50289917 636.24723816 C504.92153198 636.89176941 504.34016479 637.53630066 503.74118042 638.20036316 C486.16878461 657.14491078 458.81749341 667.98461428 433.50289917 670.24723816 C430.78905552 670.33397064 428.10199187 670.38556114 425.38949013 670.37866592 C424.23773437 670.38174487 424.23773437 670.38174487 423.06271082 670.38488603 C420.50472203 670.39051429 417.94678779 670.38910398 415.38879395 670.38768005 C413.53015722 670.3902661 411.67152105 670.39327992 409.81288564 670.39668345 C404.7163873 670.40472878 399.61990306 670.40654165 394.52339911 670.40728092 C389.02211618 670.40913581 383.52084049 670.41668538 378.01956177 670.42341614 C365.9944101 670.43698296 353.96926177 670.44302175 341.94410372 670.4474268 C334.43025804 670.4501923 326.91641363 670.45443024 319.40256882 670.45893097 C298.58428091 670.47112202 277.7659938 670.48145665 256.94770241 670.48480606 C255.60248572 670.48502769 254.25726904 670.48524947 252.91205236 670.48547141 C251.56367876 670.48569205 250.21530516 670.48591253 248.86693156 670.48613286 C246.16209133 670.4865754 243.45725111 670.48702252 240.75241089 670.48747253 C240.08177239 670.48758193 239.41113389 670.48769132 238.72017301 670.48780402 C216.99029301 670.49143208 195.26044641 670.50734371 173.5305792 670.5306629 C150.52953431 670.55530087 127.52850312 670.56897406 104.52744329 670.57017398 C92.00002359 670.57108914 79.47264764 670.57680126 66.94524002 670.59499359 C56.27516425 670.61043445 45.60514576 670.61549161 34.93506093 670.60725549 C29.49678582 670.60336294 24.0586259 670.60421002 18.62036514 670.61831284 C13.62968928 670.63113588 8.63921419 670.62978124 3.64853828 670.61772212 C1.85507406 670.61577956 0.0615952 670.61877582 -1.73184852 670.62756649 C-17.50854274 670.69992286 -33.27388492 669.37048093 -48.24710083 664.05973816 C-49.55312256 663.60800232 -49.55312256 663.60800232 -50.88552856 663.1471405 C-80.78702424 652.43837345 -104.83590636 629.55281429 -118.68460083 601.18473816 C-125.23589325 587.23797296 -129.66363223 571.75038719 -129.63132191 556.30183792 C-129.63367414 555.52786657 -129.63602637 554.75389522 -129.63844988 553.95647019 C-129.64510154 551.3655734 -129.64468282 548.77472721 -129.64427185 546.18382263 C-129.64757288 544.30628787 -129.65129895 542.42875381 -129.65541333 540.55122066 C-129.6654145 535.39319746 -129.6691471 530.23518591 -129.67180264 525.0771544 C-129.67571134 519.51312152 -129.68528935 513.94909781 -129.6940155 508.3850708 C-129.71376499 494.94766086 -129.72384467 481.51025019 -129.73274329 468.07282937 C-129.73712909 461.74046983 -129.74249518 455.40811113 -129.74773216 449.07575226 C-129.76474371 428.01735229 -129.77926147 406.95895267 -129.7864809 385.90054703 C-129.78695565 384.53926136 -129.78743154 383.17797568 -129.78790857 381.81669001 C-129.78814494 381.14164119 -129.78838132 380.46659236 -129.78862486 379.77108751 C-129.789826 376.35119111 -129.79104147 372.93129471 -129.79226685 369.51139832 C-129.792507 368.83271983 -129.79274715 368.15404135 -129.79299457 367.45479685 C-129.80088089 345.46903121 -129.82429917 323.48331964 -129.85682279 301.4975776 C-129.89117781 278.23114552 -129.91083625 254.9647495 -129.91412514 231.69828773 C-129.91628721 219.02438715 -129.92499132 206.35056603 -129.95058632 193.67668915 C-129.97233969 182.88029211 -129.98032097 172.08399383 -129.97061954 161.28757736 C-129.96608816 155.78447357 -129.96789324 150.28157331 -129.98738098 144.7784977 C-130.00510891 139.72847995 -130.00393744 134.67881279 -129.98848369 129.62879083 C-129.98612214 127.81373028 -129.99035455 125.99864484 -130.00231234 124.18362215 C-130.10059231 108.26427817 -128.07174231 92.68420671 -121.74710083 77.93473816 C-121.40203491 77.1069989 -121.05696899 76.27925964 -120.70144653 75.42643738 C-107.99483707 45.66325997 -84.17758021 21.16453032 -53.99710083 8.93473816 C-36.12069951 2.19843244 -18.94804431 -0.05934621 0 0 Z " fill="#F5BF0E" transform="translate(315.4971008300781,172.7527618408203)"/>
<path d="M0 0 C31.74804117 27.02644851 51.21854621 61.10384558 60.59692383 101.58154297 C60.78061523 102.3673877 60.96430664 103.15323242 61.15356445 103.96289062 C70.84828308 147.4829074 58.8642979 194.34414966 35.59692383 231.58154297 C30.34696469 239.70935154 24.52502415 247.07851712 17.89770508 254.12841797 C15.88884994 256.27028729 13.98562289 258.45956609 12.09692383 260.70654297 C-9.52663968 285.38343374 -42.00346987 301.71799994 -73.40307617 309.58154297 C-74.21309082 309.79182129 -75.02310547 310.00209961 -75.85766602 310.21875 C-88.3108006 313.33635336 -100.56865282 313.94743282 -113.34057617 313.95654297 C-114.0764798 313.95853699 -114.81238342 313.96053101 -115.57058716 313.96258545 C-129.5394985 313.95829566 -143.0472577 312.5750148 -156.59057617 308.95654297 C-157.56397949 308.69784424 -158.53738281 308.43914551 -159.5402832 308.17260742 C-193.54822155 298.79405842 -225.96598338 279.08507607 -248.40307617 251.58154297 C-249.06243164 250.79070312 -249.06243164 250.79070312 -249.73510742 249.98388672 C-256.72842419 241.5882162 -263.01660229 233.12236209 -268.40307617 223.58154297 C-268.94593262 222.6430249 -268.94593262 222.6430249 -269.49975586 221.68554688 C-293.03053903 180.79253623 -297.46861551 133.68226547 -286.15795898 88.37841797 C-282.57488954 75.10298345 -276.98643062 62.61861862 -270.40307617 50.58154297 C-269.89719971 49.64665039 -269.89719971 49.64665039 -269.38110352 48.69287109 C-263.5395251 38.03552537 -256.32840174 28.76693119 -248.40307617 19.58154297 C-247.93160156 19.0341748 -247.46012695 18.48680664 -246.97436523 17.92285156 C-221.88806138 -10.96192313 -185.90781764 -31.1927729 -148.40307617 -38.41845703 C-147.77014648 -38.55380859 -147.1372168 -38.68916016 -146.48510742 -38.82861328 C-95.06916545 -49.69941244 -39.8767137 -33.28565563 0 0 Z " fill="#000000" transform="translate(628.403076171875,370.41845703125)"/>
<path d="M0 0 C12.98941892 8.40616054 18.73759211 20.75349456 21.90979004 35.36593628 C23.64122821 44.55724785 23.23709496 53.94156392 23.140625 63.25390625 C23.13314467 65.40436776 23.12746024 67.55483618 23.12347412 69.70530701 C23.1083587 75.30634094 23.06920189 80.90694565 23.0246582 86.5078125 C22.97611596 93.25951012 22.95810426 100.011353 22.93484497 106.76317596 C22.89633967 116.96741385 22.81958786 127.170714 22.75 137.375 C8.56 137.375 -5.63 137.375 -20.25 137.375 C-20.28738281 131.64382813 -20.32476563 125.91265625 -20.36328125 120.0078125 C-20.39358203 116.36194996 -20.42474366 112.71613498 -20.45898438 109.0703125 C-20.5131684 103.29234304 -20.56428364 97.51446767 -20.59643555 91.73632812 C-20.62257776 87.07421805 -20.66305632 82.41242665 -20.71318626 77.75051498 C-20.72978148 75.9781073 -20.74134125 74.20564459 -20.74761391 72.43317032 C-20.60813774 55.29035164 -20.60813774 55.29035164 -28.25 40.375 C-32.89174655 35.8414807 -37.34268266 34.97951584 -43.75 34.75 C-50.12950273 34.99097525 -54.71023122 35.7228607 -59.25 40.375 C-64.90090166 47.33667782 -66.54300778 54.8261732 -66.56884766 63.69702148 C-66.58391609 64.89824394 -66.58391609 64.89824394 -66.59928894 66.12373352 C-66.6299657 68.74784687 -66.64711258 71.37185894 -66.6640625 73.99609375 C-66.68278665 75.82455813 -66.70236099 77.65301398 -66.7227478 79.48146057 C-66.77394329 84.27683471 -66.81363617 89.07223682 -66.85089111 93.86773682 C-66.89807259 99.63068583 -66.95961627 105.39349741 -67.01873779 111.15633392 C-67.10679656 119.89583342 -67.17667073 128.63530861 -67.25 137.375 C-81.77 137.375 -96.29 137.375 -111.25 137.375 C-111.25 90.845 -111.25 44.315 -111.25 -3.625 C-96.73 -3.625 -82.21 -3.625 -67.25 -3.625 C-66.755 1.82 -66.755 1.82 -66.25 7.375 C-65.36699219 6.77171875 -64.48398437 6.1684375 -63.57421875 5.546875 C-43.76597259 -7.73623661 -21.85708683 -11.78207437 0 0 Z " fill="#FEC700" transform="translate(603.25,467.625)"/>
<path d="M0 0 C14.52 0 29.04 0 44 0 C44 46.53 44 93.06 44 141 C29.48 141 14.96 141 0 141 C0 94.47 0 47.94 0 0 Z " fill="#FEC700" transform="translate(420,464)"/>
<path d="M0 0 C1.85474471 -0.00202938 3.70948836 -0.00537462 5.56422865 -0.00990558 C10.61255563 -0.01847936 15.66069592 -0.00855803 20.70900655 0.00463676 C26.17182205 0.01560364 31.63462164 0.00911094 37.09744263 0.00485229 C47.77833264 -0.00076242 58.45915045 0.00949751 69.14002816 0.02514026 C81.58678968 0.04272851 94.03353744 0.04410053 106.48030944 0.04475585 C128.6890055 0.04644144 150.89767205 0.06220574 173.10635376 0.08624268 C194.64411685 0.10954834 216.1818594 0.12371195 237.71963501 0.1272583 C238.71561612 0.12742557 238.71561612 0.12742557 239.73171806 0.12759623 C242.40878391 0.1280451 245.08584975 0.12848708 247.7629156 0.12892865 C249.76307804 0.12925903 251.76324049 0.1295919 253.76340294 0.12992477 C255.0794562 0.13014076 256.39550945 0.13035675 257.75144311 0.13057928 C278.29938094 0.13428177 298.84731544 0.14563974 319.3952496 0.15805517 C326.83532815 0.16248555 334.27540639 0.16592582 341.71548574 0.1686773 C353.51338279 0.17311375 365.3112675 0.18090218 377.10915677 0.19545171 C382.4978489 0.20204689 387.88653021 0.20712273 393.27522659 0.20791245 C398.21083056 0.20870187 403.14640715 0.21413271 408.0820026 0.22323194 C409.86431475 0.22573092 411.64663018 0.22657709 413.4289438 0.22557315 C425.5741951 0.22005472 437.41154364 0.30306765 449.2093811 3.49249268 C450.01963745 3.70986084 450.8298938 3.927229 451.66470337 4.15118408 C484.09210039 13.24771711 510.87342566 35.18923203 527.33828735 64.37530518 C539.0147352 86.10677178 542.50622856 108.95678044 542.40283203 133.36660767 C542.40629994 135.18722933 542.41107202 137.00784888 542.41701376 138.82846415 C542.42939818 143.7689564 542.42341144 148.70927212 542.41405511 153.64976454 C542.40721268 159.00231519 542.41777142 164.35483738 542.42599487 169.7073822 C542.43927999 180.16895784 542.43647769 190.63046862 542.42775695 201.09204672 C542.42095943 209.60158821 542.4200726 218.11111163 542.4233284 226.62065506 C542.4237881 227.83552766 542.4242478 229.05040027 542.42472143 230.3020872 C542.42568068 232.77072743 542.42665333 235.23936766 542.4276392 237.70800789 C542.43617799 260.8147197 542.4263831 283.9213957 542.4102381 307.02810164 C542.3968397 326.81572908 542.39916203 346.60330369 542.41299438 366.39093018 C542.42908281 389.41643537 542.4353506 412.44190923 542.42615759 435.46741927 C542.42520203 437.92717909 542.42425892 440.38693892 542.4233284 442.84669876 C542.42286557 444.05667597 542.42240275 445.26665318 542.42192589 446.51329636 C542.41934553 455.00265018 542.42368642 463.49198397 542.43076706 471.98133469 C542.43921875 482.34144981 542.43682543 492.70149683 542.42092483 503.06160425 C542.41309068 508.33830111 542.40986662 513.6148848 542.41987228 518.89158058 C542.50309692 566.99620909 536.59360965 604.60878845 501.3343811 640.11749268 C500.1896936 641.23124268 500.1896936 641.23124268 499.0218811 642.36749268 C498.3618811 642.03749268 497.7018811 641.70749268 497.0218811 641.36749268 C497.0218811 640.70749268 497.0218811 640.04749268 497.0218811 639.36749268 C498.49883602 638.08318405 499.97994248 636.8016856 501.5140686 635.58624268 C503.48567262 633.99261456 504.88098797 632.64927895 506.0218811 630.36749268 C506.6818811 630.36749268 507.3418811 630.36749268 508.0218811 630.36749268 C508.6818811 629.04749268 509.3418811 627.72749268 510.0218811 626.36749268 C510.6818811 626.69749268 511.3418811 627.02749268 512.0218811 627.36749268 C512.0218811 626.37749268 512.0218811 625.38749268 512.0218811 624.36749268 C513.0218811 623.36749268 514.0218811 622.36749268 515.0218811 621.36749268 C515.69537272 619.70357222 516.362797 618.0371724 517.0218811 616.36749268 C517.6818811 616.03749268 518.3418811 615.70749268 519.0218811 615.36749268 C519.5168811 614.52186768 520.0118811 613.67624268 520.5218811 612.80499268 C521.0168811 612.00061768 521.5118811 611.19624268 522.0218811 610.36749268 C522.6818811 610.36749268 523.3418811 610.36749268 524.0218811 610.36749268 C524.6818811 607.72749268 525.3418811 605.08749268 526.0218811 602.36749268 C526.6818811 602.36749268 527.3418811 602.36749268 528.0218811 602.36749268 C528.14305298 601.71522705 528.26422485 601.06296143 528.3890686 600.39093018 C529.31132099 595.58102925 530.32355387 590.97723802 532.0218811 586.36749268 C532.6818811 586.36749268 533.3418811 586.36749268 534.0218811 586.36749268 C534.13145142 585.46128174 534.24102173 584.5550708 534.35391235 583.62139893 C534.51246704 582.40323486 534.67102173 581.1850708 534.8343811 579.92999268 C534.98520142 578.73503174 535.13602173 577.5400708 535.29141235 576.30889893 C535.728169 573.42590051 536.37160969 571.53859799 537.54372597 568.76055527 C540.08555057 561.19753231 539.43450059 553.0219295 539.40283203 545.13708496 C539.40629072 543.26592033 539.41105671 541.39475773 539.41701376 539.52359939 C539.42952477 534.39266135 539.4233528 529.26189095 539.41405511 524.13095236 C539.40726522 518.59296635 539.41774569 513.0550091 539.42599487 507.51702881 C539.43933606 496.67128246 539.43645242 485.8255984 539.42775695 474.97984961 C539.42098095 466.16295027 539.42006333 457.34606837 539.4233284 448.52916718 C539.4237881 447.27412598 539.4242478 446.01908478 539.42472143 444.72601204 C539.42568061 442.17634234 539.42665325 439.62667266 539.4276392 437.07700297 C539.4359507 413.8477364 539.42733088 390.61850626 539.41161141 367.3892474 C539.39738185 346.20066253 539.39864291 325.01213176 539.41299438 303.82354736 C539.42907388 280.00421463 539.43536371 256.18491173 539.42615759 232.36557174 C539.42520196 229.82407491 539.42425885 227.28257808 539.4233284 224.74108124 C539.42263416 222.86544837 539.42263416 222.86544837 539.42192589 220.95192392 C539.41933812 212.14989022 539.42370257 203.34787575 539.43076706 194.54584503 C539.43919215 183.81264112 539.43688093 173.079503 539.42092483 162.34630659 C539.41305474 156.87232645 539.40992895 151.39845589 539.41987228 145.92447662 C539.42884616 140.90819922 539.42384199 135.89213245 539.40793963 130.87587401 C539.40460313 129.06636996 539.40626025 127.25684792 539.41356699 125.44735554 C539.45141189 115.29187381 538.77747388 106.22436246 536.0218811 96.36749268 C535.67619228 94.78681093 535.34026433 93.20389983 535.0218811 91.61749268 C534.17686074 87.73612795 532.95913376 84.04564607 531.6078186 80.31280518 C531.0218811 78.36749268 531.0218811 78.36749268 531.0218811 75.36749268 C530.3618811 75.36749268 529.7018811 75.36749268 529.0218811 75.36749268 C528.37554835 73.59684156 527.72983281 71.82596514 527.0843811 70.05499268 C526.72473267 69.06885986 526.36508423 68.08272705 525.99453735 67.06671143 C525.31302145 65.17543638 524.65760001 63.27464938 524.0218811 61.36749268 C523.3618811 61.03749268 522.7018811 60.70749268 522.0218811 60.36749268 C521.30028686 58.72386134 520.6283669 57.05698881 520.0218811 55.36749268 C519.3618811 55.36749268 518.7018811 55.36749268 518.0218811 55.36749268 C516.52663933 53.09472517 515.23788396 50.79949838 514.0218811 48.36749268 C513.3618811 48.03749268 512.7018811 47.70749268 512.0218811 47.36749268 C511.3968811 45.30499268 511.3968811 45.30499268 511.0218811 43.36749268 C510.3618811 43.36749268 509.7018811 43.36749268 509.0218811 43.36749268 C506.3968811 40.99249268 506.3968811 40.99249268 504.0218811 38.36749268 C504.0218811 37.70749268 504.0218811 37.04749268 504.0218811 36.36749268 C503.3618811 36.36749268 502.7018811 36.36749268 502.0218811 36.36749268 C502.0218811 35.70749268 502.0218811 35.04749268 502.0218811 34.36749268 C501.4650061 34.11999268 500.9081311 33.87249268 500.3343811 33.61749268 C498.0218811 32.36749268 498.0218811 32.36749268 495.4593811 30.30499268 C493.10162091 28.20364919 493.10162091 28.20364919 490.0218811 27.36749268 C487.8343811 25.42999268 487.8343811 25.42999268 486.0218811 23.36749268 C486.0218811 22.70749268 486.0218811 22.04749268 486.0218811 21.36749268 C485.0318811 21.36749268 484.0418811 21.36749268 483.0218811 21.36749268 C483.0218811 20.70749268 483.0218811 20.04749268 483.0218811 19.36749268 C481.9081311 19.24374268 480.7943811 19.11999268 479.6468811 18.99249268 C476.0218811 18.36749268 476.0218811 18.36749268 474.0218811 16.36749268 C473.3618811 16.03749268 472.7018811 15.70749268 472.0218811 15.36749268 C472.0218811 14.70749268 472.0218811 14.04749268 472.0218811 13.36749268 C471.3618811 13.26436768 470.7018811 13.16124268 470.0218811 13.05499268 C467.55393159 12.48942091 465.48151274 11.79862008 463.1468811 10.86749268 C460.4451365 9.81315332 458.38744426 9.27844891 455.4593811 8.86749268 C452.0218811 8.36749268 452.0218811 8.36749268 448.6468811 6.86749268 C427.95794488 -1.69344645 397.14071656 3.22257808 375.0484792 3.23676801 C369.77737943 3.23905232 364.50628283 3.23552773 359.23518372 3.23278809 C348.94203108 3.22836495 338.64888578 3.22929099 328.35573287 3.23220073 C319.99199612 3.23446657 311.62826142 3.23476218 303.26452446 3.23367691 C301.47359313 3.23344706 301.47359313 3.23344706 299.64648138 3.23321257 C297.22057124 3.23289282 294.79466111 3.23256861 292.36875098 3.23223998 C269.68073234 3.2293958 246.99271775 3.23265647 224.30469977 3.23804034 C204.84038905 3.24251606 185.37608429 3.24172409 165.91177368 3.23712158 C143.27717807 3.23177191 120.64258598 3.22966133 98.00798982 3.23273385 C95.59599364 3.23305238 93.18399745 3.23336676 90.77200127 3.23367691 C89.58538034 3.23383119 88.39875942 3.23398546 87.17618029 3.23414441 C78.81551747 3.23500774 70.45485689 3.23355083 62.09419441 3.23119736 C51.91671027 3.2283952 41.73923385 3.22914682 31.5617506 3.2344781 C26.36996803 3.23710812 21.17819834 3.23813183 15.98641586 3.23482895 C11.23564916 3.23185222 6.48490728 3.23348182 1.73414283 3.2388065 C0.01463366 3.23992467 -1.7048776 3.23935275 -3.42438542 3.23693071 C-5.76013111 3.23389261 -8.09579162 3.23700653 -10.43153286 3.24165154 C-11.72926268 3.24181389 -13.0269925 3.24197624 -14.36404747 3.24214351 C-17.97325945 3.36732413 -21.41448135 3.79805657 -24.9781189 4.36749268 C-26.1537439 4.51186768 -27.3293689 4.65624268 -28.5406189 4.80499268 C-31.88609318 5.35243392 -34.78874725 6.23792355 -37.9781189 7.36749268 C-40.30621432 8.05222662 -42.64049667 8.71602419 -44.9781189 9.36749268 C-45.90882202 9.62917236 -46.83952515 9.89085205 -47.7984314 10.16046143 C-48.78585327 10.43503174 -49.77327515 10.70960205 -50.7906189 10.99249268 C-52.19247437 11.38307861 -52.19247437 11.38307861 -53.62265015 11.78155518 C-55.9781189 12.36749268 -55.9781189 12.36749268 -57.9781189 12.36749268 C-57.9781189 13.02749268 -57.9781189 13.68749268 -57.9781189 14.36749268 C-61.71375168 17.08431652 -65.53431082 18.23475728 -69.9781189 19.36749268 C-68.76609829 15.73143084 -67.36027668 15.21424059 -64.06625366 13.51275635 C-63.37716919 13.17606934 -62.68808472 12.83938232 -61.9781189 12.49249268 C-60.90485352 11.96522583 -60.90485352 11.96522583 -59.80990601 11.42730713 C-40.92399644 2.46662892 -20.6665343 -0.10195535 0 0 Z " fill="#F2D668" transform="translate(315.9781188964844,172.63250732421875)"/>
<path d="M0 0 C7.41566211 4.20220853 12.2407181 10.20954227 15.08984375 18.2265625 C17.19463544 27.06917846 16.46269994 35.21095426 11.75 43 C7.77170742 49.25160263 0.93416763 53.38722767 -6.25 55 C-13.27719988 55.88349708 -19.03798006 54.32981737 -25.25 51 C-31.82703223 45.73837421 -36.097998 38.32513448 -37.25 30 C-37.35699219 29.23945313 -37.46398437 28.47890625 -37.57421875 27.6953125 C-38.11913892 20.11486754 -35.39161249 14.24319505 -31.25 8 C-23.03095723 -1.39793578 -11.73206772 -5.28568043 0 0 Z " fill="#FDC600" transform="translate(454.25,393)"/>
<path d="M0 0 C1.85902087 -0.00202935 3.71804067 -0.00537454 5.57705712 -0.00990558 C10.63696763 -0.01847943 15.69669188 -0.00855807 20.75658607 0.00463676 C26.23155686 0.01560311 31.70651177 0.00911112 37.18148804 0.00485229 C47.88442803 -0.00076189 58.58729596 0.00949566 69.29022369 0.02514026 C81.75648305 0.04272277 94.22272866 0.04410038 106.68899849 0.04475585 C128.92453654 0.04644126 151.16004512 0.0622053 173.39556885 0.08624268 C194.97434756 0.10956514 216.55310575 0.12371425 238.13189697 0.1272583 C238.79758276 0.12736982 239.46326855 0.12748133 240.14912663 0.12759623 C242.83296605 0.12804509 245.51680548 0.12848707 248.20064491 0.12892865 C249.53816412 0.12914903 250.87568334 0.12937033 252.21320255 0.12959253 C254.21325931 0.12992435 256.21331606 0.13025182 258.21337281 0.13057928 C278.78448311 0.13427752 299.35559007 0.14563425 319.9266967 0.15805517 C327.38322844 0.16249139 334.83975986 0.16592922 342.29629239 0.1686773 C354.11413175 0.17310543 365.93195874 0.18086542 377.74979028 0.19545171 C383.14989063 0.20206557 388.54998006 0.20712575 393.95008469 0.20791245 C398.88907561 0.20869776 403.82803888 0.21408853 408.76702121 0.22323194 C410.55730192 0.22574566 412.34758594 0.22657101 414.13786814 0.22557315 C416.56433517 0.22448152 418.9907149 0.22948607 421.41717148 0.23606491 C422.4682999 0.2334107 422.4682999 0.2334107 423.54066324 0.23070288 C427.14598731 0.24745585 430.47453816 0.51673681 433.98150635 1.36749268 C433.98150635 1.69749268 433.98150635 2.02749268 433.98150635 2.36749268 C411.64589124 3.42618594 389.34389745 3.50187503 366.98805463 3.46889925 C361.81931359 3.46242925 356.65057125 3.46194878 351.48182678 3.46072388 C342.55853048 3.4578592 333.63524264 3.45145735 324.7119503 3.44265747 C311.80328403 3.43002098 298.89462082 3.42400821 285.98594937 3.41972411 C265.02442359 3.41268399 244.06290171 3.40190069 223.10137939 3.38800049 C221.85102895 3.38717268 220.6006785 3.38634486 219.31243864 3.38549197 C210.43129448 3.37958794 201.55015041 3.37355071 192.66900635 3.36749268 C182.48728441 3.36055506 172.30556243 3.35369166 162.12384033 3.34698486 C160.24108226 3.34574267 160.24108226 3.34574267 158.32028868 3.34447539 C137.40397004 3.33079776 116.48765134 3.32103637 95.57132941 3.31407452 C82.68839963 3.30959529 69.80548133 3.30155944 56.92255691 3.2889297 C48.11292331 3.28051463 39.30329235 3.27561569 30.49365499 3.2735045 C25.41119284 3.27215806 20.32874555 3.26913996 15.2462883 3.26174545 C10.59568718 3.25500442 5.94510755 3.25285871 1.294502 3.25438106 C-0.38849036 3.25410935 -2.07148347 3.25213285 -3.75447146 3.24828827 C-6.04087662 3.24330698 -8.32719935 3.2445086 -10.61360645 3.24723816 C-11.88378174 3.24631637 -13.15395702 3.24539457 -14.46262246 3.24444485 C-18.05113073 3.36862205 -21.47501359 3.80243626 -25.01849365 4.36749268 C-26.19411865 4.51186768 -27.36974365 4.65624268 -28.58099365 4.80499268 C-31.92646794 5.35243392 -34.829122 6.23792355 -38.01849365 7.36749268 C-40.34658908 8.05222662 -42.68087142 8.71602419 -45.01849365 9.36749268 C-45.94919678 9.62917236 -46.8798999 9.89085205 -47.83880615 10.16046143 C-48.82622803 10.43503174 -49.8136499 10.70960205 -50.83099365 10.99249268 C-52.23284912 11.38307861 -52.23284912 11.38307861 -53.6630249 11.78155518 C-56.01849365 12.36749268 -56.01849365 12.36749268 -58.01849365 12.36749268 C-58.01849365 13.02749268 -58.01849365 13.68749268 -58.01849365 14.36749268 C-61.75412644 17.08431652 -65.57468557 18.23475728 -70.01849365 19.36749268 C-68.80647304 15.73143084 -67.40065144 15.21424059 -64.10662842 13.51275635 C-63.41754395 13.17606934 -62.72845947 12.83938232 -62.01849365 12.49249268 C-60.94522827 11.96522583 -60.94522827 11.96522583 -59.85028076 11.42730713 C-40.94972467 2.45967968 -20.68167056 -0.10178349 0 0 Z " fill="#FDE373" transform="translate(316.01849365234375,172.63250732421875)"/>
<path d="M0 0 C0.02688151 1.64574566 0.04634123 3.29161413 0.0625 4.9375 C0.07410156 5.85402344 0.08570313 6.77054687 0.09765625 7.71484375 C0 10 0 10 -1 11 C-1.09566473 13.76458381 -1.12546829 16.50410353 -1.11352539 19.26902771 C-1.11367425 20.14643476 -1.11382311 21.02384181 -1.11397648 21.92783695 C-1.11327759 24.89128684 -1.10541555 27.85467603 -1.09765625 30.81811523 C-1.09573869 32.93321701 -1.09427413 35.04831924 -1.0932312 37.16342163 C-1.09006156 41.72953053 -1.08378009 46.29562111 -1.07516479 50.86172295 C-1.06169278 58.0748112 -1.05575894 65.28789326 -1.05102539 72.50099182 C-1.03895628 89.11670307 -1.01690477 105.73239837 -0.99479675 122.34809875 C-0.97464514 137.56886677 -0.95656777 152.78962946 -0.94658184 168.01040798 C-0.94158387 175.18773336 -0.93170089 182.36503082 -0.91815186 189.54234493 C-0.91071696 194.00015202 -0.90738153 198.45795521 -0.9051857 202.91576767 C-0.90330613 204.99029204 -0.89969033 207.06481563 -0.89425278 209.13933372 C-0.8870874 211.96090366 -0.88599676 214.78241122 -0.88647461 217.60398865 C-0.88108217 218.84905777 -0.88108217 218.84905777 -0.87558079 220.1192798 C-0.88590726 225.77181452 -0.88590726 225.77181452 -2 228 C-1.34 228.33 -0.68 228.66 0 229 C-0.16238096 229.64416367 -0.32476192 230.28832733 -0.49206352 230.95201111 C-1.14961646 234.89780774 -1.13779796 238.78056769 -1.12698364 242.76782227 C-1.12854363 243.65061387 -1.13010362 244.53340548 -1.13171089 245.44294834 C-1.13569925 248.40078463 -1.13253959 251.35856958 -1.12939453 254.31640625 C-1.13074953 256.43708323 -1.13253002 258.55775998 -1.13470459 260.67843628 C-1.13926718 266.43862865 -1.13749417 272.19880313 -1.1343255 277.95899582 C-1.13179586 283.98381346 -1.13414113 290.00862956 -1.13571167 296.03344727 C-1.13753159 306.15153275 -1.13513169 316.26961094 -1.13037109 326.38769531 C-1.12492882 338.08984112 -1.1266916 349.7919695 -1.1321975 361.49411488 C-1.13673366 371.53667506 -1.1373767 381.57923 -1.13475883 391.62179089 C-1.13319884 397.62181573 -1.13299473 403.62183237 -1.13629532 409.62185669 C-1.13918131 415.26231834 -1.13718487 420.90275749 -1.13140106 426.54321671 C-1.13007739 428.61486906 -1.13046094 430.68652329 -1.13266373 432.7581749 C-1.13539058 435.58286817 -1.13197518 438.40748909 -1.12698364 441.23217773 C-1.12921436 442.05464776 -1.13144509 442.87711779 -1.13374341 443.72451115 C-1.12035429 447.62295446 -0.85962004 451.20092211 0 455 C0 457.33333333 0 459.66666667 0 462 C0.309375 463.1446875 0.309375 463.1446875 0.625 464.3125 C0.74875 464.869375 0.8725 465.42625 1 466 C0.34 466.66 -0.32 467.32 -1 468 C-3.43363214 458.51100386 -3.27383025 449.16590299 -3.24050903 439.44796753 C-3.2413819 437.55430262 -3.24313436 435.66063795 -3.24568737 433.76697457 C-3.25014902 428.57901771 -3.24217345 423.39114378 -3.23213124 418.20319748 C-3.22348201 412.60277566 -3.22641795 407.00235839 -3.22793579 401.40193176 C-3.22898371 391.7039975 -3.22271683 382.00609018 -3.21146011 372.30816269 C-3.19519547 358.28664706 -3.18999612 344.26514445 -3.18748413 330.24362041 C-3.18310855 307.49378533 -3.16982034 284.74396706 -3.15087891 261.99414062 C-3.13250201 239.89681065 -3.11833872 217.79948452 -3.10986328 195.70214844 C-3.10960023 195.02068015 -3.10933718 194.33921186 -3.10906615 193.63709301 C-3.10642905 186.79333547 -3.10387743 179.94957791 -3.10138843 173.10582031 C-3.08051611 115.73720354 -3.04523257 58.36860244 -3 1 C-1 0 -1 0 0 0 Z " fill="#B98100" transform="translate(189,279)"/>
<path d="M0 0 C56.09568376 -0.02287335 112.19136705 -0.04050179 168.28705455 -0.05106533 C174.90499275 -0.05231608 181.52293095 -0.0536104 188.14086914 -0.05493164 C189.4584187 -0.05519395 190.77596827 -0.05545626 192.13344357 -0.05572652 C213.48577086 -0.06008151 234.83809521 -0.06796813 256.19042095 -0.0771528 C278.08895523 -0.08649407 299.9874881 -0.09205662 321.8860243 -0.09408849 C335.4058552 -0.09546273 348.92567852 -0.099808 362.44550709 -0.10791647 C371.70812925 -0.11318975 380.97074748 -0.11480296 390.23337104 -0.11350138 C395.58272455 -0.11285892 400.93206477 -0.11386522 406.28141594 -0.11920547 C411.17481962 -0.12405505 416.06820102 -0.12432831 420.96160571 -0.12089889 C422.73557302 -0.12047475 424.50954169 -0.12175734 426.2835063 -0.12488318 C428.68819853 -0.12887536 431.09280953 -0.12674566 433.49750042 -0.12304783 C434.19188169 -0.12567484 434.88626296 -0.12830186 435.60168609 -0.13100848 C439.19375154 -0.11846145 442.50596709 0.15309394 446 1 C446 1.33 446 1.66 446 2 C441.50040757 2.19827341 437.00032507 2.38168337 432.5 2.5625 C431.2315625 2.61857422 429.963125 2.67464844 428.65625 2.73242188 C427.41875 2.78076172 426.18125 2.82910156 424.90625 2.87890625 C423.77509766 2.9260376 422.64394531 2.97316895 421.47851562 3.02172852 C418 3 418 3 414.24431181 2.50730854 C410.35251691 2.0026136 406.54071715 1.8697387 402.61249542 1.8613348 C401.91103146 1.85849258 401.20956749 1.85565036 400.48684704 1.85272202 C398.148812 1.84443523 395.81082688 1.84311158 393.47277832 1.84178162 C391.77470455 1.83721216 390.0766319 1.83221158 388.37856054 1.82681805 C383.72199252 1.81327123 379.06543178 1.80582862 374.40884924 1.79939139 C369.38371271 1.79137223 364.35859124 1.77767968 359.33346558 1.76467896 C350.63025892 1.7429377 341.92705073 1.72478462 333.22383118 1.70907402 C320.64046202 1.68635398 308.05710956 1.65821411 295.47375458 1.62875474 C275.05770575 1.581105 254.64165008 1.53783373 234.22558594 1.49731445 C214.39420032 1.45794621 194.56282077 1.41651679 174.73144531 1.37231445 C173.50887891 1.36959018 172.28631251 1.36686591 171.02669865 1.36405908 C164.89339443 1.35037939 158.76009031 1.33665916 152.62678623 1.32291877 C101.75120349 1.20899512 50.87560759 1.10217668 0 1 C0 0.67 0 0.34 0 0 Z " fill="#FCFB74" transform="translate(304,173)"/>
<path d="M0 0 C19.12616269 17.32491683 35.78385976 43.33472499 38.35449219 69.55517578 C37.91699219 72.99267578 37.91699219 72.99267578 37.35449219 75.55517578 C37.02449219 75.55517578 36.69449219 75.55517578 36.35449219 75.55517578 C36.18433594 74.45560547 36.01417969 73.35603516 35.83886719 72.22314453 C34.57628388 64.41140798 33.20230281 57.09845431 30.12402344 49.75439453 C29.35449219 47.55517578 29.35449219 47.55517578 29.35449219 43.55517578 C28.69449219 43.55517578 28.03449219 43.55517578 27.35449219 43.55517578 C26.70815944 41.78452467 26.06244389 40.01364825 25.41699219 38.24267578 C24.87751953 36.76347656 24.87751953 36.76347656 24.32714844 35.25439453 C23.64563254 33.36311948 22.99021109 31.46233249 22.35449219 29.55517578 C21.69449219 29.22517578 21.03449219 28.89517578 20.35449219 28.55517578 C19.63289794 26.91154445 18.96097798 25.24467192 18.35449219 23.55517578 C17.69449219 23.55517578 17.03449219 23.55517578 16.35449219 23.55517578 C14.85925041 21.28240828 13.57049504 18.98718149 12.35449219 16.55517578 C11.69449219 16.22517578 11.03449219 15.89517578 10.35449219 15.55517578 C9.72949219 13.49267578 9.72949219 13.49267578 9.35449219 11.55517578 C8.69449219 11.55517578 8.03449219 11.55517578 7.35449219 11.55517578 C4.72949219 9.18017578 4.72949219 9.18017578 2.35449219 6.55517578 C2.35449219 5.89517578 2.35449219 5.23517578 2.35449219 4.55517578 C1.69449219 4.55517578 1.03449219 4.55517578 0.35449219 4.55517578 C0.35449219 3.89517578 0.35449219 3.23517578 0.35449219 2.55517578 C-0.20238281 2.30767578 -0.75925781 2.06017578 -1.33300781 1.80517578 C-3.64550781 0.55517578 -3.64550781 0.55517578 -6.20800781 -1.50732422 C-8.565768 -3.60866771 -8.565768 -3.60866771 -11.64550781 -4.44482422 C-13.83300781 -6.38232422 -13.83300781 -6.38232422 -15.64550781 -8.44482422 C-15.64550781 -9.10482422 -15.64550781 -9.76482422 -15.64550781 -10.44482422 C-16.63550781 -10.44482422 -17.62550781 -10.44482422 -18.64550781 -10.44482422 C-18.64550781 -11.10482422 -18.64550781 -11.76482422 -18.64550781 -12.44482422 C-20.31613281 -12.63044922 -20.31613281 -12.63044922 -22.02050781 -12.81982422 C-25.64550781 -13.44482422 -25.64550781 -13.44482422 -27.64550781 -15.44482422 C-28.30550781 -15.77482422 -28.96550781 -16.10482422 -29.64550781 -16.44482422 C-29.64550781 -17.10482422 -29.64550781 -17.76482422 -29.64550781 -18.44482422 C-30.63550781 -18.59951172 -30.63550781 -18.59951172 -31.64550781 -18.75732422 C-34.11345733 -19.32289598 -36.18587618 -20.01369682 -38.52050781 -20.94482422 C-41.22225242 -21.99916358 -43.27994466 -22.53386799 -46.20800781 -22.94482422 C-49.64550781 -23.44482422 -49.64550781 -23.44482422 -53.02050781 -24.94482422 C-57.33349225 -26.72950743 -61.03013153 -27.12154153 -65.64550781 -27.44482422 C-66.78890625 -27.53634766 -67.93230469 -27.62787109 -69.11035156 -27.72216797 C-72.28803605 -27.97403655 -75.46624507 -28.21387314 -78.64550781 -28.44482422 C-78.64550781 -28.77482422 -78.64550781 -29.10482422 -78.64550781 -29.44482422 C-49.53027859 -32.98218852 -21.44833979 -18.83253336 0 0 Z " fill="#F6E78A" transform="translate(817.6455078125,204.44482421875)"/>
<path d="M0 0 C1.94866486 0.02811751 3.89735093 0.05479853 5.84605408 0.0801239 C10.91453777 0.14977046 15.98249985 0.23860471 21.05059814 0.33178711 C26.24644622 0.42380512 31.44255624 0.49719226 36.63867188 0.57226562 C46.78939834 0.7216101 56.93967098 0.89127783 67.08984375 1.07421875 C64.55514576 3.60891674 62.98031818 3.30558353 59.52455139 3.31195068 C58.74792648 3.30318909 57.97130157 3.29442749 57.17114258 3.28540039 C55.94399033 3.28342903 55.94399033 3.28342903 54.69204712 3.28141785 C51.97687386 3.27490675 49.26197889 3.25445747 46.546875 3.234375 C44.66078496 3.22810504 42.77469125 3.2228648 40.88859558 3.21861267 C35.91159077 3.20528329 30.93470767 3.1808492 25.95776367 3.15325928 C18.00907206 3.11022901 10.06035 3.08035214 2.11157799 3.05721855 C-0.66192393 3.04702641 -3.43532347 3.02996597 -6.20878601 3.01222229 C-7.92068389 3.00538912 -9.63258268 2.9987805 -11.34448242 2.99243164 C-12.11098618 2.98569427 -12.87748993 2.97895691 -13.66722107 2.97201538 C-18.17619759 2.96254908 -22.44686778 3.34291918 -26.91015625 4.07421875 C-28.08578125 4.21859375 -29.26140625 4.36296875 -30.47265625 4.51171875 C-33.81813054 5.05916 -36.7207846 5.94464962 -39.91015625 7.07421875 C-42.23825168 7.7589527 -44.57253402 8.42275026 -46.91015625 9.07421875 C-47.84085937 9.33589844 -48.7715625 9.59757813 -49.73046875 9.8671875 C-50.71789062 10.14175781 -51.7053125 10.41632813 -52.72265625 10.69921875 C-54.12451172 11.08980469 -54.12451172 11.08980469 -55.5546875 11.48828125 C-57.91015625 12.07421875 -57.91015625 12.07421875 -59.91015625 12.07421875 C-59.91015625 12.73421875 -59.91015625 13.39421875 -59.91015625 14.07421875 C-63.64578904 16.7910426 -67.46634817 17.94148336 -71.91015625 19.07421875 C-70.69813564 15.43815692 -69.29231404 14.92096667 -65.99829102 13.21948242 C-65.30920654 12.88279541 -64.62012207 12.5461084 -63.91015625 12.19921875 C-62.83689087 11.6719519 -62.83689087 11.6719519 -61.74194336 11.1340332 C-42.11056942 1.81965922 -21.4407488 -0.43997448 0 0 Z " fill="#FCDE69" transform="translate(317.91015625,172.92578125)"/>
<path d="M0 0 C0.02688151 1.64574566 0.04634123 3.29161413 0.0625 4.9375 C0.07410156 5.85402344 0.08570313 6.77054687 0.09765625 7.71484375 C0 10 0 10 -1 11 C-1.09556492 13.58128671 -1.12548903 16.13571109 -1.11352539 18.71734619 C-1.11367425 19.53546681 -1.11382311 20.35358743 -1.11397648 21.19649959 C-1.11327765 23.95947577 -1.10541579 26.72238683 -1.09765625 29.48535156 C-1.09573862 31.45765648 -1.09427409 33.42996188 -1.0932312 35.40226746 C-1.09006142 39.66061545 -1.0837796 43.91894381 -1.07516479 48.17728424 C-1.06168698 54.90812536 -1.05575746 61.63895984 -1.05102539 68.36981201 C-1.038957 83.87877086 -1.01692574 99.38771267 -0.99479675 114.89665985 C-0.97463137 129.09597269 -0.95655339 143.29527974 -0.94658184 157.49460387 C-0.94159261 164.18772104 -0.93172201 170.88080807 -0.91815186 177.5739131 C-0.91069896 181.73796314 -0.90737785 185.90200902 -0.9051857 190.06606483 C-0.90331146 191.99903677 -0.89970609 193.93200791 -0.89425278 195.86497307 C-0.88704814 198.50157456 -0.8859985 201.13810959 -0.88647461 203.77471924 C-0.88108217 204.92497066 -0.88108217 204.92497066 -0.87558079 206.09845948 C-0.8828658 209.85931225 -1.09251716 213.34373862 -2 217 C-2.33 217 -2.66 217 -3 217 C-3 145.72 -3 74.44 -3 1 C-1 0 -1 0 0 0 Z " fill="#C78A00" transform="translate(189,279)"/>
<path d="M0 0 C3.95570495 11.86711484 -6.1868285 31.53484914 -11.3125 42.25 C-18.95993014 56.87550098 -29.25809067 68.57543957 -41 80 C-41.66 79.67 -42.32 79.34 -43 79 C-43 78.34 -43 77.68 -43 77 C-41.52304509 75.71569138 -40.04193862 74.43419292 -38.5078125 73.21875 C-36.53620848 71.62512188 -35.14089314 70.28178628 -34 68 C-33.34 68 -32.68 68 -32 68 C-31.34 66.68 -30.68 65.36 -30 64 C-29.34 64.33 -28.68 64.66 -28 65 C-28 64.01 -28 63.02 -28 62 C-27 61 -26 60 -25 59 C-24.32650839 57.33607955 -23.6590841 55.66967972 -23 54 C-22.01 53.505 -22.01 53.505 -21 53 C-20.505 52.154375 -20.01 51.30875 -19.5 50.4375 C-19.005 49.633125 -18.51 48.82875 -18 48 C-17.34 48 -16.68 48 -16 48 C-15.34 45.36 -14.68 42.72 -14 40 C-13.34 40 -12.68 40 -12 40 C-11.87882813 39.34773437 -11.75765625 38.69546875 -11.6328125 38.0234375 C-10.71056011 33.21353658 -9.69832723 28.60974535 -8 24 C-7.34 24 -6.68 24 -6 24 C-5.89042969 23.09378906 -5.78085937 22.18757812 -5.66796875 21.25390625 C-3.33576642 3.33576642 -3.33576642 3.33576642 0 0 Z " fill="#F4E05B" transform="translate(856,735)"/>
<path d="M0 0 C14.64701271 -0.02336861 29.29402296 -0.04099866 43.94105053 -0.05181217 C50.74203808 -0.0569667 57.54301403 -0.06399336 64.34399414 -0.07543945 C70.90567817 -0.08647754 77.46735331 -0.09228237 84.02904701 -0.09487724 C86.53410342 -0.0967268 89.03915915 -0.10033843 91.54421043 -0.10573006 C95.04926358 -0.11297486 98.55426676 -0.11398948 102.05932617 -0.11352539 C103.09798325 -0.11712067 104.13664032 -0.12071594 105.20677185 -0.12442017 C106.16444458 -0.1230455 107.12211731 -0.12167084 108.10881042 -0.12025452 C108.93750232 -0.12117631 109.76619421 -0.1220981 110.61999798 -0.12304783 C113.16010202 0.00827739 115.52106716 0.44363367 118 1 C118 1.33 118 1.66 118 2 C113.50040757 2.19827341 109.00032507 2.38168337 104.5 2.5625 C103.2315625 2.61857422 101.963125 2.67464844 100.65625 2.73242188 C99.41875 2.78076172 98.18125 2.82910156 96.90625 2.87890625 C95.20952148 2.94960327 95.20952148 2.94960327 93.47851562 3.02172852 C90 3 90 3 86.30981445 2.51147461 C82.0505406 1.95902676 77.85544639 1.82814211 73.56445312 1.79467773 C72.76349213 1.78477814 71.96253113 1.77487854 71.13729858 1.76467896 C68.51864466 1.73336736 65.89997266 1.708428 63.28125 1.68359375 C61.45421914 1.66299794 59.62719275 1.64200082 57.8001709 1.62062073 C53.01301729 1.56567119 48.22582264 1.51614337 43.43859863 1.46777344 C38.5449665 1.41735925 33.6513933 1.36177759 28.7578125 1.30664062 C19.17192546 1.19939121 9.58598704 1.09787377 0 1 C0 0.67 0 0.34 0 0 Z " fill="#FDFB7F" transform="translate(632,173)"/>
<path d="M0 0 C0.99 0 1.98 0 3 0 C3.33 0.66 3.66 1.32 4 2 C4.99 2.33 5.98 2.66 7 3 C8 4 9 5 10 6 C10.66 6 11.32 6 12 6 C12 6.66 12 7.32 12 8 C12.66 8 13.32 8 14 8 C14 8.66 14 9.32 14 10 C14.62648437 10.20496094 15.25296875 10.40992188 15.8984375 10.62109375 C16.71570313 10.89050781 17.53296875 11.15992188 18.375 11.4375 C19.18710938 11.70433594 19.99921875 11.97117187 20.8359375 12.24609375 C23 13 23 13 25 14 C25 14.66 25 15.32 25 16 C31.15216757 17.88168249 37.32412494 19.64605443 43.5390625 21.30859375 C45.42402875 21.83817951 47.28279175 22.46180503 49.125 23.125 C52.40977531 24.12471422 55.5373473 24.46516411 58.94921875 24.75390625 C61 25 61 25 64 26 C66.03042989 25.99181278 68.03651762 25.87264849 70.0625 25.7421875 C72.5794369 26.07710249 73.4031764 27.09379182 75 29 C48.16663175 28.27770207 19.93213962 19.78220849 0 1 C0 0.67 0 0.34 0 0 Z " fill="#A37300" transform="translate(229,814)"/>
<path d="M0 0 C0.99 0.33 1.98 0.66 3 1 C2.46375 2.0725 1.9275 3.145 1.375 4.25 C1.01148438 4.98347656 0.64796875 5.71695313 0.2734375 6.47265625 C-0.61753679 8.24093957 -1.53094914 9.99801402 -2.4609375 11.74609375 C-8.34254578 22.98683242 -11.33227012 34.65164427 -14 47 C-14.99 47 -15.98 47 -17 47 C-14.74760596 30.20089448 -8.78041293 14.50098499 0 0 Z " fill="#E4AF06" transform="translate(204,230)"/>
<path d="M0 0 C2 2 2 2 2.23377991 4.37080383 C2.22259377 5.86041878 2.22259377 5.86041878 2.21118164 7.38012695 C2.20780289 8.50502029 2.20442413 9.62991364 2.20094299 10.78889465 C2.18748337 12.00969223 2.17402374 13.23048981 2.16015625 14.48828125 C2.15495468 15.73876755 2.14975311 16.98925385 2.14439392 18.27763367 C2.12955951 21.60818541 2.1066465 24.93846495 2.07904053 28.2689209 C2.04114439 32.95098182 2.01335947 37.63307022 1.99131775 42.31523132 C1.97906832 44.80827605 1.96147225 47.3013014 1.93800354 49.79426575 C1.93147263 50.92861557 1.92494171 52.06296539 1.91821289 53.23168945 C1.90995987 54.22715286 1.90170685 55.22261627 1.89320374 56.24824524 C1.99780823 58.94352603 2.44817929 61.36612076 3 64 C3 66.33333333 3 68.66666667 3 71 C3.309375 72.1446875 3.309375 72.1446875 3.625 73.3125 C3.74875 73.869375 3.8725 74.42625 4 75 C3.01 75.99 3.01 75.99 2 77 C-0.23849027 68.48593215 -0.26038268 60.10111768 -0.1953125 51.3671875 C-0.19157426 49.87932527 -0.18873113 48.39146056 -0.18673706 46.90359497 C-0.17916434 43.02055862 -0.15957193 39.13767603 -0.1373291 35.25469971 C-0.11673222 31.27919595 -0.10770598 27.30366693 -0.09765625 23.328125 C-0.07631886 15.55201385 -0.04226155 7.77602861 0 0 Z " fill="#A87600" transform="translate(186,670)"/>
<path d="M0 0 C0 0.33 0 0.66 0 1 C-1.03125 1.12375 -2.0625 1.2475 -3.125 1.375 C-6.65157789 1.94380289 -9.6454223 2.8119204 -13 4 C-15.32809543 4.68473395 -17.66237777 5.34853151 -20 6 C-20.93070312 6.26167969 -21.86140625 6.52335938 -22.8203125 6.79296875 C-23.80773437 7.06753906 -24.79515625 7.34210938 -25.8125 7.625 C-27.21435547 8.01558594 -27.21435547 8.01558594 -28.64453125 8.4140625 C-31 9 -31 9 -33 9 C-33 9.66 -33 10.32 -33 11 C-36.73563279 13.71682385 -40.55619192 14.86726461 -45 16 C-43.78768196 12.36304588 -42.38069873 11.84516433 -39.08496094 10.14477539 C-38.39692383 9.80824951 -37.70888672 9.47172363 -37 9.125 C-36.29391602 8.77493896 -35.58783203 8.42487793 -34.86035156 8.06420898 C-27.1855872 4.39818373 -19.21620459 2.10834325 -11 0 C-10.2575 -0.2165625 -9.515 -0.433125 -8.75 -0.65625 C-5.77703158 -1.24022594 -2.95034299 -0.51063629 0 0 Z " fill="#F0D84D" transform="translate(291,176)"/>
<path d="M0 0 C0.99 0.495 0.99 0.495 2 1 C2.50782884 2.62505228 3.00396993 4.25488862 3.43359375 5.90234375 C4.44731577 9.65661082 5.75390224 13.31778113 7 17 C7.28617188 17.94359375 7.57234375 18.8871875 7.8671875 19.859375 C9.56254726 24.55961379 12.08615073 28.7340667 14.5390625 33.07421875 C16 36 16 36 16 39 C16.66 39.33 17.32 39.66 18 40 C18.28875 40.598125 18.5775 41.19625 18.875 41.8125 C20.19965085 44.38820998 21.89415861 46.03454804 24 48 C23.67 48.99 23.34 49.98 23 51 C12.7657632 38.08868763 -1.32531244 17.26304407 0 0 Z " fill="#8A6400" transform="translate(189,747)"/>
<path d="M0 0 C2 1 2 1 3.125 3.4375 C4.05844532 7.23795597 4.09020818 10.4437571 4.0078125 14.328125 C3.91653009 21.88529342 3.91653009 21.88529342 6 29 C6.12563777 31.90719966 6.18518699 34.78004426 6.1875 37.6875 C6.19974609 38.47833984 6.21199219 39.26917969 6.22460938 40.08398438 C6.23706743 45.11288462 5.61425606 49.23379733 4 54 C3.67 54 3.34 54 3 54 C2.98018066 53.07364746 2.96036133 52.14729492 2.93994141 51.19287109 C2.86084284 47.68500267 2.77413176 44.17748036 2.68261719 40.66992188 C2.64483681 39.16511022 2.60990574 37.66022375 2.578125 36.15527344 C2.39013806 27.35513499 1.89115214 18.83708071 0.41552734 10.13525391 C-0.03641018 6.72527643 -0.06650032 3.43585005 0 0 Z " fill="#FCDC00" transform="translate(689,470)"/>
<path d="M0 0 C3.53710386 3.12689269 5.51557488 6.50653064 7.4375 10.75 C7.7360791 11.40033203 8.0346582 12.05066406 8.34228516 12.72070312 C13.09253825 23.37633245 18.56887018 36.29736919 16 48 C15.67 48 15.34 48 15 48 C14.82984375 46.90042969 14.6596875 45.80085938 14.484375 44.66796875 C13.22179169 36.8562322 11.84781062 29.54327853 8.76953125 22.19921875 C8 20 8 20 8 16 C7.34 16 6.68 16 6 16 C5.35366725 14.22934889 4.7079517 12.45847247 4.0625 10.6875 C3.70285156 9.70136719 3.34320312 8.71523437 2.97265625 7.69921875 C2.29114035 5.8079437 1.6357189 3.90715671 1 2 C0.34 1.67 -0.32 1.34 -1 1 C-0.67 0.67 -0.34 0.34 0 0 Z " fill="#F5E27B" transform="translate(839,232)"/>
<path d="M0 0 C-2.01374526 2.01374526 -3.16406916 2.60646432 -5.75390625 3.62890625 C-6.51783691 3.93715332 -7.28176758 4.24540039 -8.06884766 4.56298828 C-8.89175293 4.89282715 -9.7146582 5.22266602 -10.5625 5.5625 C-23.3240359 10.80953028 -35.80159036 16.86440325 -47 25 C-47.66 24.67 -48.32 24.34 -49 24 C-46.62788344 22.39142732 -44.25249943 20.78808248 -41.875 19.1875 C-41.20984375 18.73568359 -40.5446875 18.28386719 -39.859375 17.81835938 C-29.70648951 11 -29.70648951 11 -26 11 C-26 9.68 -26 8.36 -26 7 C-25.195625 7.0825 -24.39125 7.165 -23.5625 7.25 C-19.4221897 6.95945191 -16.64031552 5.68097087 -12.953125 3.875 C-11 3 -11 3 -9 3 C-9 2.34 -9 1.68 -9 1 C-6.04335481 -0.4783226 -3.25770263 -0.06032783 0 0 Z " fill="#F7D901" transform="translate(459,337)"/>
<path d="M0 0 C20.36420432 0.39890704 20.36420432 0.39890704 28.6875 4.02734375 C31.03129274 5.01316198 33.1936 5.53239375 35.6875 6 C40.26522271 6.90893411 43.91288208 8.77066295 48 11 C43.8144993 12.3951669 40.93062716 10.7832701 36.9375 9.375 C24.89342093 5.31847481 12.49530324 3.17983864 0 1 C0 0.67 0 0.34 0 0 Z " fill="#F2D101" transform="translate(532,329)"/>
<path d="M0 0 C0 0.33 0 0.66 0 1 C-0.90766113 1.02505615 -1.81532227 1.0501123 -2.75048828 1.07592773 C-6.13878234 1.17143059 -9.52692669 1.27064084 -12.91503906 1.37231445 C-14.37756148 1.41545337 -15.84012747 1.45714195 -17.30273438 1.49731445 C-19.4128936 1.5555307 -21.52283775 1.61907288 -23.6328125 1.68359375 C-24.90012207 1.72025146 -26.16743164 1.75690918 -27.47314453 1.79467773 C-30.72260236 1.98385079 -33.80065721 2.42356269 -37 3 C-38.62394748 3.0620775 -40.25005297 3.08712041 -41.875 3.0625 C-42.65617187 3.05347656 -43.43734375 3.04445313 -44.2421875 3.03515625 C-44.82226562 3.02355469 -45.40234375 3.01195312 -46 3 C-46 2.67 -46 2.34 -46 2 C-42.67616417 1.28009086 -39.34053064 0.63750585 -36 0 C-35.00742187 -0.21398437 -34.01484375 -0.42796875 -32.9921875 -0.6484375 C-21.86586212 -2.71284004 -11.15350716 -1.33623924 0 0 Z " fill="#FADB00" transform="translate(530,328)"/>
<path d="M0 0 C0.33 0 0.66 0 1 0 C1.09283588 5.52064025 0.76373925 10.77983917 0.0625 16.25 C-1.13050909 26.14545278 -1.6051338 36.04521515 -2 46 C-2.33 46 -2.66 46 -3 46 C-3.02933699 41.54168078 -3.04691123 37.08338682 -3.0625 32.625 C-3.07087891 31.37332031 -3.07925781 30.12164062 -3.08789062 28.83203125 C-3.10625488 21.81688618 -2.89223182 14.95973654 -2 8 C-1.91693604 7.30076416 -1.83387207 6.60152832 -1.74829102 5.88110352 C-1.14301015 1.14301015 -1.14301015 1.14301015 0 0 Z " fill="#FAE100" transform="translate(338,471)"/>
<path d="M0 0 C0 4.06213314 -1.96787079 6.54200482 -4.0625 9.875 C-8.31602142 16.78580794 -12.23114769 23.81373177 -16 31 C-16.66 30.67 -17.32 30.34 -18 30 C-17.01 27.03 -16.02 24.06 -15 21 C-14.34 21 -13.68 21 -13 21 C-12.67 19.68 -12.34 18.36 -12 17 C-11.34 17 -10.68 17 -10 17 C-9.34 14.69 -8.68 12.38 -8 10 C-7.34 10 -6.68 10 -6 10 C-5.566875 8.88625 -5.566875 8.88625 -5.125 7.75 C-2.45714286 1.22857143 -2.45714286 1.22857143 0 0 Z " fill="#F6D601" transform="translate(368,403)"/>
<path d="M0 0 C2.79581928 8.38745784 -2.79031471 21.16315419 -6 29 C-7.05935281 25.82194157 -6.97128051 25.04442848 -6.1875 21.9375 C-5.37188325 18.59347133 -4.67277067 15.26251939 -4.0625 11.875 C-3.22350834 7.57936268 -1.88567967 3.94278476 0 0 Z " fill="#F2DA6A" transform="translate(856,735)"/>
<path d="M0 0 C0.66 0.66 1.32 1.32 2 2 C1.3503125 3.5778125 1.3503125 3.5778125 0.6875 5.1875 C-1.49746002 10.9620372 -2.70524505 16.97617553 -4 23 C-4.99 23 -5.98 23 -7 23 C-6.54702053 20.45727525 -6.08779821 17.91594018 -5.625 15.375 C-5.49867188 14.66214844 -5.37234375 13.94929688 -5.2421875 13.21484375 C-4.47133299 9.01368666 -3.60405248 4.97951951 -2 1 C-1.34 0.67 -0.68 0.34 0 0 Z " fill="#DBA200" transform="translate(194,254)"/>
<path d="M0 0 C1.23036987 -0.00676758 1.23036987 -0.00676758 2.4855957 -0.01367188 C6.49718836 -0.00380225 10.21041641 0.12654346 14.125 1.125 C14.125 1.455 14.125 1.785 14.125 2.125 C9.60455967 2.3229067 5.08364537 2.5064754 0.5625 2.6875 C-0.71431641 2.74357422 -1.99113281 2.79964844 -3.30664062 2.85742188 C-5.16772461 2.92993164 -5.16772461 2.92993164 -7.06640625 3.00390625 C-8.20279541 3.0510376 -9.33918457 3.09816895 -10.51000977 3.14672852 C-14.05012926 3.12386915 -17.38559077 2.70107256 -20.875 2.125 C-20.875 1.795 -20.875 1.465 -20.875 1.125 C-13.91766964 0.24947079 -7.00351611 0.01609233 0 0 Z " fill="#FDF189" transform="translate(735.875,172.875)"/>
<path d="M0 0 C0.33 0.99 0.66 1.98 1 3 C0.21625 3.61875 -0.5675 4.2375 -1.375 4.875 C-3.96837647 6.89858661 -3.96837647 6.89858661 -6 9 C-6.61875 9.12375 -7.2375 9.2475 -7.875 9.375 C-10.16294274 9.86366016 -10.16294274 9.86366016 -11.875 11.875 C-14.34314439 14.34314439 -16.84100368 15.56409258 -20 17 C-18.45925194 12.71572636 -15.21451142 10.54850623 -11.6875 7.9375 C-11.11837891 7.50373047 -10.54925781 7.06996094 -9.96289062 6.62304688 C-6.75063806 4.20002743 -3.49794027 2.00163561 0 0 Z " fill="#F1CE2A" transform="translate(244,191)"/>
<path d="M0 0 C0 3.61770393 -0.63458538 4.08448793 -3 6.6875 C-3.94552734 7.72970703 -3.94552734 7.72970703 -4.91015625 8.79296875 C-8.20151324 12.26888781 -11.57548544 15.65553903 -15 19 C-15.66 18.67 -16.32 18.34 -17 18 C-17 17.34 -17 16.68 -17 16 C-15.52304509 14.71569138 -14.04193862 13.43419292 -12.5078125 12.21875 C-10.53620848 10.62512188 -9.14089314 9.28178628 -8 7 C-7.34 7 -6.68 7 -6 7 C-5.34 5.68 -4.68 4.36 -4 3 C-3.34 3.33 -2.68 3.66 -2 4 C-2 3.01 -2 2.02 -2 1 C-1.34 0.67 -0.68 0.34 0 0 Z " fill="#FCE446" transform="translate(830,796)"/>
<path d="M0 0 C1.125 1.5625 1.125 1.5625 2 4 C1.17118585 7.93686719 0.23639141 10.64541289 -2 14 C-2.66 14 -3.32 14 -4 14 C-4.12375 14.94875 -4.2475 15.8975 -4.375 16.875 C-5 20 -5 20 -7 22 C-6.33869808 17.16798713 -5.06831066 12.7804098 -3.5 8.1875 C-3.27441406 7.50751953 -3.04882812 6.82753906 -2.81640625 6.12695312 C-1.13375235 1.13375235 -1.13375235 1.13375235 0 0 Z " fill="#F5D000" transform="translate(685,555)"/>
<path d="M0 0 C-2.2058424 1.13011652 -4.41445027 2.25415788 -6.625 3.375 C-7.24246094 3.69210937 -7.85992188 4.00921875 -8.49609375 4.3359375 C-18.26822917 9.2734375 -18.26822917 9.2734375 -22.375 8.625 C-22.91125 8.41875 -23.4475 8.2125 -24 8 C-23.41992188 7.74605469 -22.83984375 7.49210938 -22.2421875 7.23046875 C-18.72308608 5.67997357 -15.23956982 4.12213363 -11.8125 2.375 C-4.13513514 -1.37837838 -4.13513514 -1.37837838 0 0 Z " fill="#F7DC1D" transform="translate(794,829)"/>
<path d="M0 0 C4.26365786 1.45245487 7.33792336 3.60964917 10.875 6.375 C15.12430633 9.63280152 19.2594574 12.5219891 24 15 C23.67 15.66 23.34 16.32 23 17 C13 11 13 11 10.29296875 9.23828125 C9.53628906 8.82964844 8.77960938 8.42101562 8 8 C7.01 8.495 7.01 8.495 6 9 C5.7525 8.2575 5.505 7.515 5.25 6.75 C3.90852699 3.79875938 2.39094474 2.15185026 0 0 Z " fill="#F3D701" transform="translate(403,645)"/>
<path d="M0 0 C0 2 0 2 -1.50390625 3.5859375 C-5.81663288 7.33399973 -10.00066377 10.25526638 -15 13 C-16.85859339 14.60172474 -16.85859339 14.60172474 -18 16 C-18.99 15.67 -19.98 15.34 -21 15 C-19.69675781 14.00419922 -19.69675781 14.00419922 -18.3671875 12.98828125 C-17.2030743 12.09642033 -16.03901467 11.2044895 -14.875 10.3125 C-14.30523438 9.87744141 -13.73546875 9.44238281 -13.1484375 8.99414062 C-10.26666869 6.78369296 -7.44697783 4.53908462 -4.6953125 2.16796875 C-2 0 -2 0 0 0 Z " fill="#F8D801" transform="translate(632,640)"/>
<path d="M0 0 C0.99 0 1.98 0 3 0 C3.33 0.66 3.66 1.32 4 2 C4.99 2.33 5.98 2.66 7 3 C8 4 9 5 10 6 C10.66 6 11.32 6 12 6 C12 6.66 12 7.32 12 8 C12.66 8 13.32 8 14 8 C14 8.66 14 9.32 14 10 C16.97 10.99 19.94 11.98 23 13 C22.01 13.66 21.02 14.32 20 15 C17.78826549 13.60933405 15.58069263 12.21269321 13.375 10.8125 C12.75753906 10.42513672 12.14007813 10.03777344 11.50390625 9.63867188 C7.39609434 7.02264429 3.63952677 4.24197846 0 1 C0 0.67 0 0.34 0 0 Z " fill="#946A00" transform="translate(229,814)"/>
<path d="M0 0 C0 0.33 0 0.66 0 1 C-1.03125 1.12375 -2.0625 1.2475 -3.125 1.375 C-6.63739522 1.94151536 -9.65312599 2.83586991 -13 4 C-15.75 4.75 -15.75 4.75 -18 5 C-18.66 4.34 -19.32 3.68 -20 3 C-18.58398286 2.51891725 -17.16715563 2.04021859 -15.75 1.5625 C-14.96109375 1.29566406 -14.1721875 1.02882812 -13.359375 0.75390625 C-8.40355851 -0.82965763 -5.23258272 -0.90563932 0 0 Z " fill="#F4D857" transform="translate(291,176)"/>
<path d="M0 0 C-2.34677981 1.18396099 -4.70061349 2.34688293 -7.0625 3.5 C-7.71927734 3.83386719 -8.37605469 4.16773438 -9.05273438 4.51171875 C-13.62850732 6.72071259 -16.92329218 7.36969524 -22 7 C-18.54312647 3.99402302 -14.72558752 2.64766016 -10.4375 1.25 C-9.76525391 1.01667969 -9.09300781 0.78335938 -8.40039062 0.54296875 C-3.37326173 -1.12442058 -3.37326173 -1.12442058 0 0 Z " fill="#F4D401" transform="translate(583,672)"/>
<path d="M0 0 C0.33 0 0.66 0 1 0 C1.02505615 0.78238037 1.0501123 1.56476074 1.07592773 2.37084961 C1.19149788 5.89324949 1.31439949 9.4153556 1.4375 12.9375 C1.47681641 14.16919922 1.51613281 15.40089844 1.55664062 16.66992188 C1.59853516 17.83974609 1.64042969 19.00957031 1.68359375 20.21484375 C1.72025146 21.29886475 1.75690918 22.38288574 1.79467773 23.49975586 C1.72364265 25.939263 1.72364265 25.939263 3 27 C3.07179964 28.51928038 3.08392007 30.04167482 3.0625 31.5625 C3.05347656 32.38878906 3.04445313 33.21507812 3.03515625 34.06640625 C3.02355469 34.70449219 3.01195312 35.34257813 3 36 C2.67 36 2.34 36 2 36 C-0.40184127 28.51079414 -0.22820296 21.31167016 -0.125 13.5 C-0.11597656 12.200625 -0.10695313 10.90125 -0.09765625 9.5625 C-0.07421733 6.37480701 -0.0414044 3.1875018 0 0 Z " fill="#FCC600" transform="translate(334,491)"/>
<path d="M0 0 C0.99 0.33 1.98 0.66 3 1 C2.98839844 1.74765625 2.97679687 2.4953125 2.96484375 3.265625 C2.95582031 4.25046875 2.94679687 5.2353125 2.9375 6.25 C2.92589844 7.22453125 2.91429687 8.1990625 2.90234375 9.203125 C2.88712492 11.93764694 2.88712492 11.93764694 3.62890625 14.234375 C3.75136719 14.81703125 3.87382812 15.3996875 4 16 C3.34 16.66 2.68 17.32 2 18 C0.59545452 11.88019467 -0.23268915 6.28260706 0 0 Z " fill="#825D00" transform="translate(186,729)"/>
<path d="M0 0 C9.57 0 19.14 0 29 0 C29 0.33 29 0.66 29 1 C26.94921875 1.22786458 24.8984375 1.45572917 22.84765625 1.68359375 C20.98859771 1.81886614 20.98859771 1.81886614 20 3 C17.66702567 3.04092937 15.33294775 3.04241723 13 3 C13 2.67 13 2.34 13 2 C8.71 1.67 4.42 1.34 0 1 C0 0.67 0 0.34 0 0 Z " fill="#CEA900" transform="translate(507,684)"/>
<path d="M0 0 C-12.57534247 10 -12.57534247 10 -16 10 C-15.67 9.01 -15.34 8.02 -15 7 C-13.35 6.67 -11.7 6.34 -10 6 C-9.67 5.01 -9.34 4.02 -9 3 C-8.34 3.33 -7.68 3.66 -7 4 C-7 3.01 -7 2.02 -7 1 C-3.375 -1.125 -3.375 -1.125 0 0 Z " fill="#F9DF31" transform="translate(812,817)"/>
<path d="M0 0 C0 0.33 0 0.66 0 1 C-12.48519362 4.44419134 -12.48519362 4.44419134 -19 4 C-16.43460896 0.76885004 -14.05676036 0.36222285 -10.0625 -0.25 C-8.50208984 -0.50523437 -8.50208984 -0.50523437 -6.91015625 -0.765625 C-4.24528611 -0.98024541 -2.50554542 -0.84524424 0 0 Z " fill="#EBC000" transform="translate(549,682)"/>
<path d="M0 0 C18.40316206 2.40316206 18.40316206 2.40316206 24 8 C15.73781407 6.40554307 7.93711014 3.73981931 0 1 C0 0.67 0 0.34 0 0 Z " fill="#F6DD00" transform="translate(556,333)"/>
<path d="M0 0 C1.08062462 3.24187386 0.96405231 3.89709861 0.00390625 7.01171875 C-0.33930664 8.14770508 -0.33930664 8.14770508 -0.68945312 9.30664062 C-0.93630859 10.09232422 -1.18316406 10.87800781 -1.4375 11.6875 C-1.68048828 12.48478516 -1.92347656 13.28207031 -2.17382812 14.10351562 C-2.77479738 16.07139534 -3.3863905 18.03602495 -4 20 C-4.33 20 -4.66 20 -5 20 C-4.88521587 17.93690624 -4.75773802 15.87451646 -4.625 13.8125 C-4.55539062 12.66394531 -4.48578125 11.51539063 -4.4140625 10.33203125 C-4.02490426 7.20040883 -3.3190149 4.84714191 -2 2 C-1.34 2 -0.68 2 0 2 C0 1.34 0 0.68 0 0 Z " fill="#F8D800" transform="translate(344,450)"/>
<path d="M0 0 C0.71484375 1.671875 0.71484375 1.671875 1 4 C-0.43359375 6.578125 -0.43359375 6.578125 -2.4375 9.25 C-3.09621094 10.14203125 -3.75492188 11.0340625 -4.43359375 11.953125 C-4.95050781 12.62859375 -5.46742188 13.3040625 -6 14 C-7 11 -7 11 -6.1875 8.375 C-5 6 -5 6 -3 5 C-1.9590934 3.35857037 -0.95495674 1.69287785 0 0 Z " fill="#F5DB4F" transform="translate(838,783)"/>
<path d="M0 0 C2 2 2 2 2.25 4.5625 C1.93919743 8.8360353 1.0329294 12.84983724 0 17 C-0.66 16.67 -1.32 16.34 -2 16 C-1.85833643 14.08302063 -1.71150416 12.16642277 -1.5625 10.25 C-1.48128906 9.18265625 -1.40007813 8.1153125 -1.31640625 7.015625 C-1.05909227 4.56320038 -0.68187782 2.36078709 0 0 Z " fill="#F6D200" transform="translate(691,525)"/>
<path d="M0 0 C2.50037734 2.17424117 3.43628586 3.73045798 4 7 C4.99 7 5.98 7 7 7 C7.99 10.63 8.98 14.26 10 18 C9.34 18 8.68 18 8 18 C6.66180502 15.3773768 5.3292849 12.75213401 4 10.125 C3.6184375 9.37863281 3.236875 8.63226563 2.84375 7.86328125 C2.4828125 7.14785156 2.121875 6.43242187 1.75 5.6953125 C1.41484375 5.03547363 1.0796875 4.37563477 0.734375 3.69580078 C0 2 0 2 0 0 Z " fill="#FADB00" transform="translate(669,418)"/>
<path d="M0 0 C0.66 0 1.32 0 2 0 C3.55078125 1.57421875 3.55078125 1.57421875 5.3125 3.6875 C7.42505572 6.17934547 9.53077874 8.59912338 11.875 10.875 C14 13 14 13 15 15 C10.96918 13.387672 8.24055863 10.53765404 5.25 7.5 C4.74339844 7.00113281 4.23679688 6.50226562 3.71484375 5.98828125 C0 2.25341139 0 2.25341139 0 0 Z " fill="#956A00" transform="translate(214,799)"/>
<path d="M0 0 C0.66 0.66 1.32 1.32 2 2 C-6.261959 10.6309795 -6.261959 10.6309795 -11 13 C-11 11.68 -11 10.36 -11 9 C-9.35 8.67 -7.7 8.34 -6 8 C-5.67 7.01 -5.34 6.02 -5 5 C-3.37347684 3.29413425 -1.70993434 1.6222454 0 0 Z " fill="#F4D200" transform="translate(398,369)"/>
<path d="M0 0 C1 2 1 2 0.375 5.3125 C-1.11939091 9.32018472 -2.80390733 11.22444584 -6 14 C-6.66 13.67 -7.32 13.34 -8 13 C-5.36 8.71 -2.72 4.42 0 0 Z " fill="#F7D701" transform="translate(671,589)"/>
<path d="M0 0 C0.22084624 6.09781001 0.01167675 11.21642935 -2 17 C-2.33 17 -2.66 17 -3 17 C-3 11.72 -3 6.44 -3 1 C-1 0 -1 0 0 0 Z " fill="#B48000" transform="translate(189,279)"/>
<path d="M0 0 C5.09210286 3.56320845 9.22660027 7.04741286 13 12 C9.03935893 10.25731793 5.25563451 7.85325271 2 5 C2 4.34 2 3.68 2 3 C1.34 3 0.68 3 0 3 C0 2.01 0 1.02 0 0 Z " fill="#F0D100" transform="translate(388,631)"/>
<path d="M0 0 C-1.38188453 3.21043882 -2.92421903 5.04936365 -5.625 7.25 C-6.57246094 8.03117188 -6.57246094 8.03117188 -7.5390625 8.828125 C-8.02117188 9.21484375 -8.50328125 9.6015625 -9 10 C-9.66 9.67 -10.32 9.34 -11 9 C-9.54782324 7.49403892 -8.08807139 5.99537896 -6.625 4.5 C-5.40683594 3.24703125 -5.40683594 3.24703125 -4.1640625 1.96875 C-2 0 -2 0 0 0 Z " fill="#FDD900" transform="translate(645,628)"/>
<path d="M0 0 C0.625 1.8125 0.625 1.8125 1 4 C0.34 4.99 -0.32 5.98 -1 7 C-0.67 4.69 -0.34 2.38 0 0 Z M-2 7 C-1.67 7 -1.34 7 -1 7 C-1 8.65 -1 10.3 -1 12 C-1.33 12 -1.66 12 -2 12 C-2 10.35 -2 8.7 -2 7 Z M-4 9 C-1.8480563 12.22791555 -1.79913557 13.28400809 -2 17 C-2.99 17 -3.98 17 -5 17 C-4.67 14.36 -4.34 11.72 -4 9 Z " fill="#C89000" transform="translate(192,260)"/>
<path d="M0 0 C0.7734375 0.61875 0.7734375 0.61875 1.5625 1.25 C-2.29227249 3.81984833 -5.95790582 5.10814266 -10.4375 6.25 C-9.1583845 2.41265351 -7.64874506 1.76834864 -4.2265625 -0.09765625 C-2.4375 -0.75 -2.4375 -0.75 0 0 Z " fill="#F2D33E" transform="translate(256.4375,185.75)"/>
<path d="M0 0 C1.17949219 0.01804688 2.35898437 0.03609375 3.57421875 0.0546875 C4.92966797 0.08949219 4.92966797 0.08949219 6.3125 0.125 C1.08578734 2.92706696 -3.91308376 3.69984079 -9.6875 2.125 C-6.05554504 -0.29630331 -4.30400652 -0.08522785 0 0 Z " fill="#FBE868" transform="translate(296.6875,173.875)"/>
<path d="M0 0 C0.66 0 1.32 0 2 0 C1.47606294 5.86809507 0.23891142 10.54873741 -2 16 C-3.08101555 12.75695334 -2.91566961 11.77391834 -2.125 8.5625 C-1.94195313 7.80066406 -1.75890625 7.03882813 -1.5703125 6.25390625 C-1.38210938 5.51011719 -1.19390625 4.76632812 -1 4 C-0.81179688 3.24589844 -0.62359375 2.49179687 -0.4296875 1.71484375 C-0.28789063 1.14894531 -0.14609375 0.58304688 0 0 Z " fill="#FAEA6E" transform="translate(852,748)"/>
<path d="M0 0 C1.97265625 0.36328125 1.97265625 0.36328125 4.97265625 3.36328125 C0.68265625 3.03328125 -3.60734375 2.70328125 -8.02734375 2.36328125 C-5.4339847 -0.2300778 -3.53987343 0.08601562 0 0 Z " fill="#B07A00" transform="translate(299.02734375,839.63671875)"/>
<path d="M0 0 C-4.77105802 2.67179249 -9.53911054 4 -15 4 C-15 3.34 -15 2.68 -15 2 C-13.43883181 1.66048381 -11.87598662 1.32867456 -10.3125 1 C-9.44238281 0.814375 -8.57226562 0.62875 -7.67578125 0.4375 C-5.06287036 0.01027953 -2.64186962 -0.07616201 0 0 Z " fill="#F8D900" transform="translate(478,332)"/>
<path d="M0 0 C0.66 0.33 1.32 0.66 2 1 C1.67 3.64 1.34 6.28 1 9 C0.34 9 -0.32 9 -1 9 C-1.33 9.66 -1.66 10.32 -2 11 C-1.85892253 9.54119891 -1.71197585 8.08296449 -1.5625 6.625 C-1.48128906 5.81289063 -1.40007813 5.00078125 -1.31640625 4.1640625 C-1 2 -1 2 0 0 Z " fill="#F7D201" transform="translate(688,543)"/>
<path d="M0 0 C2.1640625 0.99609375 2.1640625 0.99609375 4.625 2.4375 C5.85089844 3.14712891 5.85089844 3.14712891 7.1015625 3.87109375 C7.72804688 4.24363281 8.35453125 4.61617187 9 5 C7.68 5.33 6.36 5.66 5 6 C5 5.34 5 4.68 5 4 C2.69 3.67 0.38 3.34 -2 3 C-2 2.34 -2 1.68 -2 1 C-1.34 0.67 -0.68 0.34 0 0 Z " fill="#F3E288" transform="translate(794,188)"/>
</svg>
