<?xml version="1.0" encoding="UTF-8"?>
<svg version="1.1" xmlns="http://www.w3.org/2000/svg" width="1024" height="1024">
<path d="M0 0 C337.92 0 675.84 0 1024 0 C1024 337.92 1024 675.84 1024 1024 C686.08 1024 348.16 1024 0 1024 C0 686.08 0 348.16 0 0 Z " fill="#000000" transform="translate(0,0)"/>
<path d="M0 0 C0.78228749 -0.00175304 1.56457498 -0.00350607 2.37056816 -0.00531223 C4.98366745 -0.0099525 7.59671061 -0.00751184 10.20981216 -0.00507832 C12.10557292 -0.00694728 14.00133329 -0.00924833 15.89709306 -0.01194364 C21.10057925 -0.01805745 26.30404936 -0.01792853 31.50753832 -0.01674926 C37.1218608 -0.01654515 42.73617812 -0.02206501 48.3504982 -0.02680683 C59.34776046 -0.03511163 70.34501737 -0.03786159 81.3422825 -0.03841921 C90.28173093 -0.03889445 99.22117759 -0.04094958 108.16062546 -0.04411983 C129.38378657 -0.05149313 150.60694621 -0.05764471 171.83010864 -0.05712128 C172.8478361 -0.05709791 172.8478361 -0.05709791 173.8861237 -0.05707407 C177.32483421 -0.05699096 180.76354471 -0.05689192 184.20225522 -0.05678936 C184.88517438 -0.05676942 185.56809354 -0.05674947 186.27170722 -0.05672892 C187.65273584 -0.05668848 189.03376447 -0.05664669 190.41479309 -0.05660353 C211.89857656 -0.05599085 233.38234425 -0.06349648 254.8661232 -0.07717609 C279.01284732 -0.09254505 303.15955777 -0.10112916 327.306288 -0.10021287 C340.08779381 -0.0998809 352.86928181 -0.10262798 365.65078354 -0.11339092 C376.53297681 -0.12249582 387.41514421 -0.12467124 398.29733965 -0.1178815 C403.84813037 -0.11461627 409.39887144 -0.11455977 414.94965744 -0.12323475 C420.03495873 -0.13110043 425.120171 -0.12966756 430.20547011 -0.12095062 C432.04123355 -0.11941579 433.87700363 -0.12123112 435.71275923 -0.12681069 C448.97058148 -0.16442475 461.14386899 0.73798775 473.74014664 5.25363445 C474.59729263 5.5585783 475.45443863 5.86352215 476.33755875 6.17770672 C491.3863173 11.72895145 504.24476483 20.74437862 516.05264664 31.50363445 C516.6302272 32.02796062 517.20780777 32.5522868 517.80289078 33.09250164 C519.19883667 34.39439369 520.53774854 35.75691941 521.86514664 37.12863445 C521.86514664 37.78863445 521.86514664 38.44863445 521.86514664 39.12863445 C522.52514664 39.12863445 523.18514664 39.12863445 523.86514664 39.12863445 C525.68807285 41.34153991 527.3830344 43.55355311 529.05264664 45.87863445 C529.79357559 46.90537273 529.79357559 46.90537273 530.54947281 47.9528532 C548.36240487 72.94039806 554.19634435 99.68386771 554.12584305 129.90852642 C554.12886963 131.76623088 554.13276164 133.6239341 554.13743562 135.48163515 C554.14765879 140.54758508 554.14554839 145.61346378 554.14125502 150.6794194 C554.13877746 156.15804824 554.14781463 161.63666038 554.15529251 167.11528301 C554.16801237 177.83286147 554.16983664 188.55041484 554.16749225 199.26799958 C554.16570612 207.98222916 554.16746504 216.69645115 554.17171669 225.41067982 C554.17231188 226.65294046 554.17290707 227.8952011 554.17352029 229.17510601 C554.17473209 231.6990813 554.17594623 234.22305659 554.17716267 236.74703187 C554.18494392 253.68127285 554.18887316 270.61551072 554.18484592 287.54975319 C554.18468955 288.21104657 554.18453317 288.87233995 554.18437206 289.55367253 C554.18356635 292.90488991 554.18272058 296.25610728 554.18185876 299.60732465 C554.18168767 300.27281325 554.18151658 300.93830184 554.18134031 301.62395676 C554.18099365 302.96973309 554.18064512 304.31550941 554.18029472 305.66128574 C554.17493731 326.60248569 554.18287199 347.54364353 554.20132828 368.48483562 C554.22206968 392.04604153 554.23273597 415.6072273 554.22875279 439.16844374 C554.2268426 451.63139998 554.22931069 464.09431786 554.24346733 476.55726719 C554.25539573 487.1654373 554.25676951 497.77354543 554.24467716 508.38171642 C554.23879917 513.78927967 554.23765925 519.19672962 554.24967957 524.60428524 C554.26057398 529.56311293 554.25739287 534.52173318 554.24341788 539.48055131 C554.24078077 541.26570546 554.24310618 543.05087606 554.25115374 544.83601402 C554.31148288 559.22764224 553.0056561 573.01100536 547.74014664 586.56613445 C547.44011734 587.35270428 547.14008804 588.1392741 546.83096695 588.94967937 C534.00892816 621.56353491 510.60148759 644.69874796 478.86514664 659.12863445 C461.49560225 666.30609952 444.26741838 667.28146621 425.73071671 667.24888897 C423.88242504 667.24932543 422.03413343 667.2502017 420.18584216 667.25147814 C415.12332578 667.25370848 410.06083067 667.24972182 404.998317 667.24470007 C399.53286571 667.24037477 394.06741557 667.24184348 388.60196304 667.24260235 C379.13812731 667.24312626 369.67429848 667.23999328 360.21046448 667.23436451 C346.52740998 667.2262316 332.84435882 667.22363245 319.16130216 667.22237652 C296.96053108 667.22018882 274.75976333 667.21354497 252.55899429 667.20407391 C230.9951924 667.19488522 209.4313915 667.18780369 187.86758804 667.18356609 C186.87003753 667.1833688 186.87003753 667.1833688 185.85233448 667.18316753 C178.51089342 667.18171814 171.16945235 667.18032631 163.82801127 667.17895806 C108.50705386 667.16859422 53.18610042 667.15098356 -2.13485336 667.12863445 C-2.46485336 666.46863445 -2.79485336 665.80863445 -3.13485336 665.12863445 C-4.71266586 665.15957195 -4.71266586 665.15957195 -6.32235336 665.19113445 C-9.49865237 665.13906398 -12.07214343 664.85401312 -15.13485336 664.12863445 C-16.06297836 663.94300945 -16.99110336 663.75738445 -17.94735336 663.56613445 C-18.66922836 663.42175945 -19.39110336 663.27738445 -20.13485336 663.12863445 C-20.13485336 662.46863445 -20.13485336 661.80863445 -20.13485336 661.12863445 C-22.44485336 661.12863445 -24.75485336 661.12863445 -27.13485336 661.12863445 C-27.13485336 660.46863445 -27.13485336 659.80863445 -27.13485336 659.12863445 C-28.12485336 659.45863445 -29.11485336 659.78863445 -30.13485336 660.12863445 C-32.15371086 659.16727374 -34.14977388 658.15793492 -36.13485336 657.12863445 C-37.62791637 656.62827104 -39.12855676 656.15012382 -40.63485336 655.69113445 C-44.6355014 654.41820099 -47.70600264 652.57781354 -51.13485336 650.12863445 C-52.12485336 649.79863445 -53.11485336 649.46863445 -54.13485336 649.12863445 C-54.13485336 648.46863445 -54.13485336 647.80863445 -54.13485336 647.12863445 C-54.71750961 647.01390789 -55.30016586 646.89918133 -55.90047836 646.7809782 C-58.30008471 646.08039383 -59.86346269 645.14670851 -61.88485336 643.69113445 C-62.49844711 643.25929852 -63.11204086 642.82746258 -63.74422836 642.3825407 C-64.20313461 641.96875164 -64.66204086 641.55496258 -65.13485336 641.12863445 C-65.13485336 640.46863445 -65.13485336 639.80863445 -65.13485336 639.12863445 C-65.71750961 639.03453289 -66.30016586 638.94043133 -66.90047836 638.8434782 C-69.63378673 637.96901067 -70.89325151 636.73805858 -72.88485336 634.69113445 C-73.80524399 633.76494305 -73.80524399 633.76494305 -74.74422836 632.8200407 C-76.13485336 631.12863445 -76.13485336 631.12863445 -76.13485336 629.12863445 C-76.71235336 628.88113445 -77.28985336 628.63363445 -77.88485336 628.37863445 C-80.48393995 626.93469746 -82.21322174 625.39341458 -84.13485336 623.12863445 C-84.13485336 622.13863445 -84.13485336 621.14863445 -84.13485336 620.12863445 C-84.71235336 619.94300945 -85.28985336 619.75738445 -85.88485336 619.56613445 C-89.27947672 617.39734731 -90.33982649 614.7186882 -92.13485336 611.12863445 C-92.13485336 610.46863445 -92.13485336 609.80863445 -92.13485336 609.12863445 C-92.79485336 609.12863445 -93.45485336 609.12863445 -94.13485336 609.12863445 C-95.59548187 606.48124529 -96.13485336 605.23415111 -96.13485336 602.12863445 C-96.79485336 602.12863445 -97.45485336 602.12863445 -98.13485336 602.12863445 C-100.38139419 597.34252574 -101.39652938 593.4023772 -102.13485336 588.12863445 C-102.79485336 587.79863445 -103.45485336 587.46863445 -104.13485336 587.12863445 C-106.53881324 581.71972472 -107.75559056 576.47498502 -108.70516586 570.64425945 C-109.07953404 568.1713262 -109.07953404 568.1713262 -109.75204086 565.98800945 C-110.13485336 564.12863445 -110.13485336 564.12863445 -109.13485336 561.12863445 C-109.79485336 560.79863445 -110.45485336 560.46863445 -111.13485336 560.12863445 C-111.08602524 557.24777508 -111.08602524 557.24777508 -111.03719711 554.3669157 C-111.07493385 552.0950423 -111.07493385 552.0950423 -111.63094711 549.78488445 C-112.23925443 546.57830326 -112.26680839 543.58151967 -112.25985336 540.31613445 C-112.25864487 539.63816814 -112.25743637 538.96020184 -112.25619125 538.26169109 C-112.2250675 533.92495563 -112.07904684 529.60114663 -111.87313461 525.26925945 C-111.82463364 524.24421307 -111.77613266 523.21916668 -111.72616196 522.16305828 C-111.62693138 520.1650585 -111.51976915 518.16742933 -111.40291977 516.1703825 C-111.13568472 510.91668353 -111.18635469 505.82685742 -111.61898422 500.58249187 C-112.35236092 490.63381162 -112.27946526 480.68483237 -112.26766586 470.71457195 C-112.26834108 468.68532582 -112.26931291 466.65607977 -112.27056503 464.62683392 C-112.27202841 460.40623473 -112.26992935 456.18565691 -112.26522446 451.96506023 C-112.25949115 446.55936988 -112.26283738 441.1537288 -112.26879692 435.7480402 C-112.27240821 431.57191883 -112.27126195 427.39580918 -112.26866913 423.21968746 C-112.26800333 421.22540182 -112.26881613 419.2311151 -112.27114868 417.23683071 C-112.27368852 414.45903721 -112.26981743 411.68132429 -112.26424789 408.9035368 C-112.26627213 408.08481091 -112.26829636 407.26608501 -112.27038193 406.42254925 C-112.25585409 402.51061751 -111.91324114 398.95007495 -111.13485336 395.12863445 C-111.98464811 392.37607202 -111.98464811 392.37607202 -113.13485336 390.12863445 C-112.80485336 389.79863445 -112.47485336 389.46863445 -112.13485336 389.12863445 C-110.62034676 380.7672959 -111.06951703 372.25720791 -111.15536118 363.79440594 C-111.22774459 355.94747211 -111.12261448 348.16516531 -110.63485336 340.33175945 C-109.86568449 327.62742227 -110.06342588 314.91287855 -110.13485336 302.19113445 C-110.16145499 297.34868905 -110.18137877 292.50628142 -110.19735336 287.6637907 C-110.20980087 286.01238834 -110.20980087 286.01238834 -110.22249985 284.32762432 C-110.22580307 283.30813198 -110.22910629 282.28863964 -110.23250961 281.23825359 C-110.23774643 280.34513973 -110.24298325 279.45202587 -110.24837875 278.53184795 C-110.13485336 276.12863445 -110.13485336 276.12863445 -109.56624985 273.87178326 C-109.42388901 273.29654415 -109.28152817 272.72130505 -109.13485336 272.12863445 C-109.46485336 271.79863445 -109.79485336 271.46863445 -110.13485336 271.12863445 C-110.22185679 269.49390563 -110.24186399 267.8554939 -110.23250961 266.2184782 C-110.22928696 265.22912273 -110.2260643 264.23976727 -110.22274399 263.22043133 C-110.21436508 262.17951336 -110.20598618 261.13859539 -110.19735336 260.06613445 C-110.19284164 259.0213493 -110.18832993 257.97656414 -110.18368149 256.90011883 C-110.17185249 254.30956785 -110.15537026 251.71912887 -110.13485336 249.12863445 C-110.79485336 248.79863445 -111.45485336 248.46863445 -112.13485336 248.12863445 C-111.97259262 247.56885906 -111.81033188 247.00908367 -111.64315414 246.43234539 C-111.10033198 243.97217732 -111.00541878 241.78725249 -111.00204086 239.26925945 C-111.0007518 238.31664227 -110.99946274 237.36402508 -110.99813461 236.3825407 C-111.0020018 235.39125164 -111.00586899 234.39996258 -111.00985336 233.37863445 C-111.00598618 232.43375164 -111.00211899 231.48886883 -110.99813461 230.5153532 C-111.00536899 225.08233932 -111.22362959 219.71749504 -111.63875961 214.30050945 C-112.5954524 200.94456504 -112.23813638 187.50835241 -112.19735336 174.12863445 C-112.17672836 164.55863445 -112.15610336 154.98863445 -112.13485336 145.12863445 C-112.46485336 168.55863445 -112.79485336 191.98863445 -113.13485336 216.12863445 C-113.46485336 216.12863445 -113.79485336 216.12863445 -114.13485336 216.12863445 C-114.20498864 203.89593973 -114.25798218 191.66329441 -114.29028988 179.43043804 C-114.30581168 173.74756955 -114.3267969 168.06484063 -114.36117172 162.38205242 C-114.39425452 156.87713573 -114.41180711 151.37235153 -114.41948509 145.86734295 C-114.42494234 143.78826091 -114.43559226 141.70918444 -114.45204353 139.63016033 C-114.75988518 99.0369669 -106.15645841 63.91300143 -77.45565414 34.03415203 C-71.4838682 27.99418133 -65.45473083 22.50501036 -58.13485336 18.12863445 C-57.06879868 17.47636883 -56.00274399 16.8241032 -54.90438461 16.15207195 C-37.79256487 5.89604949 -20.09640266 -0.05788573 0 0 Z " fill="#F3BD15" transform="translate(306.1348533630371,178.87136554718018)"/>
<path d="M0 0 C0.65564941 0.14453613 1.31129883 0.28907227 1.98681641 0.43798828 C42.2589361 9.59581354 76.98146964 34.17810199 99 69 C105.13618549 78.89661446 110.19314565 88.98323643 114 100 C114.22671387 100.65548828 114.45342773 101.31097656 114.68701172 101.98632812 C127.89775078 141.17535848 123.79097757 184.16498682 105.953125 221.171875 C97.08090895 238.78388596 84.34969401 255.58286371 69 268 C67.58267578 269.15628906 67.58267578 269.15628906 66.13671875 270.3359375 C31.36098904 298.18470608 -11.42283481 309.06738263 -55.5625 304.3125 C-90.98496325 298.90073478 -119.97452497 282.02547503 -145 257 C-145.55042969 256.49597656 -146.10085938 255.99195313 -146.66796875 255.47265625 C-172.35058707 231.63865827 -185.5071158 191.90373516 -187.109375 157.66259766 C-188.40130332 118.08921843 -175.38021779 78.08339352 -148.4375 48.6875 C-146.64104972 46.77534086 -144.82277794 44.88739636 -143 43 C-142.26136719 42.20980469 -141.52273438 41.41960937 -140.76171875 40.60546875 C-105.39986443 3.69208883 -49.33716552 -11.07810307 0 0 Z " fill="#000000" transform="translate(545,361)"/>
<path d="M0 0 C0.90363281 0.73605469 1.80726563 1.47210938 2.73828125 2.23046875 C6.44968688 5.10105088 8.68436348 6.50733986 13.42578125 6.23046875 C20.2331352 5.0222371 26.69455895 2.41789217 33.11328125 -0.08203125 C34.10328125 -0.41203125 35.09328125 -0.74203125 36.11328125 -1.08203125 C33.40503798 6.49571346 27.91403531 12.46877554 22.11328125 17.91796875 C28.96145227 17.4315566 35.44370198 16.55802923 42.11328125 14.91796875 C40.47896004 18.90341872 37.70804192 21.76288469 34.80078125 24.85546875 C34.09018555 25.62407227 34.09018555 25.62407227 33.36523438 26.40820312 C32.89408203 26.91544922 32.42292969 27.42269531 31.9375 27.9453125 C31.47005371 28.45239746 31.00260742 28.95948242 30.52099609 29.48193359 C29.11328125 30.91796875 29.11328125 30.91796875 26.3203125 33.203125 C23.14304524 37.1114449 23.30640602 40.51151916 23.11328125 45.41796875 C21.92394363 62.65507353 17.8447964 78.4717461 10.11328125 93.91796875 C9.55640625 95.0575 8.99953125 96.19703125 8.42578125 97.37109375 C4.42593394 105.18561026 -0.37216302 112.09910071 -5.88671875 118.91796875 C-6.53511719 119.72105469 -7.18351563 120.52414062 -7.8515625 121.3515625 C-25.44992239 142.1169074 -52.1559819 154.44563573 -78.88671875 157.91796875 C-94.49890486 158.9568679 -109.96581581 158.89675709 -124.88671875 153.91796875 C-125.54881348 153.70366211 -126.2109082 153.48935547 -126.89306641 153.26855469 C-137.14824614 149.90322941 -146.51034974 145.2258558 -155.88671875 139.91796875 C-155.88671875 139.58796875 -155.88671875 139.25796875 -155.88671875 138.91796875 C-154.70078125 138.95277344 -153.51484375 138.98757813 -152.29296875 139.0234375 C-132.82889944 139.42190177 -116.62004207 136.4867334 -100.1640625 125.37109375 C-97.88671875 123.91796875 -97.88671875 123.91796875 -94.88671875 122.91796875 C-94.88671875 122.25796875 -94.88671875 121.59796875 -94.88671875 120.91796875 C-95.81484375 121.00046875 -96.74296875 121.08296875 -97.69921875 121.16796875 C-106.79391798 121.14955843 -116.2424555 116.17910364 -122.828125 110.13671875 C-127.29608381 105.43556793 -129.22804328 101.16239406 -130.88671875 94.91796875 C-126.92671875 93.92796875 -122.96671875 92.93796875 -118.88671875 91.91796875 C-120.72234375 91.05171875 -122.55796875 90.18546875 -124.44921875 89.29296875 C-135.47029552 83.71775269 -142.4917711 76.12860034 -146.76171875 64.29296875 C-148.06260156 59.87954425 -148.52337792 55.49606315 -148.88671875 50.91796875 C-143.27671875 52.56796875 -137.66671875 54.21796875 -131.88671875 55.91796875 C-133.71203125 53.99984375 -133.71203125 53.99984375 -135.57421875 52.04296875 C-143.65103354 42.8940104 -147.45810561 32.37909092 -147.15234375 20.09765625 C-146.43938901 14.2472335 -144.74661925 8.49767024 -142.88671875 2.91796875 C-142.22671875 2.91796875 -141.56671875 2.91796875 -140.88671875 2.91796875 C-139.54424057 4.50125019 -138.26380518 6.13727936 -137.01171875 7.79296875 C-117.51350882 31.96455916 -87.46716609 41.84703492 -57.88671875 46.91796875 C-58.21027344 45.84933594 -58.53382813 44.78070313 -58.8671875 43.6796875 C-61.63695376 33.46020509 -59.35739663 22.81776112 -54.19921875 13.66796875 C-47.91742369 4.08400759 -39.65451374 -2.90666305 -28.3046875 -5.72265625 C-18.47228326 -7.1840152 -8.2281578 -5.93451706 0 0 Z " fill="#FEC300" transform="translate(572.88671875,438.08203125)"/>
<path d="M0 0 C1.9018029 -0.00230883 3.8036049 -0.00548818 5.70540506 -0.00945449 C10.89309602 -0.01775284 16.08071277 -0.01369994 21.26840389 -0.00748205 C26.8778341 -0.00293824 32.48725197 -0.0099508 38.09667969 -0.01544189 C49.06959537 -0.02431647 60.04248363 -0.02242267 71.01540037 -0.01661661 C79.93465999 -0.0120932 88.85391194 -0.01149016 97.77317238 -0.01366425 C99.04434153 -0.01397071 100.31551067 -0.01427718 101.6252001 -0.01459293 C104.20780831 -0.0152324 106.79041653 -0.01588083 109.37302474 -0.01653811 C132.87711534 -0.02207327 156.38118756 -0.01634143 179.88527487 -0.00585292 C201.3232082 0.00364084 222.76111777 0.0027852 244.1990509 -0.0067749 C268.31250045 -0.01749232 292.4259338 -0.02168969 316.53938657 -0.01555037 C319.11138459 -0.01491329 321.68338261 -0.01428455 324.25538063 -0.01366425 C325.52075799 -0.01335569 326.78613535 -0.01304714 328.08985749 -0.01272924 C336.99762377 -0.01100395 345.90538161 -0.01391376 354.81314659 -0.01862335 C365.66955455 -0.02423724 376.52593359 -0.02270488 387.38233825 -0.01206186 C392.91899883 -0.00681253 398.45561122 -0.00473592 403.99227142 -0.01136017 C409.06434372 -0.01733674 414.13632335 -0.01401634 419.20838729 -0.00340506 C421.03922957 -0.00117832 422.87007974 -0.00229094 424.70091691 -0.00715664 C437.9432831 -0.03963967 450.10726301 0.86869356 462.68855286 5.37896729 C463.54569885 5.68391113 464.40284485 5.98885498 465.28596497 6.30303955 C480.33472352 11.85428429 493.19317105 20.86971146 505.00105286 31.62896729 C505.57863342 32.15329346 506.15621399 32.67761963 506.751297 33.21783447 C508.14724289 34.51972652 509.48615476 35.88225224 510.81355286 37.25396729 C510.81355286 37.91396729 510.81355286 38.57396729 510.81355286 39.25396729 C511.47355286 39.25396729 512.13355286 39.25396729 512.81355286 39.25396729 C514.63647907 41.46687274 516.33144062 43.67888594 518.00105286 46.00396729 C518.74198181 47.03070557 518.74198181 47.03070557 519.49787903 48.07818604 C537.31081109 73.06573089 543.14475057 99.80920054 543.07424927 130.03385925 C543.07727585 131.89156372 543.08116786 133.74926694 543.08584183 135.60696799 C543.09606501 140.67291791 543.09395461 145.73879662 543.08966124 150.80475223 C543.08718368 156.28338107 543.09622085 161.76199321 543.10369873 167.24061584 C543.11641859 177.9581943 543.11824286 188.67574768 543.11589847 199.39333241 C543.11411234 208.10756199 543.11587126 216.82178398 543.12012291 225.53601265 C543.1207181 226.77827329 543.12131329 228.02053394 543.12192651 229.30043884 C543.12313831 231.82441413 543.12435245 234.34838942 543.12556889 236.87236471 C543.13335014 253.80660568 543.13727938 270.74084355 543.13325214 287.67508602 C543.13309577 288.3363794 543.13293939 288.99767279 543.13277828 289.67900536 C543.13197257 293.03022274 543.1311268 296.38144012 543.13026498 299.73265748 C543.13009389 300.39814608 543.1299228 301.06363467 543.12974653 301.74928959 C543.12939987 303.09506592 543.12905134 304.44084225 543.12870094 305.78661857 C543.12334353 326.72781852 543.1312782 347.66897636 543.1497345 368.61016846 C543.1704759 392.17137436 543.18114219 415.73256013 543.17715901 439.29377657 C543.17524882 451.75673282 543.17771691 464.2196507 543.19187355 476.68260002 C543.20380195 487.29077014 543.20517573 497.89887826 543.19308338 508.50704926 C543.18720539 513.91461251 543.18606547 519.32206245 543.19808578 524.72961807 C543.2089802 529.68844576 543.20579909 534.64706601 543.1918241 539.60588414 C543.18918699 541.3910383 543.1915124 543.1762089 543.19955996 544.96134686 C543.2598891 559.35297507 541.95406232 573.13633819 536.68855286 586.69146729 C536.38852356 587.47803711 536.08849426 588.26460693 535.77937317 589.07501221 C526.95984905 611.50815956 512.80065601 631.41674202 492.81355286 645.25396729 C492.15355286 644.92396729 491.49355286 644.59396729 490.81355286 644.25396729 C490.81355286 643.26396729 490.81355286 642.27396729 490.81355286 641.25396729 C491.47355286 641.25396729 492.13355286 641.25396729 492.81355286 641.25396729 C492.81355286 640.59396729 492.81355286 639.93396729 492.81355286 639.25396729 C495.12355286 638.92396729 497.43355286 638.59396729 499.81355286 638.25396729 C499.48355286 637.26396729 499.15355286 636.27396729 498.81355286 635.25396729 C501.9997143 631.79470629 504.4291033 629.86929081 508.81355286 628.25396729 C511.25339784 626.24980891 511.7847924 625.34024865 512.81355286 622.25396729 C513.47355286 621.59396729 514.13355286 620.93396729 514.81355286 620.25396729 C514.81355286 618.93396729 514.81355286 617.61396729 514.81355286 616.25396729 C517.81355286 614.75396729 517.81355286 614.75396729 520.81355286 613.25396729 C520.81355286 612.59396729 520.81355286 611.93396729 520.81355286 611.25396729 C521.47355286 611.25396729 522.13355286 611.25396729 522.81355286 611.25396729 C523.8888048 608.60167916 524.90811437 605.97028274 525.81355286 603.25396729 C526.16417786 602.57334229 526.51480286 601.89271729 526.87605286 601.19146729 C527.95873983 599.31264702 527.95873983 599.31264702 527.81355286 597.25396729 C528.47355286 596.92396729 529.13355286 596.59396729 529.81355286 596.25396729 C530.15378072 594.25512859 530.48684383 592.25506007 530.81355286 590.25396729 C531.47355286 589.59396729 532.13355286 588.93396729 532.81355286 588.25396729 C532.95792786 587.65584229 533.10230286 587.05771729 533.25105286 586.44146729 C533.81355286 584.25396729 533.81355286 584.25396729 535.28230286 582.07818604 C537.15668427 578.6210999 537.46847165 575.78066699 537.87605286 571.87896729 C538.42407902 566.7536178 539.28781611 562.15405128 540.81355286 557.25396729 C540.15355286 557.25396729 539.49355286 557.25396729 538.81355286 557.25396729 C538.81355286 550.65396729 538.81355286 544.05396729 538.81355286 537.25396729 C539.47355286 537.25396729 540.13355286 537.25396729 540.81355286 537.25396729 C540.48355286 536.26396729 540.15355286 535.27396729 539.81355286 534.25396729 C540.14355286 533.26396729 540.47355286 532.27396729 540.81355286 531.25396729 C540.91133452 528.98485757 540.94330932 526.71267787 540.93855286 524.44146729 C540.93734436 523.76841553 540.93613586 523.09536377 540.93489075 522.4019165 C540.90283334 518.19697073 540.65070296 514.06750795 540.25105286 509.87896729 C539.68116103 502.91986571 539.91200549 496.03902289 540.18855286 489.06646729 C540.23165588 487.95416748 540.27475891 486.84186768 540.31916809 485.69586182 C540.68137674 477.65049563 540.68137674 477.65049563 541.81355286 474.25396729 C541.15355286 474.25396729 540.49355286 474.25396729 539.81355286 474.25396729 C539.89734192 473.67131104 539.98113098 473.08865479 540.06745911 472.48834229 C540.81473827 466.47227208 540.66866269 460.93775424 539.96980286 454.91802979 C539.81355286 452.25396729 539.81355286 452.25396729 540.30915833 450.39019775 C540.8843492 447.95412797 540.84982057 445.9084204 540.72761536 443.41021729 C540.66187317 442.03543213 540.66187317 442.03543213 540.59480286 440.63287354 C540.54324036 439.68283447 540.49167786 438.73279541 540.43855286 437.75396729 C540.37281067 436.32890869 540.37281067 436.32890869 540.30574036 434.87506104 C540.1117447 429.93453483 540.1117447 429.93453483 539.2603302 425.08404541 C538.81355286 423.25396729 538.81355286 423.25396729 539.31355286 421.12896729 C539.8163935 418.23763359 539.65730069 416.15004278 539.31355286 413.25396729 C538.89123343 409.67227087 538.76129387 406.76149725 539.81355286 403.25396729 C539.48355286 403.25396729 539.15355286 403.25396729 538.81355286 403.25396729 C538.78828161 397.00601054 538.77071942 390.75806687 538.75862122 384.5100708 C538.75357987 382.38278715 538.74674695 380.25550697 538.7381134 378.12823486 C538.72603907 375.07768903 538.72032271 372.02718883 538.71589661 368.97662354 C538.71073532 368.01933853 538.70557404 367.06205353 538.70025635 366.07575989 C538.70018082 365.19492233 538.70010529 364.31408478 538.70002747 363.40655518 C538.69669655 362.23740318 538.69669655 362.23740318 538.69329834 361.04463196 C538.81355286 359.25396729 538.81355286 359.25396729 539.81355286 358.25396729 C540.02681689 352.64919639 540.02681689 352.64919639 538.81355286 347.25396729 C539.08647181 345.01660044 539.42938498 342.78743783 539.81355286 340.56646729 C541.1776938 331.72627667 541.1776938 331.72627667 538.81355286 323.25396729 C539.47355286 323.25396729 540.13355286 323.25396729 540.81355286 323.25396729 C540.67472432 318.67039353 540.52628538 314.08718032 540.37605286 309.50396729 C540.33673645 308.20201416 540.29742004 306.90006104 540.25691223 305.55865479 C540.19407043 303.68306885 540.19407043 303.68306885 540.12995911 301.76959229 C540.07497253 300.04144287 540.07497253 300.04144287 540.01887512 298.27838135 C539.91584097 295.36106962 539.91584097 295.36106962 539.23127747 293.03424072 C538.81355286 291.25396729 538.81355286 291.25396729 539.81355286 288.25396729 C539.96709461 286.01455813 540.06317439 283.77107772 540.12995911 281.52740479 C540.16133469 280.50102905 540.16133469 280.50102905 540.19334412 279.45391846 C540.26023498 277.17905758 540.31896055 274.90409416 540.37605286 272.62896729 C540.40682419 271.45977753 540.40682419 271.45977753 540.43821716 270.26696777 C540.76424869 257.64065588 540.94223409 245.01309299 540.98979187 232.38269043 C540.99729859 230.54702203 541.00797928 228.71136387 541.02183533 226.87573242 C541.03956035 224.30119457 541.04386165 221.72699611 541.04402161 219.15240479 C541.0511618 218.38009521 541.058302 217.60778564 541.06565857 216.81207275 C541.19760496 212.5726617 541.19760496 212.5726617 538.81355286 209.25396729 C538.54792786 207.19537354 538.54792786 207.19537354 538.56355286 204.81646729 C538.55839661 204.03400635 538.55324036 203.25154541 538.54792786 202.44537354 C538.81355286 200.25396729 538.81355286 200.25396729 540.81355286 197.25396729 C541.14698837 194.71188757 541.14698837 194.71188757 540.81355286 192.25396729 C540.15355286 191.59396729 539.49355286 190.93396729 538.81355286 190.25396729 C539.47355286 190.25396729 540.13355286 190.25396729 540.81355286 190.25396729 C540.81355286 165.83396729 540.81355286 141.41396729 540.81355286 116.25396729 C540.15355286 116.25396729 539.49355286 116.25396729 538.81355286 116.25396729 C538.99917786 115.18146729 539.18480286 114.10896729 539.37605286 113.00396729 C539.77488408 109.58541397 539.63847237 108.38398104 538.81355286 105.25396729 C538.66665211 103.52652335 538.54343186 101.7969709 538.43855286 100.06646729 C537.98548724 94.74294634 536.7392461 90.21353574 534.81355286 85.25396729 C531.83665124 77.36236961 531.83665124 77.36236961 531.41902161 75.40240479 C530.27843159 71.3551499 528.03913098 67.73983246 526.09089661 64.03131104 C524.81355286 61.25396729 524.81355286 61.25396729 524.81355286 58.25396729 C524.15355286 58.25396729 523.49355286 58.25396729 522.81355286 58.25396729 C521.66511536 56.67974854 521.66511536 56.67974854 520.43855286 54.56646729 C518.44729269 51.2378815 516.282889 48.25244688 513.81355286 45.25396729 C513.48355286 44.59396729 513.15355286 43.93396729 512.81355286 43.25396729 C512.15355286 43.58396729 511.49355286 43.91396729 510.81355286 44.25396729 C510.56347473 43.51533447 510.31339661 42.77670166 510.05574036 42.01568604 C508.71239781 39.02907226 507.27191664 37.34259761 504.93855286 35.06646729 C504.26050598 34.3922876 503.58245911 33.71810791 502.88386536 33.02349854 C500.92677382 31.35073917 499.1614993 30.2805358 496.81355286 29.25396729 C496.81355286 28.26396729 496.81355286 27.27396729 496.81355286 26.25396729 C496.09167786 26.00646729 495.36980286 25.75896729 494.62605286 25.50396729 C491.81355286 24.25396729 491.81355286 24.25396729 489.25105286 22.19146729 C486.86816664 20.29737824 485.65510933 19.93986023 482.81355286 19.25396729 C482.15355286 18.26396729 481.49355286 17.27396729 480.81355286 16.25396729 C479.82355286 16.25396729 478.83355286 16.25396729 477.81355286 16.25396729 C477.81355286 15.59396729 477.81355286 14.93396729 477.81355286 14.25396729 C476.97824036 14.06834229 476.97824036 14.06834229 476.12605286 13.87896729 C473.58743935 13.19285553 471.2507779 12.24046313 468.81355286 11.25396729 C464.90088282 9.77209169 464.90088282 9.77209169 460.81355286 9.25396729 C460.81355286 8.59396729 460.81355286 7.93396729 460.81355286 7.25396729 C456.85355286 6.75896729 456.85355286 6.75896729 452.81355286 6.25396729 C452.81355286 5.59396729 452.81355286 4.93396729 452.81355286 4.25396729 C451.86480286 4.27459229 450.91605286 4.29521729 449.93855286 4.31646729 C446.81355286 4.25396729 446.81355286 4.25396729 444.81355286 3.25396729 C444.48355286 3.91396729 444.15355286 4.57396729 443.81355286 5.25396729 C442.85449036 4.78990479 442.85449036 4.78990479 441.87605286 4.31646729 C435.31048931 2.03861871 428.61707216 2.14788784 421.75105286 2.69146729 C412.5648353 3.29243479 403.3901483 3.37176391 394.18855286 3.37896729 C393.14741837 3.38257767 393.14741837 3.38257767 392.08525085 3.38626099 C384.57014394 3.4085854 377.26573445 3.22139045 369.81355286 2.25396729 C368.14830636 2.17354345 366.48073023 2.12317847 364.81355286 2.12896729 C364.07105286 2.12638916 363.32855286 2.12381104 362.56355286 2.12115479 C360.21498357 2.23458001 357.94935485 2.47025522 355.61824036 2.75787354 C350.71126951 3.32726924 345.87312553 3.36705833 340.93855286 3.31646729 C340.09808411 3.31195557 339.25761536 3.30744385 338.39167786 3.30279541 C336.8462528 3.29415485 335.30083671 3.28344081 333.75544739 3.26983643 C329.72097363 3.23686675 325.6862395 3.26057283 321.65168762 3.26983643 C314.24714604 3.28622975 306.84260514 3.29743203 299.43805027 3.30577946 C294.95668118 3.31100632 290.475331 3.3181056 285.99397278 3.32940674 C281.65927888 3.340267 277.32460322 3.34625029 272.98989677 3.34884453 C271.33808542 3.35069182 269.68627507 3.35429908 268.03447151 3.35969734 C265.72456316 3.36695031 263.41473052 3.36795647 261.10481262 3.36749268 C259.1331588 3.37082359 259.1331588 3.37082359 257.12167358 3.3742218 C254.43081925 3.27640573 252.3697644 2.96873393 249.81355286 2.25396729 C247.47749215 2.34633703 245.14392722 2.50420506 242.81355286 2.69146729 C233.33908259 3.32910389 223.86737869 3.37995212 214.37605286 3.37896729 C213.59137634 3.37904785 212.80669983 3.37912842 211.99824524 3.37921143 C202.0051855 3.37001207 192.04701689 3.16076253 182.06355286 2.69146729 C172.62783421 2.25269508 163.31252227 2.36418601 153.87605286 2.75396729 C142.66943083 3.21370961 131.55801384 3.19406327 120.34849548 2.83670044 C92.42414947 1.94726049 64.52009399 2.49470593 36.59191895 2.92489624 C11.32013794 3.31360765 11.32013794 3.31360765 0.61824036 3.35162354 C-0.26000397 3.3578624 -1.13824829 3.36410126 -2.04310608 3.37052917 C-5.3530471 3.37173968 -8.02351074 3.30827942 -11.18644714 2.25396729 C-12.23832214 2.56334229 -13.29019714 2.87271729 -14.37394714 3.19146729 C-17.49079436 4.06009684 -19.37876289 4.37319791 -22.49894714 4.31646729 C-26.00929263 3.97276212 -26.00929263 3.97276212 -28.18644714 5.25396729 C-29.17644714 5.37771729 -30.16644714 5.50146729 -31.18644714 5.62896729 C-36.6171464 6.3492495 -43.23638243 7.30390257 -47.18644714 11.25396729 C-49.81144714 11.37896729 -49.81144714 11.37896729 -52.18644714 11.25396729 C-52.51644714 11.91396729 -52.84644714 12.57396729 -53.18644714 13.25396729 C-55.06565538 14.19357141 -56.94729629 15.12872122 -58.84269714 16.03521729 C-62.83572293 18.11159069 -66.49427896 20.68996161 -70.18644714 23.25396729 C-70.51644714 22.59396729 -70.84644714 21.93396729 -71.18644714 21.25396729 C-67.64579261 17.4138213 -64.08793605 14.73469893 -59.43644714 12.31646729 C-58.78740417 11.97728271 -58.13836121 11.63809814 -57.46965027 11.28863525 C-52.65352523 8.84728684 -47.75339896 6.74181722 -42.68644714 4.87896729 C-42.06028503 4.64057129 -41.43412292 4.40217529 -40.78898621 4.15655518 C-27.75701891 -0.36997737 -13.607417 -0.03630829 0 0 Z " fill="#FEF8C0" transform="translate(317.1864471435547,178.74603271484375)"/>
<path d="M0 0 C1.9975723 3.679695 2.2384994 6.2287579 2.21118164 10.44580078 C2.20780289 11.75461212 2.20442413 13.06342346 2.20094299 14.41189575 C2.18739917 15.83970183 2.17380224 17.2675074 2.16015625 18.6953125 C2.15387905 20.16779181 2.14864122 21.64027589 2.14439392 23.11276245 C2.13109546 26.99206277 2.10668439 30.87120546 2.07904053 34.75042725 C2.03594564 40.93716695 2.00599622 47.12394322 1.9829998 53.3107872 C1.97288733 55.45872991 1.95581764 57.60653431 1.93800354 59.75442505 C1.89862735 66.19990169 2.01923169 72.5297365 2.77168274 78.9362793 C3.07418665 81.67056043 3.11307142 84.37173928 3.09765625 87.12109375 C3.09443359 88.15814453 3.09121094 89.19519531 3.08789062 90.26367188 C3.07951172 91.31103516 3.07113281 92.35839844 3.0625 93.4375 C3.05798828 94.51193359 3.05347656 95.58636719 3.04882812 96.69335938 C3.04016529 98.66724789 3.0294346 100.64112932 3.01586914 102.61499023 C2.9959406 105.61009639 3.05118597 108.33910702 3.5 111.3125 C4.19808671 116.50936774 4.02800974 121.69318677 3.9375 126.92578125 C3.8486538 130.04076028 3.8486538 130.04076028 5 133 C4.69074319 134.67130162 4.35419827 136.3376425 4 138 C3.92078483 139.89795923 3.8922212 141.79841341 3.90234375 143.69799805 C3.90564697 144.82074631 3.9089502 145.94349457 3.91235352 147.1002655 C3.92065186 148.30854507 3.9289502 149.51682465 3.9375 150.76171875 C3.94317993 152.65142143 3.94317993 152.65142143 3.94897461 154.57929993 C3.96322125 159.28801319 3.98616321 163.99665182 4.01037598 168.70532227 C4.15459105 197.22863213 4.15459105 197.22863213 3.35791016 209.1685791 C2.92354227 215.68292135 2.92047143 222.16218091 3 228.6875 C3.09862345 237.10501147 2.74885517 244.75539705 1 253 C1.66 253.33 2.32 253.66 3 254 C2.83766876 255.13577988 2.67533752 256.27155975 2.50808716 257.4417572 C1.94720769 261.95321042 1.85895754 266.39041052 1.87060547 270.93188477 C1.86885315 271.78677994 1.86710083 272.64167511 1.86529541 273.5224762 C1.86092055 276.32880732 1.86380131 279.13507456 1.8671875 281.94140625 C1.86651277 283.91186027 1.86554134 285.88231421 1.86428833 287.85276794 C1.86281689 291.97908319 1.8649465 296.10537674 1.86962891 300.23168945 C1.87529954 305.48077677 1.87206062 310.72981265 1.86605644 315.97889805 C1.86241335 320.04992549 1.86360694 324.12094109 1.86618423 328.19196892 C1.86684455 330.12495874 1.86605694 332.05794968 1.86370468 333.99093819 C1.85419241 344.01152381 2.02875786 353.92557311 2.78881836 363.92070007 C3.03510064 367.51181253 3.03355765 370.97552665 2.87890625 374.5703125 C2.83056641 375.81683594 2.78222656 377.06335938 2.73242188 378.34765625 C2.67634766 379.59417969 2.62027344 380.84070313 2.5625 382.125 C1.37117691 398.64816326 1.37117691 398.64816326 3 415 C3.28098632 417.49765617 3.49967234 419.99625531 3.71875 422.5 C4.23176401 427.06012452 5.33868527 431.39612511 6.5625 435.8125 C6.83191406 436.78832031 7.10132813 437.76414062 7.37890625 438.76953125 C7.58386719 439.50558594 7.78882813 440.24164062 8 441 C7.34 441.33 6.68 441.66 6 442 C-1.30778429 425.7203422 -0.61267961 406.5711596 -0.60747957 389.14869142 C-0.61076711 385.57770508 -0.63691444 382.00686379 -0.65975952 378.43595886 C-0.70111969 371.40103365 -0.72122738 364.36620096 -0.73395979 357.33117193 C-0.74497671 351.54127303 -0.7648534 345.75146101 -0.79046631 339.96160889 C-0.79414864 339.12711259 -0.79783098 338.2926163 -0.80162489 337.43283224 C-0.80915347 335.73137312 -0.81668997 334.02991403 -0.82423425 332.32845497 C-0.91197166 312.16804287 -0.95383853 292.00760956 -0.98567855 271.84704256 C-0.99671564 264.86626689 -1.00939264 257.88549556 -1.02282715 250.90472412 C-1.07407232 223.9991804 -1.10721059 197.09365729 -1.12159729 170.18806839 C-1.12375001 166.18126 -1.12634795 162.17445232 -1.12937927 158.1676445 C-1.16862783 105.43649084 -0.87084508 52.72440539 0 0 Z " fill="#992F01" transform="translate(193,320)"/>
<path d="M0 0 C98.34 0 196.68 0 298 0 C297.67 0.99 297.34 1.98 297 3 C197.67 3 98.34 3 -4 3 C-2.68 2.67 -1.36 2.34 0 2 C0 1.34 0 0.68 0 0 Z " fill="#E69500" transform="translate(319,843)"/>
<path d="M0 0 C0.66 0.33 1.32 0.66 2 1 C2.07045022 14.93546558 2.12296272 28.87090308 2.15543652 42.80651093 C2.17102967 49.27878537 2.19215098 55.75093938 2.22631836 62.22314453 C2.25913943 68.48015003 2.27690065 74.73704036 2.28463173 80.99412537 C2.29013465 83.37008983 2.30087936 85.74604866 2.31719017 88.1219635 C2.42527846 104.5333638 1.89432755 119.94179867 -4.125 135.4375 C-4.4250293 136.22406982 -4.72505859 137.01063965 -5.03417969 137.82104492 C-13.85370381 160.25419228 -28.01289684 180.16277474 -48 194 C-48.66 193.67 -49.32 193.34 -50 193 C-50 192.01 -50 191.02 -50 190 C-49.34 190 -48.68 190 -48 190 C-48 189.34 -48 188.68 -48 188 C-45.69 187.67 -43.38 187.34 -41 187 C-41.33 186.01 -41.66 185.02 -42 184 C-38.81383856 180.540739 -36.38444956 178.61532352 -32 177 C-29.56015502 174.99584162 -29.02876045 174.08628136 -28 171 C-27.01 170.01 -27.01 170.01 -26 169 C-26 167.68 -26 166.36 -26 165 C-24 164 -22 163 -20 162 C-20 161.34 -20 160.68 -20 160 C-19.34 160 -18.68 160 -18 160 C-16.92474806 157.34771188 -15.90543849 154.71631546 -15 152 C-14.649375 151.319375 -14.29875 150.63875 -13.9375 149.9375 C-12.85481302 148.05867974 -12.85481302 148.05867974 -13 146 C-12.34 145.67 -11.68 145.34 -11 145 C-10.65977214 143.00116131 -10.32670903 141.00109278 -10 139 C-9.34 138.34 -8.68 137.68 -8 137 C-7.855625 136.401875 -7.71125 135.80375 -7.5625 135.1875 C-7 133 -7 133 -5.53125 130.82421875 C-3.65686858 127.36713262 -3.34508121 124.5266997 -2.9375 120.625 C-2.38947383 115.49965052 -1.52573675 110.90008399 0 106 C-0.66 106 -1.32 106 -2 106 C-2 99.4 -2 92.8 -2 86 C-1.34 86 -0.68 86 0 86 C-0.33 85.01 -0.66 84.02 -1 83 C-0.505 81.515 -0.505 81.515 0 80 C0.09778166 77.73089029 0.12975646 75.45871058 0.125 73.1875 C0.1237915 72.51444824 0.12258301 71.84139648 0.12133789 71.14794922 C0.08928048 66.94300345 -0.1628499 62.81354066 -0.5625 58.625 C-1.13239182 51.66589842 -0.90154737 44.78505561 -0.625 37.8125 C-0.58189697 36.7002002 -0.53879395 35.58790039 -0.49438477 34.44189453 C-0.13217611 26.39652834 -0.13217611 26.39652834 1 23 C0.34 23 -0.32 23 -1 23 C-0.91621094 22.41734375 -0.83242188 21.8346875 -0.74609375 21.234375 C0.01272603 15.12539552 -0.15824005 9.48615406 -0.84375 3.37109375 C-0.8953125 2.58863281 -0.946875 1.80617188 -1 1 C-0.67 0.67 -0.34 0.34 0 0 Z " fill="#FCF1B0" transform="translate(858,630)"/>
<path d="M0 0 C1.37247304 -0.00107728 2.74494563 -0.00302252 4.11741638 -0.00575256 C7.80522712 -0.01054539 11.49291424 -0.00300527 15.18071008 0.00720048 C19.1007927 0.01612503 23.02087303 0.01422046 26.94096375 0.01383972 C33.54855344 0.01477327 40.15609697 0.02339734 46.76367188 0.03710938 C53.45541295 0.05094961 60.14711161 0.05813659 66.83886719 0.05761719 C102.4220957 0.05508337 137.99308015 0.05979971 173.5612793 1.24291992 C173.5612793 1.57291992 173.5612793 1.90291992 173.5612793 2.24291992 C157.36993263 3.02141795 141.27185153 3.34012764 125.06903076 2.824646 C97.15370735 1.93702476 69.25877215 2.48379794 41.33964539 2.91384888 C16.06786438 3.30256028 16.06786438 3.30256028 5.3659668 3.34057617 C4.48772247 3.34681503 3.60947815 3.35305389 2.70462036 3.35948181 C-0.60532066 3.36069231 -3.2757843 3.29723206 -6.4387207 2.24291992 C-7.4905957 2.55229492 -8.5424707 2.86166992 -9.6262207 3.18041992 C-12.74306792 4.04904948 -14.63103645 4.36215054 -17.7512207 4.30541992 C-21.26156618 3.96171475 -21.26156618 3.96171475 -23.4387207 5.24291992 C-24.4287207 5.36666992 -25.4187207 5.49041992 -26.4387207 5.61791992 C-31.86941995 6.33820214 -38.48865599 7.29285521 -42.4387207 11.24291992 C-45.0637207 11.36791992 -45.0637207 11.36791992 -47.4387207 11.24291992 C-47.7687207 11.90291992 -48.0987207 12.56291992 -48.4387207 13.24291992 C-50.31792894 14.18252404 -52.19956985 15.11767386 -54.0949707 16.02416992 C-58.08799649 18.10054333 -61.74655252 20.67891424 -65.4387207 23.24291992 C-65.7687207 22.58291992 -66.0987207 21.92291992 -66.4387207 21.24291992 C-62.89806617 17.40277393 -59.34020961 14.72365156 -54.6887207 12.30541992 C-54.03967773 11.96623535 -53.39063477 11.62705078 -52.72192383 11.27758789 C-47.90579879 8.83623947 -43.00567252 6.73076986 -37.9387207 4.86791992 C-37.31255859 4.62952393 -36.68639648 4.39112793 -36.04125977 4.14550781 C-24.57585616 0.16310659 -12.00210211 -0.05416059 0 0 Z " fill="#FCEA9B" transform="translate(312.438720703125,178.757080078125)"/>
<path d="M0 0 C50.49 0 100.98 0 153 0 C153 0.33 153 0.66 153 1 C152.15695312 1.06058594 151.31390625 1.12117187 150.4453125 1.18359375 C149.34960938 1.26738281 148.25390625 1.35117187 147.125 1.4375 C146.03445313 1.51871094 144.94390625 1.59992187 143.8203125 1.68359375 C141.05271029 1.83001703 141.05271029 1.83001703 139 3 C137.11211772 3.09369272 135.22086299 3.12190969 133.33065796 3.12025452 C132.1246846 3.12162918 130.91871124 3.12300385 129.67619324 3.12442017 C128.33279394 3.12088081 126.9893949 3.11724599 125.64599609 3.11352539 C124.23685203 3.11324344 122.82770782 3.11340141 121.41856384 3.1139679 C117.58614708 3.11425555 113.75376143 3.10836398 109.92135191 3.10139394 C105.9188118 3.09515508 101.91627103 3.09455618 97.91372681 3.09336853 C90.33122791 3.09025679 82.74874338 3.08204551 75.16625082 3.07201904 C66.53517354 3.06085304 57.90409558 3.05534622 49.27301288 3.05032361 C31.51533376 3.03986277 13.75766804 3.02226636 -4 3 C-2.68 2.67 -1.36 2.34 0 2 C0 1.34 0 0.68 0 0 Z " fill="#BD7D00" transform="translate(319,843)"/>
<path d="M0 0 C26.12612427 0.84619026 49.28938225 14.15517287 68.1875 31.375 C68.76508057 31.89932617 69.34266113 32.42365234 69.93774414 32.96386719 C71.33369004 34.26575924 72.6726019 35.62828496 74 37 C74 37.66 74 38.32 74 39 C74.66 39 75.32 39 76 39 C77.82292622 41.21290546 79.51788776 43.42491866 81.1875 45.75 C81.68145264 46.43449219 82.17540527 47.11898437 82.68432617 47.82421875 C94.50593265 64.40727881 103.96534114 84.30682287 105 105 C104.505 106.485 104.505 106.485 104 108 C103.34 108 102.68 108 102 108 C102.0825 106.80375 102.165 105.6075 102.25 104.375 C102.26493412 94.92170497 98.38598812 85.70682659 95 77 C94.80664062 76.09314453 94.80664062 76.09314453 94.609375 75.16796875 C93.46939956 71.11228689 91.2292626 67.4928787 89.27734375 63.77734375 C88 61 88 61 88 58 C87.34 58 86.68 58 86 58 C84.8515625 56.42578125 84.8515625 56.42578125 83.625 54.3125 C81.63373983 50.98391422 79.46933614 47.9984796 77 45 C76.67 44.34 76.34 43.68 76 43 C75.01 43.495 75.01 43.495 74 44 C73.74992188 43.26136719 73.49984375 42.52273437 73.2421875 41.76171875 C71.89884495 38.77510497 70.45836378 37.08863033 68.125 34.8125 C67.44695312 34.13832031 66.76890625 33.46414062 66.0703125 32.76953125 C64.11322097 31.09677188 62.34794644 30.02656851 60 29 C60 28.01 60 27.02 60 26 C59.278125 25.7525 58.55625 25.505 57.8125 25.25 C55 24 55 24 52.4375 21.9375 C50.05461379 20.04341096 48.84155647 19.68589294 46 19 C45.34 18.01 44.68 17.02 44 16 C43.01 16 42.02 16 41 16 C41 15.34 41 14.68 41 14 C40.443125 13.87625 39.88625 13.7525 39.3125 13.625 C36.7738865 12.93888824 34.43722504 11.98649585 32 11 C28.08732996 9.51812441 28.08732996 9.51812441 24 9 C24 8.34 24 7.68 24 7 C21.36 6.67 18.72 6.34 16 6 C16 5.34 16 4.68 16 4 C15.05125 4.020625 14.1025 4.04125 13.125 4.0625 C10 4 10 4 8 3 C7.67 3.66 7.34 4.32 7 5 C4.0280615 3.87548273 1.66559313 2.77706209 -1 1 C-0.67 0.67 -0.34 0.34 0 0 Z " fill="#F5EAAF" transform="translate(754,179)"/>
<path d="M0 0 C0.33 0.66 0.66 1.32 1 2 C1.66 2.33 2.32 2.66 3 3 C2.75650314 4.70366982 2.75650314 4.70366982 2.50808716 6.4417572 C1.94720769 10.95321042 1.85895754 15.39041052 1.87060547 19.93188477 C1.86885315 20.78677994 1.86710083 21.64167511 1.86529541 22.5224762 C1.86092055 25.32880732 1.86380131 28.13507456 1.8671875 30.94140625 C1.86651277 32.91186027 1.86554134 34.88231421 1.86428833 36.85276794 C1.86281689 40.97908319 1.8649465 45.10537674 1.86962891 49.23168945 C1.87529954 54.48077677 1.87206062 59.72981265 1.86605644 64.97889805 C1.86241335 69.04992549 1.86360694 73.12094109 1.86618423 77.19196892 C1.86684455 79.12495874 1.86605694 81.05794968 1.86370468 82.99093819 C1.85419241 93.01152381 2.02875786 102.92557311 2.78881836 112.92070007 C3.03510064 116.51181253 3.03355765 119.97552665 2.87890625 123.5703125 C2.83056641 124.81683594 2.78222656 126.06335938 2.73242188 127.34765625 C2.67634766 128.59417969 2.62027344 129.84070313 2.5625 131.125 C1.37117691 147.64816326 1.37117691 147.64816326 3 164 C3.28098632 166.49765617 3.49967234 168.99625531 3.71875 171.5 C4.23176401 176.06012452 5.33868527 180.39612511 6.5625 184.8125 C6.83191406 185.78832031 7.10132813 186.76414062 7.37890625 187.76953125 C7.68634766 188.87361328 7.68634766 188.87361328 8 190 C7.34 190.33 6.68 190.66 6 191 C-2.35790778 172.01560528 -0.53718975 149.8123721 -0.40557575 129.55242705 C-0.38025117 124.98413902 -0.37819601 120.41583581 -0.37347412 115.8474884 C-0.36113424 107.23138353 -0.32843687 98.61548621 -0.28807616 89.99947196 C-0.24307541 80.17574308 -0.22130088 70.3520033 -0.20129442 60.52819669 C-0.15969421 40.35201612 -0.08952073 20.17602123 0 0 Z " fill="#654A00" transform="translate(193,571)"/>
<path d="M0 0 C1.57740299 -0.00101759 3.15480579 -0.00235817 4.73220825 -0.0039978 C8.92330451 -0.00667603 13.11436324 -0.00226904 17.30545425 0.00424194 C19.89995688 0.00781998 22.49445395 0.00943248 25.08895874 0.01049805 C53.30478648 0.02490349 81.50108205 0.3424826 109.70703125 1.1328125 C109.70703125 1.4628125 109.70703125 1.7928125 109.70703125 2.1328125 C106.07970108 2.96583877 102.73710675 3.25655203 99.01860046 3.25306702 C97.8842305 3.25444168 96.74986053 3.25581635 95.58111572 3.25723267 C93.72858185 3.25183975 93.72858185 3.25183975 91.83862305 3.24633789 C90.53091446 3.24648392 89.22320587 3.24662994 87.87586975 3.2467804 C84.29775375 3.24706693 80.71967137 3.24119345 77.14156318 3.23420644 C73.39929357 3.22794895 69.65702317 3.2273672 65.91474915 3.22618103 C58.83171478 3.22307478 51.74869587 3.2148709 44.66566831 3.20483154 C36.6004117 3.19364849 28.53515434 3.18815443 20.46989191 3.18313611 C3.88226264 3.1726877 -12.70535108 3.15510193 -29.29296875 3.1328125 C-28.96296875 2.4728125 -28.63296875 1.8128125 -28.29296875 1.1328125 C-19.09755193 -0.61825415 -9.33426384 -0.01383953 0 0 Z " fill="#FECF02" transform="translate(645.29296875,842.8671875)"/>
<path d="M0 0 C0.33 0 0.66 0 1 0 C1.7697812 4.09204715 2.12393722 7.95093759 2.12025452 12.11239624 C2.12162918 13.3154541 2.12300385 14.51851196 2.12442017 15.75802612 C2.12082489 17.06425934 2.11722961 18.37049255 2.11352539 19.71630859 C2.11324309 21.11619057 2.11340209 22.5160727 2.1139679 23.91595459 C2.11425419 27.70474771 2.10838456 31.49350901 2.10139394 35.28229475 C2.09513248 39.24610704 2.09455439 43.2099201 2.09336853 47.17373657 C2.09026344 54.67464564 2.08206115 62.1755401 2.07201904 69.67644274 C2.06083236 78.2181344 2.05534101 86.75982676 2.05032361 95.30152392 C2.03987784 112.86769106 2.02229434 130.43384398 2 148 C-0.35370773 143.81680226 -0.22184463 140.06033242 -0.125 135.3671875 C-0.11364014 134.11761765 -0.11364014 134.11761765 -0.10205078 132.84280396 C-0.07765077 130.18665755 -0.04038003 127.53094866 0 124.875 C0.05304087 121.37240803 0.09308229 117.87002836 0.125 114.3671875 C0.14159668 113.55885468 0.15819336 112.75052185 0.17529297 111.91769409 C0.19272828 109.94434119 0.10539449 107.97061353 0 106 C-0.66 105.34 -1.32 104.68 -2 104 C-2.265625 101.94140625 -2.265625 101.94140625 -2.25 99.5625 C-2.25515625 98.78003906 -2.2603125 97.99757813 -2.265625 97.19140625 C-2 95 -2 95 0 92 C0.33343551 89.45792029 0.33343551 89.45792029 0 87 C-0.66 86.34 -1.32 85.68 -2 85 C-1.34 85 -0.68 85 0 85 C0 60.58 0 36.16 0 11 C-0.66 11 -1.32 11 -2 11 C-1 3.57142857 -1 3.57142857 0 0 Z " fill="#FDF7C4" transform="translate(858,284)"/>
<path d="M0 0 C0.33 0 0.66 0 1 0 C1 37.29 1 74.58 1 113 C0.67 113 0.34 113 0 113 C-0.03758423 112.07719238 -0.03758423 112.07719238 -0.07592773 111.13574219 C-0.19218487 108.34029844 -0.31477642 105.54516702 -0.4375 102.75 C-0.49647461 101.29787109 -0.49647461 101.29787109 -0.55664062 99.81640625 C-0.59853516 98.88183594 -0.64042969 97.94726562 -0.68359375 96.984375 C-0.72025146 96.12553711 -0.75690918 95.26669922 -0.79467773 94.38183594 C-0.93447239 92.01311403 -0.93447239 92.01311403 -1.55102539 89.82128906 C-2 88 -2 88 -1.5 85.875 C-0.99715936 82.98366631 -1.15625217 80.89607549 -1.5 78 C-1.92231943 74.41830359 -2.05225899 71.50752996 -1 68 C-1.33 68 -1.66 68 -2 68 C-2.02527124 61.75204325 -2.04283344 55.50409959 -2.05493164 49.25610352 C-2.05997298 47.12881986 -2.06680591 45.00153969 -2.07543945 42.87426758 C-2.08751379 39.82372174 -2.09323014 36.77322155 -2.09765625 33.72265625 C-2.10281754 32.76537125 -2.10797882 31.80808624 -2.11329651 30.8217926 C-2.11337204 29.94095505 -2.11344757 29.06011749 -2.11352539 28.15258789 C-2.115746 27.37315323 -2.11796661 26.59371857 -2.12025452 25.79066467 C-2 24 -2 24 -1 23 C-0.78673597 17.3952291 -0.78673597 17.3952291 -2 12 C-1.75867872 9.9279656 -1.43760371 7.86453794 -1.0625 5.8125 C-0.86785156 4.72582031 -0.67320312 3.63914062 -0.47265625 2.51953125 C-0.31667969 1.68808594 -0.16070313 0.85664062 0 0 Z " fill="#FCDF8C" transform="translate(858,514)"/>
<path d="M0 0 C2.52105125 4.20814258 1.92630766 6.83326231 0.9453125 11.49609375 C-6.7409142 39.98595057 -22.45822982 66.00954372 -47 83 C-47.66 82.67 -48.32 82.34 -49 82 C-49 81.01 -49 80.02 -49 79 C-48.34 79 -47.68 79 -47 79 C-47 78.34 -47 77.68 -47 77 C-43.535 76.505 -43.535 76.505 -40 76 C-40.33 75.01 -40.66 74.02 -41 73 C-37.81383856 69.540739 -35.38444956 67.61532352 -31 66 C-28.56015502 63.99584162 -28.02876045 63.08628136 -27 60 C-26.34 59.34 -25.68 58.68 -25 58 C-25 56.68 -25 55.36 -25 54 C-23 53 -21 52 -19 51 C-19 50.34 -19 49.68 -19 49 C-18.34 49 -17.68 49 -17 49 C-15.92474806 46.34771188 -14.90543849 43.71631546 -14 41 C-13.4740625 39.9790625 -13.4740625 39.9790625 -12.9375 38.9375 C-11.85481302 37.05867974 -11.85481302 37.05867974 -12 35 C-11.34 34.67 -10.68 34.34 -10 34 C-9.65977214 32.00116131 -9.32670903 30.00109278 -9 28 C-8.34 27.34 -7.68 26.68 -7 26 C-6.855625 25.401875 -6.71125 24.80375 -6.5625 24.1875 C-6 22 -6 22 -4.53515625 19.84375 C-2.67063553 16.38987955 -2.25486538 13.15211972 -1.875 9.3125 C-1.10261876 2.20523752 -1.10261876 2.20523752 0 0 Z " fill="#F7E89D" transform="translate(857,741)"/>
<path d="M0 0 C1.6065676 0.25620684 3.2102483 0.53055871 4.8125 0.8125 C6.15248047 1.03873047 6.15248047 1.03873047 7.51953125 1.26953125 C10.23289123 2.06858372 11.16058677 2.92324313 13 5 C13.825 5.4125 14.65 5.825 15.5 6.25 C19.54676246 8.27338123 23.25666414 10.64679804 27.05078125 13.10546875 C29.01027452 14.36421608 30.98709904 15.59639929 32.98046875 16.80078125 C38.37718579 20.0854228 42.16782272 23.00655688 46 28 C47.33227007 28.66878896 48.66564574 29.3353791 50 30 C52.09422593 32.28903764 54.04950898 34.59310269 56 37 C56.71800781 37.85464844 57.43601562 38.70929688 58.17578125 39.58984375 C62.39837325 44.64985736 66.31583259 49.72791429 69.80859375 55.3203125 C70.90862514 57.15048272 70.90862514 57.15048272 73 58 C73.73075648 60.3140622 74.40138258 62.64828869 75 65 C75.66 65 76.32 65 77 65 C77.28875 65.804375 77.5775 66.60875 77.875 67.4375 C78.73262568 70.1326468 78.73262568 70.1326468 81 71 C81.12375 71.66 81.2475 72.32 81.375 73 C81.96101694 75.81288133 82.79958169 77.90916911 84 80.5 C85.45699838 83.66210881 86.55050969 86.51645007 87 90 C87.99 90 88.98 90 90 90 C89.505 91.485 89.505 91.485 89 93 C89.59793673 95.35188447 90.25881795 97.68925595 91 100 C90.34 100 89.68 100 89 100 C88.5875 98.88625 88.175 97.7725 87.75 96.625 C80.24230962 76.65445543 70.98138206 58.28543004 57 42 C56.22914063 41.09507812 55.45828125 40.19015625 54.6640625 39.2578125 C39.4773404 21.96315421 20.30055575 11.22507403 0 1 C0 0.67 0 0.34 0 0 Z " fill="#F3D600" transform="translate(572,369)"/>
<path d="M0 0 C48.18 0 96.36 0 146 0 C143.60052927 2.39947073 142.96630835 2.28356137 139.6796875 2.4140625 C138.76711182 2.45289551 137.85453613 2.49172852 136.91430664 2.53173828 C135.91133545 2.56251465 134.90836426 2.59329102 133.875 2.625 C132.8327124 2.66222168 131.7904248 2.69944336 130.71655273 2.73779297 C121.49998708 3.029019 112.28295935 3.10448819 103.0625 3.125 C102.3779071 3.12767883 101.69331421 3.13035767 100.98797607 3.13311768 C99.00371156 3.13901418 97.01942693 3.13602609 95.03515625 3.1328125 C93.8944165 3.13168457 92.75367676 3.13055664 91.57836914 3.12939453 C88.92137336 3.03331704 86.42079436 2.8315771 83.79345703 2.50474548 C79.4254756 2.00803256 75.11942804 1.83047351 70.72631836 1.79467773 C69.95447205 1.78477814 69.18262573 1.77487854 68.38739014 1.76467896 C65.87157104 1.73344356 63.35573315 1.7084591 60.83984375 1.68359375 C59.08150277 1.6629913 57.32316637 1.64199404 55.56483459 1.62062073 C50.96346783 1.56573957 46.36205892 1.51618226 41.76062012 1.46777344 C37.0545685 1.41730858 32.34857719 1.36175366 27.64257812 1.30664062 C18.42843708 1.19947515 9.2142434 1.09793988 0 1 C0 0.67 0 0.34 0 0 Z " fill="#FDF4C7" transform="translate(608,179)"/>
<path d="M0 0 C1.55083673 0.00187047 3.10167406 0.00329139 4.6525116 0.00428772 C8.68834126 0.00806341 12.72413358 0.01784997 16.75994873 0.0289917 C20.89660131 0.03931366 25.03326006 0.04380819 29.16992188 0.04882812 C37.25262109 0.05947789 45.33529025 0.07649301 53.41796875 0.09765625 C53.41796875 0.42765625 53.41796875 0.75765625 53.41796875 1.09765625 C47.47796875 1.42765625 41.53796875 1.75765625 35.41796875 2.09765625 C35.41796875 2.42765625 35.41796875 2.75765625 35.41796875 3.09765625 C13.30796875 3.09765625 -8.80203125 3.09765625 -31.58203125 3.09765625 C-25.50818996 -2.97618504 -8.57011801 -0.03083728 0 0 Z " fill="#D38800" transform="translate(489.58203125,842.90234375)"/>
<path d="M0 0 C0.66 0.33 1.32 0.66 2 1 C1.69128878 2.79232337 1.37790936 4.58384321 1.0625 6.375 C0.88847656 7.37273437 0.71445313 8.37046875 0.53515625 9.3984375 C0 12 0 12 -1 14 C-1.08559118 16.17824961 -1.10713412 18.35915255 -1.09765625 20.5390625 C-1.09443359 21.84101563 -1.09121094 23.14296875 -1.08789062 24.484375 C-1.07953466 25.86458399 -1.07106971 27.24479232 -1.0625 28.625 C-1.05748501 30.01301926 -1.0529221 31.40104022 -1.04882812 32.7890625 C-1.03700976 36.19275132 -1.02053434 39.59635439 -1 43 C-1.33 43 -1.66 43 -2 43 C-2.33 67.42 -2.66 91.84 -3 117 C-3.33 117 -3.66 117 -4 117 C-4.04659567 104.64638915 -4.08200636 92.29279963 -4.10362434 79.93911839 C-4.11400636 74.201161 -4.12806206 68.46326428 -4.15087891 62.7253418 C-4.17280828 57.17507784 -4.18461045 51.62487178 -4.18975449 46.07456779 C-4.19341453 43.97017444 -4.20056015 41.86578379 -4.21146011 39.76141548 C-4.27313391 27.34673758 -3.81604077 15.29048158 -2 3 C-1.34 3 -0.68 3 0 3 C0 2.01 0 1.02 0 0 Z " fill="#BF8900" transform="translate(196,278)"/>
<path d="M0 0 C0 0.66 0 1.32 0 2 C-0.66 2 -1.32 2 -2 2 C-2 2.66 -2 3.32 -2 4 C-2.53367187 4.17015625 -3.06734375 4.3403125 -3.6171875 4.515625 C-4.36226562 4.75796875 -5.10734375 5.0003125 -5.875 5.25 C-6.59429688 5.48203125 -7.31359375 5.7140625 -8.0546875 5.953125 C-10.64775637 6.87479935 -13.164878 7.89013987 -15.70703125 8.94140625 C-20.66546455 10.93340453 -25.62006652 12.43935259 -30.8125 13.6875 C-32.14752563 14.00992676 -32.14752563 14.00992676 -33.50952148 14.33886719 C-42.60683751 16.38191863 -51.65225776 16.81203594 -60.95141602 16.87402344 C-63.08025937 17.00493551 -64.93895794 17.469348 -67 18 C-73.85363147 18.36715883 -80.27181235 17.25592836 -87 16 C-87 15.67 -87 15.34 -87 15 C-86.09983154 14.98541748 -85.19966309 14.97083496 -84.2722168 14.95581055 C-59.4747551 14.64395314 -59.4747551 14.64395314 -35 11 C-34.35015137 10.85691406 -33.70030273 10.71382812 -33.03076172 10.56640625 C-23.18659356 8.32763191 -9.80273369 0 0 0 Z " fill="#F2CC00" transform="translate(580,651)"/>
<path d="M0 0 C2.17890665 3.52655997 2.2377462 6.34502849 2.21118164 10.44580078 C2.20780289 11.75461212 2.20442413 13.06342346 2.20094299 14.41189575 C2.18739917 15.83970183 2.17380224 17.2675074 2.16015625 18.6953125 C2.15387905 20.16779181 2.14864122 21.64027589 2.14439392 23.11276245 C2.13109546 26.99206277 2.10668439 30.87120546 2.07904053 34.75042725 C2.03594564 40.93716695 2.00599622 47.12394322 1.9829998 53.3107872 C1.97288733 55.45872991 1.95581764 57.60653431 1.93800354 59.75442505 C1.89860748 66.19869048 2.01721022 72.52864039 2.76945496 78.93405151 C3.07576818 81.67896996 3.12950139 84.39573216 3.1328125 87.15625 C3.13410156 88.1978125 3.13539063 89.239375 3.13671875 90.3125 C3.13285156 91.364375 3.12898437 92.41625 3.125 93.5 C3.12886719 94.5828125 3.13273438 95.665625 3.13671875 96.78125 C3.13542969 97.8125 3.13414062 98.84375 3.1328125 99.90625 C3.13168457 100.83759766 3.13055664 101.76894531 3.12939453 102.72851562 C3 105 3 105 2 107 C1.34 107 0.68 107 0 107 C-0.98339814 83.98687259 -1.00091072 61.06253749 -0.60510254 38.0355835 C-0.53264351 33.72302548 -0.46891366 29.41033764 -0.40429688 25.09765625 C-0.27773836 16.7316267 -0.14205841 8.3657807 0 0 Z " fill="#715200" transform="translate(193,320)"/>
<path d="M0 0 C0.66 0.33 1.32 0.66 2 1 C2.80603603 3.6837679 3.5155615 6.34501174 4.1875 9.0625 C6.58439592 18.17378905 9.87776826 26.54165776 14 35 C14.54527344 36.12019531 15.09054687 37.24039063 15.65234375 38.39453125 C22.67381088 52.05748023 31.91876556 64.35721281 43.0625 74.9375 C45 77 45 77 45 80 C44.01 79.505 44.01 79.505 43 79 C43 78.34 43 77.68 43 77 C41.68 76.34 40.36 75.68 39 75 C39 74.34 39 73.68 39 73 C38.01 72.67 37.02 72.34 36 72 C30.56937501 66.20101867 25.93284289 59.67785319 21.5078125 53.09375 C20.10464458 51.00295192 20.10464458 51.00295192 18.4296875 49.53125 C16.57638948 47.54629693 15.93503916 45.53686855 15 43 C14.26448818 41.53430615 13.51377248 40.07616771 12.75 38.625 C10.53570915 34.24898307 8.62773509 29.80151734 6.8125 25.25 C6.56274414 24.62432129 6.31298828 23.99864258 6.05566406 23.35400391 C4.58001112 19.60512853 3.26729153 15.82317362 2 12 C1.1795853 9.96884113 0.3428704 7.9466799 -0.51171875 5.9296875 C-1.09600117 3.62060336 -0.74005736 2.23507258 0 0 Z " fill="#F0D200" transform="translate(361,546)"/>
<path d="M0 0 C23.76 0 47.52 0 72 0 C72 0.33 72 0.66 72 1 C66.39 1 60.78 1 55 1 C55 1.66 55 2.32 55 3 C35.53 3 16.06 3 -4 3 C-2.68 2.67 -1.36 2.34 0 2 C0 1.34 0 0.68 0 0 Z " fill="#9F6D00" transform="translate(319,843)"/>
<path d="M0 0 C1.09731445 0.00676758 1.09731445 0.00676758 2.21679688 0.01367188 C3.99873419 0.02531852 5.78062863 0.04324809 7.5625 0.0625 C5.2598927 2.3651073 4.68317087 2.36308655 1.5625 2.625 C0.34820312 2.74101562 0.34820312 2.74101562 -0.890625 2.859375 C-2.52486153 2.98971288 -4.16035346 3.10558398 -5.796875 3.203125 C-13.05965764 3.72528584 -23.12819788 4.75319788 -28.4375 10.0625 C-31.0625 10.1875 -31.0625 10.1875 -33.4375 10.0625 C-33.7675 10.7225 -34.0975 11.3825 -34.4375 12.0625 C-36.31670824 13.00210412 -38.19834914 13.93725394 -40.09375 14.84375 C-44.08677579 16.92012341 -47.74533182 19.49849432 -51.4375 22.0625 C-51.7675 21.4025 -52.0975 20.7425 -52.4375 20.0625 C-48.89647089 16.22194775 -45.33847065 13.54491188 -40.6875 11.125 C-40.04425781 10.78654053 -39.40101563 10.44808105 -38.73828125 10.09936523 C-33.76835338 7.56730146 -28.69032295 5.49332573 -23.4375 3.625 C-22.74430664 3.3782251 -22.05111328 3.1314502 -21.33691406 2.87719727 C-14.25548578 0.47829085 -7.42779468 -0.08834522 0 0 Z " fill="#F4DA4D" transform="translate(298.4375,179.9375)"/>
<path d="M0 0 C0.72050537 0.00193359 1.44101074 0.00386719 2.18334961 0.00585938 C10.53291152 0.070522 18.85775763 0.57942623 27.1875 1.125 C27.1875 1.785 27.1875 2.445 27.1875 3.125 C27.86296875 3.11339844 28.5384375 3.10179687 29.234375 3.08984375 C30.12640625 3.08082031 31.0184375 3.07179688 31.9375 3.0625 C33.26007812 3.04509766 33.26007812 3.04509766 34.609375 3.02734375 C36.9693838 3.11673802 38.93248524 3.45587179 41.1875 4.125 C41.1875 4.785 41.1875 5.445 41.1875 6.125 C43.105625 6.0940625 43.105625 6.0940625 45.0625 6.0625 C48.9375 6 48.9375 6 51.1875 7.125 C51.1875 7.785 51.1875 8.445 51.1875 9.125 C53.1675 9.125 55.1475 9.125 57.1875 9.125 C57.1875 9.785 57.1875 10.445 57.1875 11.125 C58.1775 11.125 59.1675 11.125 60.1875 11.125 C60.1875 11.785 60.1875 12.445 60.1875 13.125 C59.61386719 12.96644531 59.04023437 12.80789063 58.44921875 12.64453125 C56.5805564 12.13128711 54.71058713 11.62279382 52.83984375 11.1171875 C50.14080163 10.38397178 47.44691889 9.63747631 44.75390625 8.8828125 C24.911894 3.38907579 5.63894456 2.61321498 -14.8125 2.125 C-14.8125 1.795 -14.8125 1.465 -14.8125 1.125 C-9.84645272 0.31342807 -5.03644225 -0.03335787 0 0 Z " fill="#F5D600" transform="translate(510.8125,355.875)"/>
<path d="M0 0 C35.97 0 71.94 0 109 0 C109 0.33 109 0.66 109 1 C102.66023213 1.81001058 96.5118019 2.12797983 90.125 2.0625 C89.28453125 2.05798828 88.4440625 2.05347656 87.578125 2.04882812 C86.03269995 2.04018757 84.48728386 2.02947353 82.94189453 2.01586914 C78.90197885 1.98285499 74.86220483 2.01322885 70.82226562 2.03173828 C63.40575558 2.06450538 55.98924824 2.08692124 48.57268524 2.10362434 C44.08341076 2.11408431 39.59421162 2.12829388 35.10498047 2.15087891 C30.76380165 2.17257756 26.42269553 2.18456131 22.08146667 2.18975449 C20.42602897 2.19345304 18.7705953 2.20067528 17.1151886 2.21146011 C14.80261547 2.22593733 12.49034538 2.22797964 10.17773438 2.22705078 C8.20274963 2.23371262 8.20274963 2.23371262 6.18786621 2.24050903 C3 2 3 2 0 0 Z " fill="#FBDF90" transform="translate(568,180)"/>
<path d="M0 0 C0.99 0 1.98 0 3 0 C4.66666667 1.66666667 6.33333333 3.33333333 8 5 C11.16645474 6.79320824 11.16645474 6.79320824 14 8 C14 8.66 14 9.32 14 10 C14.5775 10.12375 15.155 10.2475 15.75 10.375 C18.72080114 11.20022254 21.26907972 12.62169165 24 14.03515625 C24.66 14.37417969 25.32 14.71320312 26 15.0625 C26.66 15.40410156 27.32 15.74570312 28 16.09765625 C29.99328922 16.99697229 31.87542908 17.50571207 34 18 C35.299375 18.5259375 35.299375 18.5259375 36.625 19.0625 C38.88449553 20.12238884 38.88449553 20.12238884 41 20 C41 20.66 41 21.32 41 22 C41.598125 21.814375 42.19625 21.62875 42.8125 21.4375 C45 21 45 21 48 22 C48 22.66 48 23.32 48 24 C48.60328125 23.98839844 49.2065625 23.97679687 49.828125 23.96484375 C51.02695312 23.95130859 51.02695312 23.95130859 52.25 23.9375 C53.03890625 23.92589844 53.8278125 23.91429687 54.640625 23.90234375 C56.92311136 23.99681752 58.80783691 24.3890693 61 25 C62.99788438 25.34578768 64.99759451 25.68143549 67 26 C66.67 26.66 66.34 27.32 66 28 C42.60683307 26.43686212 17.07417285 17.65772961 0 1 C0 0.67 0 0.34 0 0 Z " fill="#7C5800" transform="translate(238,818)"/>
<path d="M0 0 C5.09103483 1.57359259 8.34810822 3.16487314 12.3125 6.75 C15.72692092 9.50018204 17.78004091 10.508502 22.1875 10.25 C29.06662855 9.12131696 35.53247095 6.51893237 42 4 C42.99 3.67 43.98 3.34 45 3 C43.65070536 6.83663072 41.92248975 9.65172569 39.375 12.8125 C38.74335937 13.60269531 38.11171875 14.39289063 37.4609375 15.20703125 C36.73777344 16.09455078 36.73777344 16.09455078 36 17 C35 14 35 14 35 10 C34.04738281 10.22816406 33.09476563 10.45632813 32.11328125 10.69140625 C30.23189453 11.12259766 30.23189453 11.12259766 28.3125 11.5625 C27.07113281 11.85253906 25.82976563 12.14257812 24.55078125 12.44140625 C19.71886827 13.20154218 17.37892268 12.90145089 13.28125 10.22265625 C12.3634375 9.50980469 11.445625 8.79695313 10.5 8.0625 C7.08291078 5.41809528 4.09504505 3.41694494 0 2 C0 1.34 0 0.68 0 0 Z " fill="#F1D201" transform="translate(564,434)"/>
<path d="M0 0 C2.31 0 4.62 0 7 0 C4.84333699 2.15666301 3.04333185 2.77976529 0.20263672 3.74902344 C-14.81189609 8.87877659 -29.26008468 16.28862428 -41.82666016 26.00292969 C-45.72529815 29 -45.72529815 29 -49 29 C-47.6875 27 -47.6875 27 -46 25 C-45.01 25 -44.02 25 -43 25 C-43 24.34 -43 23.68 -43 23 C-41.20963542 22.0234375 -39.41927083 21.046875 -37.62890625 20.0703125 C-35.83381685 19.08589976 -35.83381685 19.08589976 -35 17 C-34.01 16.67 -33.02 16.34 -32 16 C-31.34 15.34 -30.68 14.68 -30 14 C-29.14921875 13.7215625 -28.2984375 13.443125 -27.421875 13.15625 C-23.10375351 11.69715872 -19.25757641 9.65158047 -15.25 7.5 C-14.09951172 6.89478516 -14.09951172 6.89478516 -12.92578125 6.27734375 C-8.67211066 4.0474227 -8.67211066 4.0474227 -5 1 C-2.375 1.375 -2.375 1.375 0 2 C0 1.34 0 0.68 0 0 Z " fill="#F4D501" transform="translate(462,363)"/>
<path d="M0 0 C2.26189908 -0.00222823 4.52334032 -0.02057978 6.78515625 -0.03930664 C8.22786294 -0.04223406 9.6705719 -0.0442232 11.11328125 -0.04516602 C13.05678467 -0.05132935 13.05678467 -0.05132935 15.03955078 -0.05761719 C18.10546875 0.18530273 18.10546875 0.18530273 20.10546875 2.18530273 C19.10546875 3.18530273 19.10546875 3.18530273 17.20091248 3.30555725 C16.36818314 3.30333664 15.5354538 3.30111603 14.67749023 3.29882812 C13.73659042 3.29875259 12.79569061 3.29867706 11.82627869 3.29859924 C10.80337234 3.29343796 9.780466 3.28827667 8.7265625 3.28295898 C7.68476334 3.28154404 6.64296417 3.28012909 5.56959534 3.27867126 C2.22735781 3.27305353 -1.11481382 3.26049803 -4.45703125 3.24780273 C-6.71679591 3.24279002 -8.97656162 3.23822672 -11.23632812 3.23413086 C-16.78908516 3.22307835 -22.3418035 3.20632298 -27.89453125 3.18530273 C-27.56453125 2.52530273 -27.23453125 1.86530273 -26.89453125 1.18530273 C-18.1975413 -0.48580897 -8.84057611 -0.00097794 0 0 Z " fill="#FBB400" transform="translate(643.89453125,842.814697265625)"/>
<path d="M0 0 C0.33 0 0.66 0 1 0 C1.93048898 7.0746702 2.15157617 13.99372782 2.125 21.125 C2.12886719 22.17042969 2.13273438 23.21585938 2.13671875 24.29296875 C2.11827532 38.88172468 2.11827532 38.88172468 0 41 C-0.23527773 43.34987262 -0.41386417 45.70556039 -0.5625 48.0625 C-0.64628906 49.35285156 -0.73007813 50.64320313 -0.81640625 51.97265625 C-0.87699219 52.97167969 -0.93757812 53.97070312 -1 55 C-1.33 55 -1.66 55 -2 55 C-2 42.13 -2 29.26 -2 16 C-1.34 16 -0.68 16 0 16 C0 10.72 0 5.44 0 0 Z " fill="#873500" transform="translate(194,528)"/>
<path d="M0 0 C1.59244651 0.00502605 3.18489455 0.009587 4.77734375 0.01367188 C8.64326779 0.02458763 12.50911653 0.04179105 16.375 0.0625 C16.045 1.0525 15.715 2.0425 15.375 3.0625 C1.185 3.0625 -13.005 3.0625 -27.625 3.0625 C-27.625 2.4025 -27.625 1.7425 -27.625 1.0625 C-18.40338022 -0.1109927 -9.27664679 -0.05120415 0 0 Z " fill="#F3A200" transform="translate(600.625,842.9375)"/>
<path d="M0 0 C0.66 0 1.32 0 2 0 C2.33 0.99 2.66 1.98 3 3 C1.47042123 5.17682568 -0.05342746 7.08429629 -1.8125 9.0625 C-2.31370361 9.63814697 -2.81490723 10.21379395 -3.33129883 10.80688477 C-10.24007779 18.65930183 -17.34959035 26.05586376 -26 32 C-26.66 31.67 -27.32 31.34 -28 31 C-28 30.01 -28 29.02 -28 28 C-27.34 28 -26.68 28 -26 28 C-26 27.34 -26 26.68 -26 26 C-22.535 25.505 -22.535 25.505 -19 25 C-19.33 24.01 -19.66 23.02 -20 22 C-16.81383856 18.540739 -14.38444956 16.61532352 -10 15 C-7.56015502 12.99584162 -7.02876045 12.08628136 -6 9 C-5.34 8.34 -4.68 7.68 -4 7 C-4 5.68 -4 4.36 -4 3 C-2.68 2.34 -1.36 1.68 0 1 C0 0.67 0 0.34 0 0 Z " fill="#F8EE93" transform="translate(836,792)"/>
<path d="M0 0 C0.66 0 1.32 0 2 0 C3.01561828 6.34761426 3.04862294 12.50148603 2.9375 18.92578125 C2.8486538 22.04076028 2.8486538 22.04076028 4 25 C3.69676462 26.67240461 3.36064147 28.33902841 3 30 C2.93394652 31.57818278 2.9144127 33.15888551 2.9375 34.73828125 C2.94587891 35.63401855 2.95425781 36.52975586 2.96289062 37.45263672 C2.97513672 38.3963916 2.98738281 39.34014648 3 40.3125 C3.06785805 49.59208775 2.74211814 58.75002748 2 68 C1.67 68 1.34 68 1 68 C0.85446716 61.53033993 0.7124922 55.06060811 0.57275391 48.59082031 C0.52503071 46.39939695 0.47655398 44.20798984 0.42724609 42.01660156 C0.11267071 28.00836693 -0.0706281 14.01183 0 0 Z " fill="#7C5600" transform="translate(194,428)"/>
<path d="M0 0 C0.33 0 0.66 0 1 0 C0.2306338 9.55633803 0.2306338 9.55633803 -0.51171875 14.203125 C-2.76218563 28.69549329 -2.1790861 43.37555364 -2 58 C-2.33 58 -2.66 58 -3 58 C-3 56.35 -3 54.7 -3 53 C-3.66 53 -4.32 53 -5 53 C-4.88120831 47.71625244 -4.75692644 42.43267224 -4.62768555 37.14916992 C-4.58453063 35.35395768 -4.54284295 33.55870952 -4.50268555 31.76342773 C-4.44450887 29.17420657 -4.38095429 26.58516299 -4.31640625 23.99609375 C-4.29969376 23.20101913 -4.28298126 22.40594452 -4.26576233 21.58677673 C-4.14485725 16.97818999 -3.7439088 12.55081574 -3 8 C-2.34 8 -1.68 8 -1 8 C-0.67 5.36 -0.34 2.72 0 0 Z " fill="#FADC00" transform="translate(361,475)"/>
<path d="M0 0 C2.0625 0.4375 2.0625 0.4375 4 1 C-6.62162894 8.26510587 -18.13705245 14.96900828 -31 17 C-29.25 15 -29.25 15 -27 13 C-25.68 13 -24.36 13 -23 13 C-22.67 12.01 -22.34 11.02 -22 10 C-20.68 10.33 -19.36 10.66 -18 11 C-17.67 10.34 -17.34 9.68 -17 9 C-15.68 9 -14.36 9 -13 9 C-12.67 8.34 -12.34 7.68 -12 7 C-10.68 7 -9.36 7 -8 7 C-7.67 5.35 -7.34 3.7 -7 2 C-6.030625 1.855625 -5.06125 1.71125 -4.0625 1.5625 C-1.13513227 1.32437659 -1.13513227 1.32437659 0 0 Z " fill="#FAE458" transform="translate(804,824)"/>
<path d="M0 0 C0.33 0 0.66 0 1 0 C1.921845 7.51755149 2.15282798 14.93078915 2.125 22.5 C2.12886719 23.5828125 2.13273438 24.665625 2.13671875 25.78125 C2.13542969 26.8125 2.13414062 27.84375 2.1328125 28.90625 C2.13168457 29.83759766 2.13055664 30.76894531 2.12939453 31.72851562 C2 34 2 34 1 36 C0.34 36 -0.32 36 -1 36 C-1.19272034 31.5163955 -1.3713676 27.0325155 -1.53710938 22.54785156 C-1.59543502 21.0229599 -1.65757438 19.49820906 -1.72363281 17.97363281 C-1.81803239 15.77955776 -1.89861231 13.58533851 -1.9765625 11.390625 C-2.00875885 10.7113092 -2.0409552 10.03199341 -2.0741272 9.33209229 C-2.18928821 5.67626208 -2.02068663 3.10344363 0 0 Z " fill="#935300" transform="translate(194,391)"/>
<path d="M0 0 C0.33 0 0.66 0 1 0 C1 22.77 1 45.54 1 69 C0.67 69 0.34 69 0 69 C-0.22786458 66.98177083 -0.45572917 64.96354167 -0.68359375 62.9453125 C-0.91292961 60.92595684 -0.91292961 60.92595684 -2 59 C-1.34 59 -0.68 59 0 59 C-0.13882854 54.41642624 -0.28726748 49.83321304 -0.4375 45.25 C-0.47681641 43.94804687 -0.51613281 42.64609375 -0.55664062 41.3046875 C-0.59853516 40.05429687 -0.64042969 38.80390625 -0.68359375 37.515625 C-0.72025146 36.36352539 -0.75690918 35.21142578 -0.79467773 34.02441406 C-0.89771189 31.10710233 -0.89771189 31.10710233 -1.58227539 28.78027344 C-2 27 -2 27 -1 24 C-0.85110253 22.15533558 -0.7520899 20.30642725 -0.68359375 18.45703125 C-0.64169922 17.38388672 -0.59980469 16.31074219 -0.55664062 15.20507812 C-0.51732422 14.08552734 -0.47800781 12.96597656 -0.4375 11.8125 C-0.39431641 10.68134766 -0.35113281 9.55019531 -0.30664062 8.38476562 C-0.20050901 5.58996646 -0.09845615 2.79507838 0 0 Z " fill="#FADC86" transform="translate(858,443)"/>
<path d="M0 0 C0 0.33 0 0.66 0 1 C-0.78246094 1.06058594 -1.56492187 1.12117187 -2.37109375 1.18359375 C-3.88896484 1.30927734 -3.88896484 1.30927734 -5.4375 1.4375 C-6.44683594 1.51871094 -7.45617187 1.59992187 -8.49609375 1.68359375 C-10.93640779 1.73211468 -10.93640779 1.73211468 -12 3 C-14.07262076 3.08767112 -16.14820294 3.10695873 -18.22265625 3.09765625 C-19.48271484 3.09443359 -20.74277344 3.09121094 -22.04101562 3.08789062 C-23.38151109 3.07953403 -24.72200588 3.07106907 -26.0625 3.0625 C-27.40689942 3.0574866 -28.7513006 3.05292342 -30.09570312 3.04882812 C-33.39717941 3.03699488 -36.69856803 3.02050971 -40 3 C-40 2.34 -40 1.68 -40 1 C-26.65013933 0.14560892 -13.37590974 -0.11978427 0 0 Z " fill="#AC7500" transform="translate(414,843)"/>
<path d="M0 0 C0.33 0.66 0.66 1.32 1 2 C1.66 2.33 2.32 2.66 3 3 C2.83628906 4.14057861 2.67257813 5.28115723 2.50390625 6.45629883 C1.95180608 10.89093146 1.88827184 15.23603452 1.9375 19.69921875 C1.94128662 20.49729446 1.94507324 21.29537018 1.94897461 22.11763 C1.96107974 24.64097799 1.97971123 27.1642054 2 29.6875 C2.02666488 33.02473658 2.04660838 36.36191543 2.0625 39.69921875 C2.07079834 40.45764572 2.07909668 41.21607269 2.08764648 41.9974823 C2.10521511 45.7980105 1.92487935 49.30639963 1 53 C0.67 53 0.34 53 0 53 C0 35.51 0 18.02 0 0 Z " fill="#725300" transform="translate(193,571)"/>
<path d="M0 0 C1.09731445 0.00676758 1.09731445 0.00676758 2.21679688 0.01367188 C3.99873419 0.02531852 5.78062863 0.04324809 7.5625 0.0625 C5.2598927 2.3651073 4.68317087 2.36308655 1.5625 2.625 C0.75683594 2.70105469 -0.04882812 2.77710938 -0.87890625 2.85546875 C-2.55276964 2.99091113 -4.22726379 3.1188223 -5.90234375 3.23828125 C-11.32885639 3.67548843 -16.07361897 4.71506341 -21.2109375 6.5390625 C-23.68059521 7.1196487 -25.06353465 6.87550183 -27.4375 6.0625 C-24.87784196 4.35606131 -23.04485502 3.4541168 -20.1875 2.5 C-19.46046875 2.25121094 -18.7334375 2.00242188 -17.984375 1.74609375 C-12.00083425 0.14008205 -6.14377386 -0.07307325 0 0 Z " fill="#E8D76A" transform="translate(298.4375,179.9375)"/>
<path d="M0 0 C0.33 0 0.66 0 1 0 C1 7.92 1 15.84 1 24 C0.01 24.33 -0.98 24.66 -2 25 C-2 18.4 -2 11.8 -2 5 C-1.34 5 -0.68 5 0 5 C-0.33 4.01 -0.66 3.02 -1 2 C-0.67 1.34 -0.34 0.68 0 0 Z " fill="#FCE092" transform="translate(858,711)"/>
<path d="M0 0 C0.66 0 1.32 0 2 0 C3.5078125 1.75 3.5078125 1.75 5.125 4 C5.66382813 4.7425 6.20265625 5.485 6.7578125 6.25 C7.16773438 6.8275 7.57765625 7.405 8 8 C7.01 8.495 7.01 8.495 6 9 C4.68 7.68 3.36 6.36 2 5 C1.67 5.66 1.34 6.32 1 7 C0.34 7 -0.32 7 -1 7 C-1.33 13.93 -1.66 20.86 -2 28 C-2.33 28 -2.66 28 -3 28 C-5.44923526 18.20305897 -3.12311063 9.36933188 0 0 Z " fill="#F4D500" transform="translate(430,441)"/>
<path d="M0 0 C11.55 0 23.1 0 35 0 C35 0.33 35 0.66 35 1 C22.73102533 2.78922547 12.30163297 3.29630482 0 1 C0 0.67 0 0.34 0 0 Z " fill="#F9D900" transform="translate(493,666)"/>
<path d="M0 0 C0.99 0.33 1.98 0.66 3 1 C3.87473338 3.36479646 4.53907693 5.56270046 5.125 8 C5.29604248 8.67901367 5.46708496 9.35802734 5.64331055 10.05761719 C8.74648725 22.76053826 8.74648725 22.76053826 7 28 C6.34 28 5.68 28 5 28 C5.0825 26.80375 5.165 25.6075 5.25 24.375 C5.27709305 18.68545926 3.6455063 13.63066548 1.97265625 8.234375 C1.14769191 5.4911201 0.50297754 2.81667423 0 0 Z " fill="#F1E4A2" transform="translate(851,259)"/>
<path d="M0 0 C6.93 0 13.86 0 21 0 C20.67 0.99 20.34 1.98 20 3 C12.08 3 4.16 3 -4 3 C-2.68 2.67 -1.36 2.34 0 2 C0 1.34 0 0.68 0 0 Z " fill="#926500" transform="translate(319,843)"/>
<path d="M0 0 C0.66 0.33 1.32 0.66 2 1 C1.21625 1.763125 0.4325 2.52625 -0.375 3.3125 C-3.07257717 5.90891805 -3.07257717 5.90891805 -5 9 C-6.5859375 10.17578125 -6.5859375 10.17578125 -8.375 11.3125 C-10.96338706 13.07755396 -12.65085641 14.65387025 -14.3125 17.3125 C-14.869375 18.199375 -15.42625 19.08625 -16 20 C-16.66 20 -17.32 20 -18 20 C-17.5694933 15.58993138 -14.5782946 13.16999427 -11.5625 10.25 C-11.05912109 9.74339844 -10.55574219 9.23679688 -10.03710938 8.71484375 C-6.26719382 5 -6.26719382 5 -4 5 C-4 4.34 -4 3.68 -4 3 C-2 1.375 -2 1.375 0 0 Z " fill="#F6BF2C" transform="translate(242,203)"/>
<path d="M0 0 C0.66 0 1.32 0 2 0 C1.1610336 7.71849087 -0.48380582 15.54829402 -5 22 C-6.13087014 18.60738958 -5.86514295 17.83482243 -4.78515625 14.55078125 C-4.37426758 13.27944336 -4.37426758 13.27944336 -3.95507812 11.98242188 C-3.66052734 11.10134766 -3.36597656 10.22027344 -3.0625 9.3125 C-2.77181641 8.41982422 -2.48113281 7.52714844 -2.18164062 6.60742188 C-1.46230013 4.40223052 -0.73483328 2.20006742 0 0 Z " fill="#F9D601" transform="translate(663,547)"/>
<path d="M0 0 C3 2 3 2 3.73046875 3.98828125 C4.53374681 8.07332779 5.11607894 11.82115808 5 16 C5.20625 16.845625 5.4125 17.69125 5.625 18.5625 C6.07353733 21.47799263 5.39473859 22.48201774 4 25 C3.32727653 21.58449704 2.66288201 18.16742548 2 14.75 C1.80921875 13.78191406 1.6184375 12.81382812 1.421875 11.81640625 C1.24140625 10.88183594 1.0609375 9.94726562 0.875 8.984375 C0.70742188 8.12553711 0.53984375 7.26669922 0.3671875 6.38183594 C0 4 0 4 0 0 Z " fill="#FBD700" transform="translate(662,470)"/>
<path d="M0 0 C1.65 1.32 3.3 2.64 5 4 C1.75290806 4.70174756 -1.49800252 5.38388069 -4.75 6.0625 C-5.67039062 6.26166016 -6.59078125 6.46082031 -7.5390625 6.66601562 C-8.42851562 6.84970703 -9.31796875 7.03339844 -10.234375 7.22265625 C-11.05131836 7.39547119 -11.86826172 7.56828613 -12.70996094 7.74633789 C-15.10200494 8.01129884 -16.72525071 7.73312703 -19 7 C-12.63876684 4.48590969 -6.83981276 2.51621228 0 2 C0 1.34 0 0.68 0 0 Z " fill="#F9DC00" transform="translate(489,355)"/>
<path d="M0 0 C0 3.97414085 -1.28307537 4.67292977 -4 7.5 C-8.82388713 12.6831941 -12.95265058 18.19916677 -17 24 C-17.33 23.34 -17.66 22.68 -18 22 C-16.76276024 18.28828073 -14.7446651 16.7446651 -12 14 C-11.30062468 12.68352881 -10.63270867 11.34977849 -10 10 C-7.10035555 5.96120952 -3.86092563 3.07119084 0 0 Z " fill="#F7D901" transform="translate(400,404)"/>
<path d="M0 0 C2.5844523 0.20568306 5.11922725 0.47810133 7.6875 0.8125 C8.75000977 0.9372168 8.75000977 0.9372168 9.83398438 1.06445312 C14.07405643 1.6008242 18.05315785 2.2721198 22 4 C22.33 4.99 22.66 5.98 23 7 C20.69 6.67 18.38 6.34 16 6 C16 5.34 16 4.68 16 4 C15.05125 4.020625 14.1025 4.04125 13.125 4.0625 C10 4 10 4 8 3 C7.67 3.66 7.34 4.32 7 5 C4.0280615 3.87548273 1.66559313 2.77706209 -1 1 C-0.67 0.67 -0.34 0.34 0 0 Z " fill="#F1E8B9" transform="translate(754,179)"/>
<path d="M0 0 C0.66 0.33 1.32 0.66 2 1 C-3.6163262 8.48843493 -11.12949808 14.02915669 -19 19 C-17.43343504 15.05626379 -14.89233152 12.8485289 -11.75 10.0625 C-10.76902344 9.18980469 -9.78804687 8.31710937 -8.77734375 7.41796875 C-5.88487514 4.89977174 -2.9787706 2.41521941 0 0 Z " fill="#F3D100" transform="translate(626,617)"/>
<path d="M0 0 C0.33 0.66 0.66 1.32 1 2 C-2.09405909 11.06505033 -6.31962016 19.32381103 -12 27 C-12.66 26.67 -13.32 26.34 -14 26 C-13.57702637 25.24493164 -13.57702637 25.24493164 -13.14550781 24.47460938 C-11.84514147 22.15077698 -10.54755914 19.82540094 -9.25 17.5 C-8.58484375 16.31277344 -8.58484375 16.31277344 -7.90625 15.1015625 C-5.13422738 10.12822779 -2.50877622 5.11133847 0 0 Z " fill="#F7DB01" transform="translate(656,570)"/>
<path d="M0 0 C0.33 0.66 0.66 1.32 1 2 C-1.12515329 5.18772993 -2.66515721 6.24920753 -6 8 C-6.66 8 -7.32 8 -8 8 C-8 8.66 -8 9.32 -8 10 C-9.57421875 11.55078125 -9.57421875 11.55078125 -11.6875 13.3125 C-14.95300964 16.08499308 -18.01915985 18.92600859 -21 22 C-21.66 21.67 -22.32 21.34 -23 21 C-20.67537243 18.61634868 -18.33873749 16.24480231 -16 13.875 C-15.35160156 13.20984375 -14.70320312 12.5446875 -14.03515625 11.859375 C-9.65222296 7.43304633 -5.09080299 3.58962538 0 0 Z " fill="#F4E00D" transform="translate(246,198)"/>
<path d="M0 0 C0.66 0.66 1.32 1.32 2 2 C-1.09355668 7.41372419 -4.88327027 10.49777237 -10 14 C-10.66 13.67 -11.32 13.34 -12 13 C-12 12.01 -12 11.02 -12 10 C-11.34 10 -10.68 10 -10 10 C-10 9.34 -10 8.68 -10 8 C-6.535 7.505 -6.535 7.505 -3 7 C-3.33 6.01 -3.66 5.02 -4 4 C-2.68 2.68 -1.36 1.36 0 0 Z " fill="#FAE26E" transform="translate(820,810)"/>
<path d="M0 0 C5.13756468 0.64016973 9.58790181 2.19700333 14.375 4.0625 C15.47908203 4.48499023 15.47908203 4.48499023 16.60546875 4.91601562 C18.4055736 5.60566618 20.2030621 6.30213932 22 7 C22 7.33 22 7.66 22 8 C17.23408489 8.28538414 14.08255526 7.4594471 9.75 5.5 C6.00807556 3.65190189 6.00807556 3.65190189 2 3 C2 2.34 2 1.68 2 1 C1.34 0.67 0.68 0.34 0 0 Z " fill="#F7D700" transform="translate(449,654)"/>
<path d="M0 0 C0.66 0.33 1.32 0.66 2 1 C1.69230293 2.81332154 1.37870936 4.62564345 1.0625 6.4375 C0.88847656 7.44683594 0.71445313 8.45617187 0.53515625 9.49609375 C0 12 0 12 -1 13 C-1.23192865 14.51469448 -1.41215238 16.03754562 -1.5625 17.5625 C-1.64628906 18.38878906 -1.73007813 19.21507812 -1.81640625 20.06640625 C-1.87699219 20.70449219 -1.93757812 21.34257812 -2 22 C-2.33 22 -2.66 22 -3 22 C-3.0272616 19.95840905 -3.04651345 17.91671037 -3.0625 15.875 C-3.07410156 14.73804688 -3.08570313 13.60109375 -3.09765625 12.4296875 C-3.005327 9.1870844 -2.61389906 6.18067388 -2 3 C-1.34 3 -0.68 3 0 3 C0 2.01 0 1.02 0 0 Z " fill="#C68F00" transform="translate(196,278)"/>
<path d="M0 0 C4.05214179 1.74522938 7.30603961 4.4228157 10.75 7.125 C11.35199219 7.59292969 11.95398438 8.06085937 12.57421875 8.54296875 C14.05186616 9.69225007 15.52626005 10.84571235 17 12 C16.01 12.495 16.01 12.495 15 13 C12.375 12.0625 12.375 12.0625 10 11 C10 10.34 10 9.68 10 9 C9.34 9 8.68 9 8 9 C6.375 7.625 6.375 7.625 5 6 C5 5.34 5 4.68 5 4 C4.360625 3.71125 3.72125 3.4225 3.0625 3.125 C1 2 1 2 0 0 Z " fill="#F1D301" transform="translate(409,628)"/>
<path d="M0 0 C2.475 0.99 2.475 0.99 5 2 C2.8244694 4.1755306 1.44026108 4.71879553 -1.4375 5.6875 C-2.21996094 5.95949219 -3.00242187 6.23148438 -3.80859375 6.51171875 C-6 7 -6 7 -9 6 C-5.93882432 3.37613513 -5.26826873 3 -1 3 C-0.67 2.01 -0.34 1.02 0 0 Z " fill="#F8DF37" transform="translate(782,834)"/>
<path d="M0 0 C3.07880294 1.53940147 3.62347035 3.90280828 5 7 C6.25210541 10.96500046 7.25634357 14.90988965 8 19 C4.79789297 16.37070391 3.74614015 13.3230404 2.3125 9.5 C1.87550781 8.3553125 1.43851563 7.210625 0.98828125 6.03125 C0 3 0 3 0 0 Z " fill="#6D4D00" transform="translate(200,762)"/>
<path d="M0 0 C6.7857936 0.54863863 13.35009036 1.54267938 20 3 C19.67 3.66 19.34 4.32 19 5 C14.70547064 5.19974555 11.93684962 4.61511779 8 3 C5.29113059 2.83201738 5.29113059 2.83201738 3 3 C3 2.34 3 1.68 3 1 C2.01 0.67 1.02 0.34 0 0 Z " fill="#F9D900" transform="translate(472,662)"/>
<path d="M0 0 C0.33 0 0.66 0 1 0 C1 4.29 1 8.58 1 13 C0.01 12.67 -0.98 12.34 -2 12 C-2.05422947 10.5629191 -2.09289723 9.12524538 -2.125 7.6875 C-2.14820313 6.88699219 -2.17140625 6.08648437 -2.1953125 5.26171875 C-2 3 -2 3 0 0 Z " fill="#FDDF87" transform="translate(858,376)"/>
<path d="M0 0 C7.59 0.33 15.18 0.66 23 1 C23 1.33 23 1.66 23 2 C21.41058594 2.09087891 21.41058594 2.09087891 19.7890625 2.18359375 C18.40102779 2.26800127 17.01300768 2.35264917 15.625 2.4375 C14.92632812 2.47681641 14.22765625 2.51613281 13.5078125 2.55664062 C9.62639508 2.74280134 9.62639508 2.74280134 6 4 C3.96855359 3.06553465 1.96466413 2.06775224 0 1 C0 0.67 0 0.34 0 0 Z " fill="#F7E401" transform="translate(417,577)"/>
<path d="M0 0 C0.74507813 0.00451172 1.49015625 0.00902344 2.2578125 0.01367188 C4.0885764 0.02540754 5.91929873 0.0433415 7.75 0.0625 C5.40459734 2.40790266 4.69825988 2.36935678 1.5 2.625 C-1.26788892 2.86974902 -3.88515309 3.18012094 -6.625 3.6875 C-9.25 4.0625 -9.25 4.0625 -12.25 3.0625 C-12.25 2.4025 -12.25 1.7425 -12.25 1.0625 C-8.15996141 -0.08732602 -4.21822949 -0.04844256 0 0 Z " fill="#FAE27D" transform="translate(298.25,179.9375)"/>
<path d="M0 0 C0.99 0 1.98 0 3 0 C2.45660208 4.56454251 1.20536179 7.9728176 -1 12 C-1.66 11.67 -2.32 11.34 -3 11 C-2.01 7.37 -1.02 3.74 0 0 Z " fill="#D5A202" transform="translate(201,254)"/>
<path d="M0 0 C1.43447734 2.27828754 2.05147327 3.53674057 1.75 6.25 C1.5025 7.1575 1.255 8.065 1 9 C0.6440785 10.43706651 0.29000322 11.87459119 -0.0625 13.3125 C-0.371875 14.529375 -0.68125 15.74625 -1 17 C-1.33 17 -1.66 17 -2 17 C-1.85786703 15.10388566 -1.71113093 13.20811606 -1.5625 11.3125 C-1.48128906 10.25675781 -1.40007813 9.20101562 -1.31640625 8.11328125 C-1.03548319 5.34913703 -0.59843148 2.71054259 0 0 Z " fill="#F9DA00" transform="translate(666,529)"/>
<path d="M0 0 C0.33 0.99 0.66 1.98 1 3 C-0.21494632 4.47763742 -1.43726231 5.95077822 -2.71875 7.37109375 C-4.54806002 9.69677142 -5.25791948 12.16660166 -6 15 C-6.33 15 -6.66 15 -7 15 C-6.50269348 10.02693484 -5.44697666 6.36200187 -3 2 C-2.34 2 -1.68 2 -1 2 C-0.67 1.34 -0.34 0.68 0 0 Z " fill="#E2B305" transform="translate(211,238)"/>
<path d="M0 0 C0 3 0 3 -2 6 C-2.28875 7.010625 -2.5775 8.02125 -2.875 9.0625 C-4 12 -4 12 -6.125 13.375 C-6.74375 13.58125 -7.3625 13.7875 -8 14 C-6.58036591 8.32146365 -3.60636039 4.46825784 0 0 Z " fill="#EFC804" transform="translate(217,227)"/>
<path d="M0 0 C3.59634744 3.49359465 6.83451967 7.11098131 10 11 C9.67 11.66 9.34 12.32 9 13 C1.33257403 4.738041 1.33257403 4.738041 0 0 Z " fill="#FAF1B6" transform="translate(829,219)"/>
<path d="M0 0 C0.99 0.33 1.98 0.66 3 1 C3.25 8.5 3.25 8.5 1 13 C0.67 8.71 0.34 4.42 0 0 Z " fill="#5A4000" transform="translate(193,730)"/>
<path d="M0 0 C0.66 0.33 1.32 0.66 2 1 C-5.11389522 7.70387244 -5.11389522 7.70387244 -10 8 C-6.91367389 4.7373124 -4.06516496 1.97764782 0 0 Z " fill="#F4D101" transform="translate(604,636)"/>
<path d="M0 0 C0.66 0.33 1.32 0.66 2 1 C2.6328125 3.50390625 2.6328125 3.50390625 3.125 6.5625 C3.29257812 7.57441406 3.46015625 8.58632813 3.6328125 9.62890625 C3.75398438 10.41136719 3.87515625 11.19382812 4 12 C3.34 12 2.68 12 2 12 C1.4654744 10.75579353 0.94791389 9.50429064 0.4375 8.25 C0.14746094 7.55390625 -0.14257812 6.8578125 -0.44140625 6.140625 C-1.07831803 3.69987216 -0.80248831 2.3596345 0 0 Z " fill="#EBC900" transform="translate(361,546)"/>
<path d="M0 0 C0.66 0.33 1.32 0.66 2 1 C-0.31 4.96 -2.62 8.92 -5 13 C-5.33 12.34 -5.66 11.68 -6 11 C-5.22265625 8.8359375 -5.22265625 8.8359375 -4.0625 6.375 C-3.68222656 5.55773437 -3.30195313 4.74046875 -2.91015625 3.8984375 C-2.60980469 3.27195312 -2.30945313 2.64546875 -2 2 C-1.34 2 -0.68 2 0 2 C0 1.34 0 0.68 0 0 Z " fill="#F7D901" transform="translate(380,429)"/>
<path d="M0 0 C1.65 1.32 3.3 2.64 5 4 C-3.42857143 5.28571429 -3.42857143 5.28571429 -8 4 C-4.91190305 2.23537317 -3.76687864 2 0 2 C0 1.34 0 0.68 0 0 Z " fill="#F3C600" transform="translate(489,355)"/>
<path d="M0 0 C2 1 2 1 2.8125 3.25 C3.05076713 6.74458458 2.05631115 8.23188884 0 11 C-0.33 11 -0.66 11 -1 11 C-1.14285714 3.57142857 -1.14285714 3.57142857 0 0 Z " fill="#C89401" transform="translate(197,266)"/>
<path d="M0 0 C0.66 0.33 1.32 0.66 2 1 C1.01 1.33 0.02 1.66 -1 2 C-1 2.66 -1 3.32 -1 4 C-1.99 4 -2.98 4 -4 4 C-4 4.66 -4 5.32 -4 6 C-5.65 6.33 -7.3 6.66 -9 7 C-8 4 -8 4 -6.22265625 2.796875 C-5.50980469 2.45140625 -4.79695312 2.1059375 -4.0625 1.75 C-3.35222656 1.39421875 -2.64195312 1.0384375 -1.91015625 0.671875 C-1.27980469 0.45015625 -0.64945313 0.2284375 0 0 Z " fill="#F3D201" transform="translate(590,645)"/>
<path d="M0 0 C0.66 0 1.32 0 2 0 C1.53199289 4.05606165 1.12046792 7.46588679 -1 11 C-2.26264601 6.70700357 -1.62950412 4.12168689 0 0 Z " fill="#F2CA01" transform="translate(663,547)"/>
<path d="M0 0 C2.32590854 3.63423209 2.16265833 6.77088331 2 11 C1.34 10.67 0.68 10.34 0 10 C-1.29411765 2.58823529 -1.29411765 2.58823529 0 0 Z " fill="#FBD500" transform="translate(359,534)"/>
<path d="M0 0 C0.66 0.33 1.32 0.66 2 1 C-0.97 3.97 -3.94 6.94 -7 10 C-7.33 8.68 -7.66 7.36 -8 6 C-7.236875 5.566875 -6.47375 5.13375 -5.6875 4.6875 C-3.41906232 3.26313215 -1.7800277 1.96739903 0 0 Z " fill="#F7DA00" transform="translate(410,394)"/>
<path d="M0 0 C0.66 0.33 1.32 0.66 2 1 C2 5.29 2 9.58 2 14 C1.67 14 1.34 14 1 14 C1 11.03 1 8.06 1 5 C0.34 5 -0.32 5 -1 5 C-0.67 3.35 -0.34 1.7 0 0 Z " fill="#FEE594" transform="translate(857,290)"/>
<path d="M0 0 C-0.66 1.32 -1.32 2.64 -2 4 C-3.98 4 -5.96 4 -8 4 C-8 3.34 -8 2.68 -8 2 C-5.09399739 0.74335022 -3.20395416 0 0 0 Z " fill="#F8E262" transform="translate(272,186)"/>
<path d="M0 0 C1.48206495 0.254496 2.96068615 0.52911762 4.4375 0.8125 C5.67306641 1.03873047 5.67306641 1.03873047 6.93359375 1.26953125 C7.95646484 1.63111328 7.95646484 1.63111328 9 2 C9.33 2.99 9.66 3.98 10 5 C7.69 4.67 5.38 4.34 3 4 C3 3.34 3 2.68 3 2 C2.01 2 1.02 2 0 2 C0 1.34 0 0.68 0 0 Z " fill="#E8DFA7" transform="translate(767,181)"/>
<path d="M0 0 C0.66 0 1.32 0 2 0 C2.33 0.99 2.66 1.98 3 3 C2.01 3.33 1.02 3.66 0 4 C-0.99 5.485 -0.99 5.485 -2 7 C-2.66 7 -3.32 7 -4 7 C-4 5.68 -4 4.36 -4 3 C-2.68 2.34 -1.36 1.68 0 1 C0 0.67 0 0.34 0 0 Z " fill="#F8DA81" transform="translate(836,792)"/>
<path d="M0 0 C0.99 0.33 1.98 0.66 3 1 C0.42215154 3.64752004 -1.91648098 5.94432065 -5 8 C-3.8141763 4.62496331 -2.72426311 2.35277269 0 0 Z " fill="#ECB218" transform="translate(221,224)"/>
<path d="M0 0 C0.33 0.66 0.66 1.32 1 2 C-1.3125 4.5 -1.3125 4.5 -4 7 C-4.99 7 -5.98 7 -7 7 C-5.54744301 3.17053157 -3.57104439 1.87949705 0 0 Z " fill="#F9DF42" transform="translate(253,194)"/>
<path d="M0 0 C0.33 0.66 0.66 1.32 1 2 C1.66 2.33 2.32 2.66 3 3 C2.625 5.4375 2.625 5.4375 2 8 C1.01 8.495 1.01 8.495 0 9 C0 6.03 0 3.06 0 0 Z " fill="#6B4D00" transform="translate(193,571)"/>
<path d="M0 0 C0.99 0.33 1.98 0.66 3 1 C3.33 1.99 3.66 2.98 4 4 C2.5625 6.1875 2.5625 6.1875 1 8 C0.67 5.36 0.34 2.72 0 0 Z " fill="#F8D600" transform="translate(424,489)"/>
</svg>
